<?xml version="1.0" encoding="UTF-8"?>
<svg version="1.1" viewBox="0 0 1600 1066" width="960" height="640" xmlns="http://www.w3.org/2000/svg">
<path transform="translate(768,58)" d="m0 0h8l6 3 11 11 8 14 9 22 3 9v4h2l3-9 7-14 8-12 7-9 8-7 8-5 10-2 12 6 5 4 9 15 6 15v4h2l2-4 15-16 9-9 12-9 16-8 3-1h11l8 5 6 10 2 9 1 1 1 12 1 1 1 21 11-6 15-5 12-1 8 2 7 6 2 5v19l-3 12 13-8 11-5h17l8 5 8 9h8l14-2h8l10 2 10 4 10 10 3 12v6l-1 5h7l1-1 14-2h20l11 3 6 3 8 7 4 6v17l-4 9h16l12 2 9 4 5 4 3 7-2 9-3 3 14 1 2 1 15 1 17 5 11 6 7 6 5 8v12l-8 14-12 12-6 4-4 1v2l5 1 12 5 9 7 7 7 3 5v8l-7 6-8 4-4 1 9 3 24 7 20 8 21 11 9 6 10 8 8 9 3 6v8l-5 8-8 7-18 8-16 4-7 2 8 7 11 11 7 10 3 6 1 8v3l-3 8-8 8-18 8-17 5-16 3 15 8 11 8 10 8 14 14 8 13 2 7v9l-4 8-4 5-6 4-14 7-19 6-22 4-19 2-3 2 2 6v13l-6 8-9 5-10 2-17 2-2 1 8 8 10 15 10 18 6 14 5 17 1 9 1 2v7l-4 13-5 5-9 4-11 2-1 1h-32l-23-4-25-7-19-7-10-4h-2l-3 6-9 4h-9l-13-3-25-11-5-2 5 12 3 13 1 9 1 1 3 22 1 17 1 2v23l-1 1-2 22-3 11-4 11-6 8-3 3-4 1h-9l-15-3-22-8-17-10-11-8-9-7-31-31-7-9-7-8-1 27-3 21-4 15-6 20-11 28-5 9-8 13-7 9-12 12-9 5h-7l-12-4-12-6-5-4-8-7-5-4-7-8-11-15-13-25-7-20-3-10h-2l-14 14-7 4-9-1-9-5-7-6-5-3-7-8-4-4-13 25-9 13-7 10-9 11-23 23-9 7-13 8-16 8-6 1-6-5-5-5-8-11-5-12-3-12-1-19v-12l-8 6-11 9-9 5-10 4h-13l-6-3-9-9-5-10-5-19-1-17 1-25 2-9 6-23-17 7-4 1h-17l-4-5-2-2-5 4-25 15-19 10-20 8-16 5-8 2-17 2-12-3-7-6-5-14v-32l1-1 2-11 7-21 10-20-11 7-17 12-19 11-11 4-8 2h-11l-6-3-6-7-3-9v-13l4-16 6-17 10-21-24 11-14 5h-6l-4-4-2-4v-16l3-8 8-16 6-10 7-10 7-9 3-4-16 2-2 1-17 1h-60l-7-1-6-3-4-4-3-6v-15l4-10 6-10 8-10 13-13 9-7 10-8 10-7 9-6-24-1-1-1-11-2-8-7v-7l8-10h-22l-14-4-7-6-2-3v-15l7-14 9-12 9-9 8-6 9-7v-2l-6-4-2-6 1-8 5-8 12-12 16-10 14-7 13-5 2-1-12-5-19-10-11-8-8-6-7-10v-11l4-6 7-6 14-7 12-3 7-1 1-1 17-1 3-1h13l4 1 21 1 1 1 13 1-18-11-11-8-12-11-6-7v-7l2-3 8-3 7-2 12-1 9-1-1-5v-10l3-6 7-6 12-4h30l19 3 15 4 8 1-6-13-5-16v-7l2-4 7-2v-7l-3-13-1-4v-8l3-10 8-7 6-2h23l15 4 15 6 13 7 10 6 10 7 16 12 13 10 4 2-4-18-2-12v-32l4-9 4-5 5-3h15l13 5 15 8 15 11 1-31 2-12 4-13 4-6 6-4 7-1 10 3 12 9 8 8 9 13 6 9v2h2l1-12 4-11 5-8 7-7 8-1 8 2 8 4 8 5 8-15 6-11 6-8 7-6z" fill="#B71232"/>
<path transform="translate(1020,114)" d="m0 0h8l6 3 2 3v-3h2l1-2 2 5v3h2v16l-3 12 13-8 11-5h17l8 5 8 9h8l14-2h8l10 2 10 4 10 10 3 12v6l-1 5h7l1-1 14-2h20l11 3 6 3 8 7 4 6v17l-4 9h16l12 2 9 4 5 4 3 7-2 9-3 3 14 1 2 1 15 1 17 5 11 6 7 6 5 8v12l-8 14-12 12-6 4-4 1v2l5 1 12 5 9 7 7 7 3 5v8l-7 6-8 4-4 1 1 2h-13l-3-1h-37l-34 3-30 5-31 7-14 4-36 12-23 9-12 5-30 14-9 4-23 11-9 5-8 4h-2v2l-14 7-5 3h-2v2l-5 1v2l-6 3-7 5-4 2v5l15-8 25-15 33-17 25-12 28-12 21-8 16-6 19-6 20-6 28-7 38-7 16-2 18-1h33l16 1 26 6 21 7 19 9 11 7 7 4 10 8 3 2 2 5 2 4-1 6-8 7-14 6-18 6-11 3-5-1-16-9-20-8-23-7-28-6-20-3-26-2h-42l-27 2-27 4-27 6-29 9-21 8-24 10-2 2-10 4-17 9-14 8-15 10-7 5-2 8-5 5-4 3 1-5h-3l-2 6-10 15-4 4-1 2h-2l-2 6-4 7 2 1 2-5 5-6 21-14 17-10 19-10 26-11 21-7 28-7 30-5 22-2 20-1h18l28 3 19 4 20 7 22 11 15 10 14 11 13 12 9 9 6 9-4 2h-71l-23-2-20-4-26-10-21-6-29-5-20-2h-53l-18 2-20 4-20 5-23 8-19 9-13 5-4 2-2 4 9-3 32-13 27-8 23-5 23-3 12-1h41l20 2 21 4 14 3 14 4 16 5 9 4 10 4 30 15 18 12 11 8v2l5 2 9 9 13 12 5 5 4 6 3 2 1 3 2 1 1 3 2 1 5 9v2h2l2 3 1 14-4 4-12 3-10 1h-21l-20-3-20-5-31-9-28-10-36-16-24-11-26-12-31-14-27-10-15-5-27-6-8-1v-2h-27l-23 1v-2l-6 4-5 3-4-1-4 1-2 4-3 3-5 1-10-3 2 3-1 4-5 5-10 5-9 2 2-4 2-11h-5l2 4-7 8-9 6-8 2h-13l-2-1-10 2h-11l2-1v-3l-7 4-1 1h-13l-3-2v-3h-5l-1 4-6 2h-11l-3-1 1-4-5 2-7-1-4-3v3l-10-1-24-7-7-7v-2h2v-2l-4 3h-6l-5-4-3-3v-5l-8-1-5-5-3-2 1 4h-3v-2l-5-1-2-2-1-9-5-1-4-6v-7l4-2-3-2v-2l-4-2-2-6v-6l4-1-5-5 1-9h3v4h2l-1-5-5-7-1-7 4-10h1v18l5 4 5 3 1 10h2v-10l9 2v-2h-3v-2l-6-2-1-5 2-3-4-1-2-3v-5l3-3 4 1 5 5 3 10 4 5 5 2h9l2-1h-11l-7-4-2-3v-10l-5-3-2-2 1-11 1-2 7-1-7-2-5-4-2-7 4-4h3l-2-5 1-5 2-2h7l7 3-7-6-2-4v-5l4-3 8-1 3-9 3-5 2-1h10l7 2 1-7 4-4 2-1h7l4 2 1-1 2-10 3-3 6 1 5 6v2h2v-6l5-8 6-4 5 1 4 4 4-6 5-3 5 1 5 3 2-4 7-3 4 3v2l7-5h6l2 3 4-2 5-4 7-1 5 3 7-4 7 1 4 3h2v-2l7-2-9 1-1-1 1-12 8-35 7-24 8-23 9-21 9-19 11-19 12-18 10-13 11-13 11-12 14-14 11-9 15-11 16-9 21-7z" fill="#B8380D"/>
<path transform="translate(768,58)" d="m0 0h8l6 3 11 11 8 14 9 22 3 9v4h2l3-9 7-14 8-12 7-9 8-7 8-5 10-2 12 6 5 4 9 15 6 15v4h2l2-4 15-16 9-9 12-9 16-8 3-1h11l8 5 6 10 2 9 1 1 1 12 1 1 1 21 11-6 15-5 12-1 8 2 7 6 2 5v3h-2l-2-7-2 2-1 3-5-5-3-1h-8l-15 4-13 5-14 8-16 12-14 12-17 17-9 11-10 12-12 17-9 15-12 22-9 20-9 24-8 26-9 37-2 11v6l9-1 2 2-9 1v2l-3 1-3-3-7-1-8 4-4-3-7 1-7 6-3-1-1-2h-6l-5 4h-2l-4-4-7 3-2 3-4-1-2-2-6 1-5 5-2 3-6-5-5 1-5 4-3 6-1 6h-2l-4-6-3-2-5 1-2 3-2 10-5-2h-7l-4 2-3 9-5-1v-2l3-2-4-2-8-14-9-16-2-5h-2l-12-19-14-22-12-17-1-3-3-1-1-4-4-2-7-9-9-11-11-14-12-13-15-16-11-12-10-9-7-10-2-2-4-8 4 1 3 3h2l-4-18-2-12v-32l4-9 4-5 5-3h15l13 5 15 8 15 11 1-31 2-12 4-13 4-6 6-4 7-1 10 3 12 9 8 8 9 13 6 9v2h2l1-12 4-11 5-8 7-7 8-1 8 2 8 4 8 5 8-15 6-11 6-8 7-6z" fill="#B71031"/>
<path transform="translate(1020,114)" d="m0 0h8l6 3 2 3v-3h2l1-2 2 5v3h2v16l-3 12 13-8 11-5h17l8 5 8 9h8l14-2h8l10 2 10 4 10 10 3 12v6l-1 5 2 1v2l-6 1v-2l-5 1-1 3-10 4-12 5-15 5-17 9-23 13-12 8-11 8-14 11-11 9-7 7-8 7-10 10-7 8-9 10-11 14-15 20-19 29-9 15-7 11-8-1 8 4 3 5-1 5-3 1v2h10l3 2 1 4-3 5 4-1 5 4v6l-5 4-1 2h6l3 2-1 7-6 5 7 2 2 4-1 5-4 3 4 3-2 6-3 2h-3v14l-6 7-5 3-3 5-2 2-9-1v11l-6 7-4 3-6-1-3-1v8l-4 5h-7l-3-2-3-9 1 6v10l-2 3-17 1-5 6-5 2-9-1-7-3 1 4-5 5-13 1h-4l-5 6h-7l-4-3v-3h-2l-2 6-4 3h-7l-5-4v-4l-7 6h-7l-1-1-1-7-1-1-4 8-6 2-3-2-1-3-5 6h-5l-1-1 1-7 1-2-6 2-3-2-2-8-2 10-7 3-5-1-1-4 4-5-10 3-8-1v-4l6-2h-9l-7-5 2-5 3-2v6h2l1-9 8-2 3 4 2 4 3-1h10l4 5 1 4 5-3 6 1 5 1h14l5 3 4-1 5-3 7 1 5 2 3-3 9-1 9 3h3l2-5 6-3 17-3 4-2 9-1 11-4 12-3 2-6 11-4 6-10 5-2 11-1 5-5 4-5 5-5 2-6 4-4 4-8 5-6-1-2v-5l-3-2-10-2-1-5 4-4 4-1v-10h-2l1 4-5 5h-7l-2-2 1-6 11-8 3-5v-5l-10-2-2-2-1-7-10-2-3-7h-2l3 2-1 4-3 2h-8l-2-5 1-2h-6l-1-3-11 1-4-2v-2l3-3-12 1-9-2h-12l-8-1-1 2 5 2-2 4-6 1-1-4 2-5 1-6-3 1-3 6-11-3-3-2-1 5-6 3 7 4-2 4-7 1-2-1v-6l-4-1v5l-3 2-5-1-3-6-2-1-9 6h-2l-1 3-2-1v-6h-2l-1 4-11 7-8 1-1-2v-11l3-6 5-4 5-1 6 5 4-6 5-3 5 1 5 3 2-4 7-3 4 3v2l7-5h6l2 3 4-2 5-4 7-1 5 3 7-4 7 1 4 3h2v-2l7-2-9 1-1-1 1-12 8-35 7-24 8-23 9-21 9-19 11-19 12-18 10-13 11-13 11-12 14-14 11-9 15-11 16-9 21-7z" fill="#B81233"/>
<path transform="translate(819,386)" d="m0 0h3v6l-2 5v3l6-1 1-3-4-2 1-3 13 1h7l9 2 13-1-2 4h-2l1 2 9 1h5l1 2h7l-1 5 1 2h8l3-2v-3l-4-3 5 1 2 4v3h6l4 2 3 8 7 1 4 4-1 5-5 6-8 5-1 6 1 1h7l4-4-1-4-1-2 4 1 1 1-1 10-6 3-1 6 12 3 2 2v6 3l-6 7-4 8-3 2-2 7-7 6-4 6-3 2-11 1-5 2-4 8-4 3-9 2-2 6-16 5-7 3-9 1-9 3-15 3-4 4-1 2-5 1-7-3-9 1-4 3-6-3-7 1-4 3-5-1-3-2h-18l-3-2-6 1-3 1-5-8h-10l-4 1-4-9 5-2-1-1-6 2-7 1-3-4v-7h-12l-6-4-4-4 7-3 7-2h-11l-7-4-2-3v-10l-5-3-2-2 1-11 1-2 7-1-7-2-5-4-2-7 4-4h3l-2-5 1-5 2-2h7l7 3-7-6-2-4v-5l4-3 8-1 3-9 3-5 2-1h10l7 2 1-7 4-4 2-1h7l4 2 1-1 2-10 3-3 6 1 5 6v2h2v-6h1l1 12 6-2 5-2 8-5 1-3h2l1 6 8-6 6-3 3 3 2 5 6-1 1-5 5 1-1 6h7l3-2v-2l-7-3 3-3 4-2 1-4 10 3 4 2 2-6z" fill="#B8390D"/>
<path transform="translate(427,155)" d="m0 0h23l15 4 15 6 13 7 10 6 10 7 16 12 9 7 1 4 3 3 2 4 8 11 16 15 9 10 14 15 10 11 13 17 10 12 6 7 9 11 15 23 12 19 6 9 1 4h-2l7 28v6h-2l-11-22-3-4-4-7v-3h-2l-3-5v-3h-2v-3h-2v-3h-2v-3h-2l-3-5v-2h-2l-1-4h-2l-1-3-3-3v-2h-2l-1-4-3-1-1-4-3-1-1-4-3-1-3-5-5-5-2-4-4-2-6-8-8-7-24-24-9-7-8-7-3-1-1-2-3-1-1-2-3-1-1-2-6-3-1-2-11-6-23-12-10-5-22-7-25-5h-24l-2 3h22l17 2 17 5 11 4 27 13 15 9 6 4v2l5 2 13 10 11 9 11 10 8 7 17 17 7 8 9 10 8 10 13 17 12 17 14 22 9 16 5 13 1 9-1 2-9 4-3 1 2 9 1 3-10 2-3 4-9-11-2-5-4-2-9-11-8-7-7-7-7-8-23-23-8-7-10-10-22-18 5 5 13 12 8 7 40 40 7 8 7 9 5 5 7 8 8 7 9 11-2 4-5 14-2 6-4-4-14-21-13-17-9-10-9-11-16-17-25-25-8-7-15-13-11-9-13-11-11-9-17-16-14-15-16-16-7-9v-2h-2l-12-18-8-16v-2h-3l1 7 3 7-1 3-6-13-5-16v-7l2-4 7-2v-7l-3-13-1-4v-8l3-10 8-7z" fill="#FD767F"/>
<path transform="translate(820,614)" d="m0 0h13l2 1 9 19 5 15 5 25 3 31v39l-3 32-3 21-7 27-6 19-7 15-9 19h-2l-2 5-8 12-7 9-5 5-5 6-3 2-7-1-10-6-9-7-4-5-10-15-8-17-4-8-5-17-2-9-2-8-3-27v-23l2-19 6-27 9-24 12-24 12-19 12-16 13-16 9-10 6-2z" fill="#FD767F"/>
<path transform="translate(1181,186)" d="m0 0h20l11 3 6 3 8 7 4 6v17l-4 9h16l12 2 9 4 5 4 3 7-2 9-3 3 14 1 2 1 15 1 17 5 11 6 7 6 5 8v12l-8 14-12 12-6 4-4 1v2l5 1 12 5 9 7 7 7 3 5v8l-4 4-7 1v-6l2-3-1-5-8-7-14-7-21-6-21-3h-32l-24 3-28 6-27 8-26 10-24 11-21 11-22 13-25 17-11 8-16 12-12 10-22 18-7 7-4 6-2-4-1-4 17-16 12-11 14-12 16-12 13-10 21-14 21-13 29-15 17-8 31-12 14-4 8-3 26-6 30-5 8-1h18l24 3 14 2 11-7 13-13 5-10v-8l-4-7-10-6-12-4-13-2h-27l-22 2-28 6-16 5-30 10-26 11-16 8-19 10-24 15-18 13-17 13-13 11-10 9-11 9-16 17-14 15-9 11-5 6h-2v2l-2 1-1 6v5l-2-1v-2l-4-2-1-5h2l2-5 10-13 7-9 11-13 11-12 14-14 8-7 10-9 4-1 1-3 5-5h3l1-3 4-3h3v-2l5-2v-2h3v-2l5-3h2v-2h3v-2l7-5 9-5 25-15 21-11 24-10 28-10 36-10 28-6 10-7 4-2 1-2v-6l-9-4-10-2h-28l-30 5-26 7-25 9-24 11-20 11-18 12-15 11-14 11-11 10-8 7-12 11-7 8-10 10-7 8-9 10-8 10-9 11-11 16-4 7v4l5 3 3 4 1 4-1 5h-2l-2-12-8-2v4h-2l-1-7-4-3h-4l2-6-1-3-2-1-10-1v-2l3-3-1-5-1-3-9-3 1-2 8 1 13-22 24-36 13-17 8-10 12-14 15-16 8-8 16-14 14-11 12-9 15-10 29-16 16-8 13-4 9-4 10-4 3-3 9 1v-2l6-2z" fill="#B71032"/>
<path transform="translate(591,571)" d="m0 0h24l23 3 13 3 10 5 8 3 5 5 2 6-17 6-8 3-13 5-15 7-13 6-14 7-44 24-23 13-22 13-29 17-10 6-11 6-19 10-32 16-11 4-11 5-16 5-4 2-9 1v2l-9 2-6 2h-13l-4-2v-12l4-13 8-13 6-12 12-19 13-16 12-13 11-10 17-13 14-10 26-15 23-11 29-11 25-7 21-5 19-3z" fill="#FD767F"/>
<path transform="translate(450,539)" d="m0 0h19l32 2 28 3 26 5 22 6 22 8v1l-7 1-17 1-25 4-17 3-27 7-23 8-18 7-30 15-11 6-19 13-12 5-26 6-28 6-21 4-35 5-33 3-24 1h-17l-10-2-5-3-3-5-2 4-2-3v-15l4-10 1 4-1 6h-2v2l3-1 11-18 12-14 15-14 14-11 13-9 11-6 10-4 16-3 15-2 26-5 38-5 38-4z" fill="#FD767F"/>
<path transform="translate(1047,537)" d="m0 0h41l20 2 21 4 14 3 14 4 16 5 9 4 10 4 30 15 18 12 11 8v2l5 2 9 9 13 12 5 5 4 6 3 2 1 3 2 1 1 3 2 1 5 9v2h2l2 3 1 14-4 4-12 3-10 1h-21l-20-3-20-5-31-9-28-10-36-16-24-11-26-12-31-14-27-10-15-5-27-6-8-1v-2h-27l-23 1 4-6 45-18 28-8 19-4 23-3z" fill="#FD767F"/>
<path transform="translate(260,323)" d="m0 0 5 1-4 2v3h37l28 4 52 13 35 12 35 15 48 24 17 10 23 14 17 12 13 9 16 12 17 14 14 11 11 9 7 7-2 16-90-30-47-17-46-17-37-13-36-12-45-14-27-9-21-8-23-10-17-9-10-7-7-4 1 6 3 4-4-2-8-11v-11l4-6 7-6 14-7 12-3 7-1z" fill="#F53B54"/>
<path transform="translate(713,614)" d="m0 0h10l24 4 1 1 23 1-6 7-12 13-7 9h-2l-2 5-13 16-8 10-11 13-9 11-10 11-7 8-12 13-24 24-8 7-15 13-11 8h-2v2l-5 3h-2v2l-24 15-21 12-19 10-15 4-11 1-4-6-1-6v-15l3-20 8-24 8-16 7-13 11-16 11-14 10-11 7-8 16-16 11-9 15-12 22-14 25-12 19-6 20-4z" fill="#FD767F"/>
<path transform="translate(768,58)" d="m0 0h8l6 3-2 1-2-1h-11v3l15 1 2 3h-2l4 7 7 10 9 19 6 20 4 18 4 30 2 36v25l-2 38-4 47-5 50-2 8-1 1-18 1-2-1-9 1-5 2-9-16-9-19-11-28-8-27-6-28-4-28-1-12v-52l3-23 5-21 7-21 10-19 6-8 3-5 5-6-2-1 1-1-2-2z" fill="#F63C55"/>
<path transform="translate(679,599)" d="m0 0 7 1 14 6 11 4-3 2-30 4-20 6-18 8-21 12-16 12-11 8-8 7-5 5h-2l-2 5-14 15-9 11-10 13-13 20-10 18-9 23-5 19-1 12v19l-10 7-18 11-16 9-19 9-5 3-2 4 6-1-2 2-19 6-8 2-17 2-12-3-7-6-5-14v-32l1-1 2-11 7-21 9-18 4 2 1-1 8-12 11-14 19-19 15-11 21-13 22-12 28-17 26-15 21-12 13-7 16-6 6-5 17-9 29-13 25-10z" fill="#D01E43"/>
<path transform="translate(864,709)" d="m0 0 2 2 5 16 5 12 8 16 8 14 9 13 12 16 5 6v2h2l7 8 12 12 11 9 11 8v21l-3 25-5 22-6 20-10 25-8 16-9 14-8 9-7 5-4 4-11-3-12-6-11-8-13-13-9-13-8-14-11-25-8-23v-6l9-15 8-15 11-27 8-26 5-23 3-21 2-27z" fill="#D01E43"/>
<path transform="translate(928,582)" d="m0 0h16l24 3 23 5 31 10 10 5 12 5 19 10 15 10 14 11 17 16 7 8 12 15 12 19 10 19 9 24 4 17 1 14-3 10-3 3h-12l-14-5-14-7-6-2v-2l-9-3-18-11-17-12-13-10-16-13-10-9-8-7-10-9-8-8-8-7-5-6-8-7-8-9-8-7-15-15-11-9-12-9-15-9-18-7-16-4v-2l7-3 14-4 10-6z" fill="#FD767F"/>
<path transform="translate(874,602)" d="m0 0h8l13 4 21 10 13 10 10 9 12 12 12 16 11 18 9 16 10 24 6 19 4 17 2 15v35l-3 15-4 10-6 8-5 3-9-1-17-8-14-10-13-12-10-10-11-14-10-14-1-4h-2l-6-11-6-10-11-24-9-25-7-25-8-28-5-14-7-11v-3h-2l-1-4 8-4 12-1z" fill="#FD767F"/>
<path transform="translate(632,87)" d="m0 0 10 2 6 3 10 8 7 7 9 13 6 9v2h2l1-12 4-11 5-8 7-7 8-1 8 2 8 4 8 5 7-14 1 3-6 14h-2l-1 8h-2l-1 8-4 12-4 16-2 16-1 33-2 4-4-9v-2h-2l-1 4-1-4h-2l9 24 3 12 4 31 6 29 7 25 9 25 12 25 7 16-1 5-3 2-10-2-9 4-4-1-10-9-8-8-9-11-10-13-12-18-8-13-12-22-15-31-10-25-7-20-9-29-4-22-4-1-3-8-9-5-5-4-7-5 2-1 10 7 7 5 1-31 2-12 4-13 4-6 6-4z" fill="#F63C55"/>
<path transform="translate(1020,114)" d="m0 0h8l6 3 3 4 1 5-1 13-6 18-10 19-12 19-14 19-11 16-13 18-17 26-9 14-5 9h-2l-2 6-6 11-6 9-3 7h-2l-3 9-5 8-6 12-9 21-1 4-14-3 1-7 10-30 13-31 8-16 13-25 14-22 13-19h-2l-2 5-11 15-13 21-13 23-8 14-8 16-7 17-7 19-5 18-10-4-14-1-11 1-1-1 1-12 8-35 7-24 8-23 9-21 9-19 11-19 12-18 10-13 11-13 11-12 14-14 11-9 15-11 16-9 21-7z" fill="#FD767F"/>
<path transform="translate(792,618)" d="m0 0h3l-2 4-10 10-9 11-5 7-2 1-1 3h-2v3h-2v3h-2l-2 5-3 4-1 4h-2l-1 5h-2l-2 5-3 7h-2l-2 6-7 15-9 28-6 25-6 16-14 28-9 16-10 17-4 5-1 3h-2v3h-2l-2 5-3 5h-2l-2 5-3 4h-2l-4 8-8 8-1 3-8 7-9 10-14 13-17 13-13 8-4 2h-12v-2l-5-2-6-8-5-13-2-11v-17l11-18 5-9 8-11 12-16 11-13 7-10 10-15 18-13 12-12 11-9 29-29 7-8 24-28 13-16 15-20 11-14 11-13 16-16 2-1z" fill="#FD767F"/>
<path transform="translate(1194,438)" d="m0 0h18l34 2 41 6 17 4 20 6 9 4 21 10 8 4v2l6 2 3 3 11 9 6 8 4 4 5 8 1 9-5 4-4 1-4 4-10 4h-3v3l8 2 1-2 3 2-15 6-21 5h-2v-2l5-1-4-4h-43l-5-3-7-8-14-11-18-13-22-12-16-6-21-7-15-3-18-2h-46l-37 5-31 7-26 8-19 7-16 8-19 10h-2v2l-9 3 1-3 4-1 1-3-2-1 1-5 21-13 16-9 23-12 27-12 25-9 23-7 31-7 29-4z" fill="#FD757E"/>
<path transform="translate(980,677)" d="m0 0 4 2 27 27 8 7 14 12 14 11 19 14 12 8 16 12 4 10 8 30 4 25 1 11v39l-4 25-6 15-2 3h-9l-24-7-16-8-17-10-22-18-24-24-6-8v-3l12-3 6-5 7-11 4-11 1-14v-30l-4-26-5-19-9-25-11-24z" fill="#D01E43"/>
<path transform="translate(283,403)" d="m0 0h8l50 16 95 31 48 17 38 14 40 14 38 12 23 5 7 1 1 1-1 11-1 2-25-3-34-6-73-15-61-11-32-5-41-4-80-13-30-6-20-6-17-6-2 1 1 3-4-2-2-6 1-8 1-2 3 1v2l8-7 5-3 14-9 14-8 21-9z" fill="#F63C55"/>
<path transform="translate(1261,271)" d="m0 0h27l17 3 14 6 5 4 4 7v8l-6 12-10 9-10 8-4 2-22-3-16-2h-18l-28 4-28 6-15 4-9 3-25 9-25 11-26 13-22 13-21 14-14 10-14 11-10 8-13 11-17 16-9 8-2-1-3-13 1-6 3-1v-2l5-5 9-10 7-8 9-10 8-8 7-8 10-9 8-7 13-11 17-13 15-11 15-10 20-12 22-12 25-11 24-9 28-9 17-4 15-3z" fill="#FD757F"/>
<path transform="translate(1098,635)" d="m0 0 10 3 22 10 37 15 28 10 21 6 32 7 9 2 9 11 13 19 12 20 7 17 5 25v11l-4 4-9 2-10 1h-27l-20-3-21-5-21-7-21-8v-12l-5-25-8-21-8-16-6-11-11-16-13-16-12-13-9-9z" fill="#D01E43"/>
<path transform="translate(1143,482)" d="m0 0h18l28 3 19 4 20 7 22 11 15 10 14 11 13 12 9 9 6 9-4 2h-71l-23-2-20-4-26-10-21-6-29-5-20-2h-53l-18 2-20 4-20 5-23 8-19 9-9 2 4-7 4-5 21-14 17-10 19-10 26-11 21-7 28-7 30-5 22-2z" fill="#FD767F"/>
<path transform="translate(1270,386)" d="m0 0h33l16 1 26 6 21 7 19 9 11 7 7 4 10 8 3 2 2 5 2 4-1 6-8 7-14 6-18 6-11 3-5-1-16-9-20-8-23-7-28-6-20-3-26-2h-42l-27 2-27 4-27 6-29 9-21 8-24 10-2 2-10 4-17 9-14 8-15 10-7 4-1-13 21-12 20-12 33-17 25-12 28-12 21-8 16-6 19-6 20-6 28-7 38-7 16-2z" fill="#FD757E"/>
<path transform="translate(323,277)" d="m0 0h24l26 3 15 3 26 8 20 8 16 8 17 10 18 12 19 14 16 13 11 9 10 9 8 7 32 32 7 8 12 14 22 28 10 14 4 7-1 4-4 1-15-15-14-11-13-11-28-21-20-14-19-12-21-12-27-14-28-13-27-12-29-11-26-10-26-13-25-15-17-12-6-6v-4l4-2 18-3z" fill="#FD767F"/>
<path transform="translate(825,416)" d="m0 0 4 1 2 4-3 3 7 2 1-5 1-1h5l1 4-2 4 5 1 2-4 5 1 1 5 2 4 8 8 1 4 5 1 2 4-4 4 5 2 6-1 2 2-1 4-4 2v4l5 2 1 5-5 4h-4l-1-3-1 5 6 1 2 2-1 6-2 1h-6l-3-2-2 6 5 1 3 4-1 4-2 1h-7l-4-1-4 4 6 1 3 4v5l-10-2-3-5-6 7h-8l-4 8-2 2-5-1-3-1h-8l-2-2-5 4-4 2-4-1-4 6-5-1-3-3 1-4-6 2h-2l-2 3-6 1-4-4v-3h-3l-4 6h-6l-3-3v-4h-5l-1 5-2 2-8-1-3-2v-2l8-6-3-1-3 2-6-1-1-1v-6-3h-2l-4 3-5-1-1-1 1-7h2v-2l-4-1 1-5-9-2-1-3 2-5h3l-1-3 4-2-1-11-5-1-2-3 1-5 7 1h4l3-1-1-6 1-1h8l2-5h-8l1-6 2-1h7l4 2v-3l-1-1v-5l5-1 4 4 3-2h3l-1-6 3-1 8 2 8-6h7l18-3v-6l5-1 8 3v4l14-1 1-5z" fill="#9E993A"/>
<path transform="translate(351,490)" d="m0 0h24l27 3 44 6 47 9 34 7 32 6 18 4 25 4 10 2 16 2 1 1 1 8 6 3 3 15 4 8v2l-15-2-18-5-28-12-25-7-21-4-20-3-24-2h-81l-41 4-43 6-34 6-28 4-17 1h-27v2l6 2-4 1-6-3-5-5v-7l3-3v5h4l2-4 8-7 14-10 9-5 19-10 19-8 23-7 23-5z" fill="#FD757E"/>
<path transform="translate(1237,333)" d="m0 0h32l21 3 21 6 14 7 4 3v2l4 2 2 2-1 5-2 8 5-1-3 3-10 4 1 2h-13l-3-1h-37l-34 3-30 5-31 7-14 4-36 12-23 9-12 5-30 14-9 4-23 11-9 5-8 4h-2v2l-14 7-5 3h-2v2l-5 1v2l-6 3-7 5-5 2v-8l2-9 9-10 9-8 10-8 11-9 14-11 15-11 30-20 15-9 22-12 23-11 23-9 24-8 24-6 21-4z" fill="#FD767F"/>
<path transform="translate(553,130)" d="m0 0h15v2l-13 1v1l12 2v2l7 1 16 8 11 8 13 12 4 13 6 23 8 26 11 26 13 28 14 29 16 27 8 11 12 16 9 10 7 8 6 8-10 3-5 10-10 2-5 2-14-25-16-26-13-19-12-17-16-21-13-16-9-11-12-14-12-12-7-8-13-13-6-9v-2h-6l-4-6 1-3-4-16-2-12v-32l4-9 4-5z" fill="#F63C55"/>
<path transform="translate(1181,194)" d="m0 0h17l12 3 9 6 4 4 1 3v10l-4 12-4 3-14 1-31 6-21 6-14 5-12 5-16 8-13 7-23 14-16 11h-2v2l-16 12-28 24-20 20h-2l-2 4-11 12-9 10-9 12h-2l-2 5-10 15-5 2-8-7-1-4 11-23 15-24 11-16 10-14 13-16 12-14 24-24 11-9 15-12 20-14 15-9 21-12 15-7 17-7 20-6z" fill="#FD757F"/>
<path transform="translate(715,789)" d="m0 0 2 4 3 27 6 25 6 17 12 24-1 6-8 14-16 25-9 12-10 13-9 10-4 5h-2l-2 4-17 13-3 3h-3v2l-7 3h-6l-5-5-7-8-2-6-3-1-5-23-1-7v-27l3-5 5-6 16-16 9-11 3-4h2l2-4 10-14 13-19 13-21 12-23z" fill="#D01E43"/>
<path transform="translate(955,68)" d="m0 0h11l7 6 4 8 3 14v29l-9 7h-2v2l-4 1v2l-4 1v2l-4 1-1 3-5 2-1 3-8 6-16 16-7 8-2 3h-2l-2 5-8 10-3 4-2-1 9-25 4-10 5-13 4-8 8-17-1 1-8 16-14 31-3 7-4 10-8 24-5 8-5 9-6 10-5 12-5 10-5 13-9 26-3 12-3 9-7 32-2 11-2 1-1-4v-10l7-38 7-35v-5l-14 57-7 36-1 3h-4v-9l5-35 7-36 10-40 10-33 15-42 10-23 8-16 10-18 10-14 11-13 11-11 13-9z" fill="#FD757E"/>
<path transform="translate(1215,239)" d="m0 0h28l13 3 7 4v6l-3 4-11 6-5 3-29 6-35 10-28 10-27 12-24 13-21 13-9 6h-2v2h-3v2l-5 3h-2v2h-3v2l-5 2v2l-7 4-1 2-4 2-5 6-6 4-14 13-8 7-15 15-9 11-11 13-10 14-4 4-4-11-3-3-4-2 1-6 7-11 8-11 11-13 8-10 9-10 12-13 8-8 6-7 8-7 14-13 11-9 13-10 20-14 15-9 23-12 19-8 30-10 26-6z" fill="#FE6162"/>
<path transform="translate(427,155)" d="m0 0h23l15 4 15 6 13 7 10 6 10 7 16 12 9 7 1 4 3 3 2 4 8 11 16 15 9 10 14 15 10 11 13 17 10 12 6 7 9 11 15 23 12 19 6 9 1 4h-2l7 28v6h-2l-11-22-3-4-4-7v-3h-2l-3-5v-3h-2v-3h-2v-3h-2v-3h-2l-3-5v-2h-2l-1-4h-2l-1-3-3-3v-2h-2l-1-4-3-1-1-4-3-1-1-4-3-1-3-5-5-5-2-4-4-2-6-8-8-7-24-24-9-7-8-7-3-1-1-2-3-1-1-2-3-1-1-2-6-3-1-2-11-6-23-12-10-5-22-7-25-5h-24l-1 4h-5l5 16-1 3h-1l1 7 3 7-1 3-6-13-5-16v-7l2-4 7-2v-7l-3-13-1-4v-8l3-10 8-7z" fill="#FD757E"/>
<path transform="translate(278,330)" d="m0 0h16l26 2 31 7 20 6 2 2 4 3 34 12 33 14 23 12 14 10 1 2-8-2-19-7-19-8-16-6-22-8-26-8-19-5-28-5h-6l24 5 38 13 28 11 25 11 15 8 11 6 10 7-2 1-11-5-14-4-24-9-33-11-21-6-15-3-28-6-26-5-10-1 43 10 32 9 25 9 18 7 22 10 13 7 16 10 12 8 7 5-2 1-36-12-50-16-48-15-41-12-22-7-24-8-16-7-5-3-6-4-3-4 2-4 14-8 5-1v-2l25-5z" fill="#FD767F"/>
<path transform="translate(831,374)" d="m0 0 7 1 4 3 6-2 6 1v6l5-5 8-1 6 3 1 5-3 5 9-6 5-1 5 2v4l-2 4 5-4 3-1h8l5 5-2 8 5-2h7l5 5 1 5-2 3h-2v2h10l3 2 1 4-3 5 4-1 5 4v6l-5 4-1 2h6l3 2-1 7-6 5 7 2 2 4-1 5-4 3 4 3-2 6-3 2h-3v14l-6 7-5 3-3 5-2 2-9-1v11l-6 7-4 3-6-1-3-1v8l-4 5h-7l-3-2-3-9 1 6v10l-2 3-17 1-5 6-5 2-9-1-7-3 1 4-5 5-13 1h-4l-5 6h-7l-4-3v-3h-2l-2 6-4 3h-7l-5-4v-4l-7 6h-7l-1-1-1-7-1-1-4 8-6 2-3-2-1-3-5 6h-5l-1-1 1-7 1-2-6 2-3-2-2-8-2 10-7 3-5-1-1-4 4-5-10 3-8-1v-4l6-2h-9l-7-5 2-5 3-2v6h2l1-9 8-2 3 4 2 4 3-1h10l4 5 1 4 5-3 6 1 5 1h14l5 3 4-1 5-3 7 1 5 2 3-3 9-1 9 3h3l2-5 6-3 17-3 4-2 9-1 11-4 12-3 2-6 11-4 6-10 5-2 11-1 5-5 4-5 5-5 2-6 4-4 4-8 5-6-1-2v-5l-3-2-10-2-1-5 4-4 4-1v-10h-2l1 4-5 5h-7l-2-2 1-6 11-8 3-5v-5l-10-2-2-2-1-7-10-2-3-7h-2l3 2-1 4-3 2h-8l-2-5 1-2h-6l-1-3-11 1-4-2v-2l3-3-12 1-9-2h-12l-8-1-1 2 5 2-2 4-6 1-1-4 2-5 1-6-3 1-3 6-11-3-3-2-1 5-6 3 7 4-2 4-7 1-2-1v-6l-4-1v5l-3 2-5-1-3-6-2-1-9 6h-2l-1 3-2-1v-6h-2l-1 4-11 7-8 1-1-2v-11l3-6 5-4 5-1 6 5 4-6 5-3 5 1 5 3 2-4 7-3 4 3v2l7-5h6l2 3 4-2 5-4 7-1 5 3z" fill="#FF8745"/>
<path transform="translate(1310,548)" d="m0 0h12l8 2 14 8 17 12 8 6 11 9v2l3 1 10 14 2 7 2 3-1 5-5 6-17 8-19 6-24 4-17 2h-11l-7-11-15-15-7-8-11-10-14-11-13-9-14-9v-3h67l18-1 9-2-1-6-6-8z" fill="#D01E43"/>
<path transform="translate(1272,377)" d="m0 0h37l3 1 16 1 27 7 22 9 21 11 9 6 10 8 8 9 3 6v8l-5 8-8 7-18 8-16 4-7 2 8 7 11 11 7 10 3 6 1 8v3l-3 8-8 8-7 3h-5l-5 1-5-2 1-3 15-6 2-3 7-3 1-1-1-9-6-9v-2l-4-2-6-8-7-5v-2l-5-2v-2l-4-1-2-1v-2l-5-1-19-10-10-4-13-5-28-7-41-6-34-2h-18l-31 2-29 4-35 8-36 12-24 10-29 14-18 10-23 14h-2v-5l15-11 15-9 16-9 14-7 5-2 15-7 23-9 30-10 24-6 21-4 27-3 16-1h42l26 2 31 5 28 7 23 8 17 8 9 6 7-1 21-6 19-8 7-6 1-6-3-5v-4l-4-2-13-10-11-6-15-8-21-8-19-5-14-3-16-1h-33l-27 2-35 6-27 6-18 5-29 9-14 5-10 4-21 8-36 16-36 18-18 10-25 15-7 3v-6l5-3 10-7h3v-2l5-1v-2l6-3 10-6 5-1v-2l44-22 7-3 37-17 13-5 20-8 31-10 26-7 35-7 25-3z" fill="#B71031"/>
<path transform="translate(1118,158)" d="m0 0h9l10 2 8 4 4 5 2 5v18l-2 3-10 4-12 5-15 5-5 1 3-5 10-8 3-4-35 12-16 8-14 8-18 13-13 10-10 9-5 4-5 6-18 18-11 9-16 17v-3l8-10 12-16 8-8 14-16 20-20 13-10 10-8 22-15 6-4-17 10-15 10-13 9-17 14-7 7-8 7-6 6h-2l-2 4-13 14-15 20-12 18-12 19-13 24-15 24-1 2h-6l1-5 19-39 13-23 10-17 12-19 8-12 14-22 11-16 8-10 5-5 8-4 10-9 17-13 14-10 23-12 21-7z" fill="#FD757E"/>
<path transform="translate(861,71)" d="m0 0h6l11 8 7 10 5 11 4 14-1 5-1 3h-2l-2 6-11 21-5 12-10 25-7 20-6 19-4 13-4 14-5 19-2 1 1-13 9-56 8-36 7-30 1-2h-2l-2 10-7 29-4 17-8 42-4 27-5 34-2 15-5 37-2 21-3 5h-3v-16l5-30 4-40 2-24v-53l-1-19-3-32-3-16v-9l5-12 7-15 6-11 10-13 7-6z" fill="#FD757E"/>
<path transform="translate(1236,404)" d="m0 0h49l33 4 26 5 19 5 31 9 2 2-9-1-20-5-21-4-33-4-13-1h-38l-35 2-20 3 61 1 32 3 48 6 38 6 16 2h13l-1-7h2l2 5 2 4-1 6-8 7-14 6-18 6-11 3-5-1-16-9-20-8-23-7-28-6-20-3-26-2h-42l-27 2-27 4-27 6-29 9-21 8-24 10-4 2 4-6 10-7 20-9 26-11 37-13 36-10 35-7 29-4z" fill="#F53B54"/>
<path transform="translate(874,602)" d="m0 0h8l13 4 21 10 13 10 10 9 12 12 12 16 11 18 9 16 10 24 6 19 4 17 2 15v35l-3 15-4 10-6 8-5 3-9-1-17-8-14-10-13-12-10-10-11-14-10-14-1-4h-2l-6-11-6-10-11-24-9-25-7-25-8-28-1-13 2 1 9 23 9 29 8 22 7 15 11 21 12 20 16 22 11 14 24 24 2 1v2l5 2 6 5v2l5 2 3 2h6l-4-7 4 1v-22l-4-37-5-27-5-20-7-20-5-12-8-14-9-13-11-13-8-8-13-10-13-8-23-12-17-6v-2l-2-1z" fill="#F63C55"/>
<path transform="translate(1235,293)" d="m0 0h9l-3 2-22 4-17 4-38 13-24 10-13 6-16 8-18 10-11 7-13 9-5 4-1 2 16-9 13-8 21-11 28-13 36-12 25-6 21-4 19-3 25-2h13l1 2-38 7-33 8-23 7 7-1 31-6 32-4 58-5 7-3-1 3-8 7-7 6-8 5-22-3-16-2h-18l-28 4-28 6-15 4-9 3-25 9-25 11-26 13-22 13-21 14-14 10-14 11-10 8-13 11-17 16-9 8-2-1-2-12 10-8 12-14 20-20 8-7 7-7 11-9 13-11 15-11 14-10 21-13 10-6 16-8 21-10 27-10 24-7 31-7z" fill="#F53C55"/>
<path transform="translate(957,60)" d="m0 0h11l8 5 6 10 2 9 1 1 1 12 1 1 1 21 11-6 15-5 12-1 8 2 7 6 2 5v3h-2l-2-7-2 2-1 3-5-5-3-1h-8l-15 4-13 5-14 8-16 12-14 12-17 17-9 11-10 12-12 17-9 15-12 22-9 20-9 24-8 26-9 37-2 11v6l9-1 2 2-9 1v2l-3 1-3-3-7-1-8 4-4-3h-9l-2 1 1-3 2-1 1-10h1v9l4-2 2-10 2-22 4-29 2-15 7-49 10-54 5-21 4-17 5-18h2l-4 20-9 38-9 52-3 21v5l5-19 4-14 6-18 5-17 6-17 6-16 5-12 4-9 8-16 6-11h2l1-8-5-17-6-11-6-8-10-7v-2l-5-1-3-1-6 3-2-1 6-4 10-2 12 6 5 4 9 15 6 15v4h2l2-4 15-16 9-9 12-9 16-8zm-91 8m89 0-16 8-12 9-13 13-13 17-12 20-8 15-12 28-17 48-10 34-10 42-6 33-4 29v9h4l4-17 6-31 12-48-1 10-11 56-2 12v10l2 4 2-6 7-34 3-12 3-8 4-13 7-21 5-12 7-15 6-12 8-14 5-9 6-16 4-13 3-5 5-13 15-33 4-8-3 9-5 10-8 18-4 12-4 10-6 17 4-2 8-11 3-4v-2h2l7-8 9-10 8-7 5-5 5-4v-2l5-2 1-3 4-1v-2l4-1v-2l4-1v-2l4-2 7-5v-29l-3-14-5-9-6-5z" fill="#BA1937"/>
<path transform="translate(978,576)" d="m0 0h10l27 5 24 6 24 8 42 15 28 9 28 8 44 13 35 12 37 11 22 7h6l1-3-1 7-5 3-10 2-10 1h-21l-20-3-20-5-31-9-28-10-36-16-24-11-26-12-31-14-27-10-15-5-27-6-8-1v-1h11z" fill="#F63C55"/>
<path transform="translate(1123,192)" d="m0 0 2 1-8 8-8 6-1 4-29 16-18 11-12 9-14 11-11 9-7 7-8 7-10 10-7 8-9 10-11 14-15 20-19 29-9 15-7 11-9-4-3-6-5-2 2-1 2-5 11-18 16-29 11-17 8-12 10-14 11-14 13-14 15-15 8-7 9-8 17-13 19-12 16-10 4-1-4 4-12 7-24 18-16 13-18 18-9 10-11 12-10 13-11 14 5-4 12-13 11-9 11-11 4-5 5-4 5-6 8-7 14-11 17-12 16-10 16-8 17-6z" fill="#F63C55"/>
<path transform="translate(228,464)" d="m0 0 31 9 41 7 30 4 2 2-29 8-8 3-22 8-5 1v2l-8 4-4 1-4 4-7 3-9 6-6 1h-35l-11-2-1 4h2v2h3v2l-5-2-6-5-2-3v-15l6-12 1 3-2 5 1 3 4-4 7-8 6-8 11-10 14-10z" fill="#FD767F"/>
<path transform="translate(879,838)" d="m0 0h2l6 49 6 46 5 29 1 3 2-12 2-29 1-22v-49l3 3 6 28 4 27 1 9v33l-4 25-5 16-5 7-6 1-9-6-10-11-7-12-8-24-3-16-2-18v-21l3-24 2-3 1 1 6 42 4 18v-9l-1-10v-25l1-14 3-25z" fill="#F63C55"/>
<path transform="translate(492,748)" d="m0 0h2l-2 4-10 11-7 8-11 12-9 10-9 11-12 14-14 19-4 5 8-6 16-13 19-13 12-9 3 1-2 1-2 4-17 17-5 6-3 3h-2l-2 4-3 3h-2v2l-11 9-10 9-14 10-7 3h-6l-6-4-4-8-1-3v-23l2-13 7-8 21-14 21-13 15-9 26-16z" fill="#F63C55"/>
<path transform="translate(1e3 717)" d="m0 0 4 2 7 7 2 1v2h2l7 8v2h2l13 17 9 14 8 16 5 16 3 14 3 13 10 19 6 12 7 17 7 25 1 5v16l-2 4-9-1-8-7-13-13-8-10-13-20-13-22-11-20-10-20v-4l4 2 3 3v2h2l6 9 12 17 9 12 4 6v2h2l11 15 12 17 2 1-3-7-7-27-10-25-10-21-8-14-7-12-10-15-7-11 1-2 3 3v2h2l7 9 5 7 5 5 13 18 7 10-2-11-10-21-10-18-14-22-13-17-7-8z" fill="#F53B54"/>
<path transform="translate(223,361)" d="m0 0 4 2 9 5 11 7 23 11 23 9 25 9 64 20 36 12 42 15 46 17 45 16 75 25 3 2 1-2-1 4-12-1-24-6-49-16-39-14-35-13-55-19-43-14-49-16-32-10h-8l-14 5-20 9-13 8-9 6-5 3-6 6h-2l-2-5 7-8 8-8 16-10 14-7 13-5 2-1-12-5-19-10-11-8-5-5-3-5z" fill="#B71233"/>
<path transform="translate(831,374)" d="m0 0 7 1 4 3 6-2 6 1v6l5-5 8-1 6 3 1 5-3 5 9-6 5-1 5 2v4l-2 4 5-4 3-1h8l5 5-2 8 5-2h7l5 5 1 5-2 3h-2v2h10l3 2 1 4-3 5 4-1 5 4v6l-5 4-4-1-4-6-4-5v-2h-2v-2l-10-2-2-2-1-7-10-2-3-7h-2l3 2-1 4-3 2h-8l-2-5 1-2h-6l-1-3-11 1-4-2v-2l3-3-12 1-9-2h-12l-8-1-1 2 5 2-2 4-6 1-1-4 2-5 1-6-3 1-3 6-11-3-3-2-1 5-6 3 7 4-2 4-7 1-2-1v-6l-4-1v5l-3 2-5-1-3-6-2-1-9 6h-2l-1 3-2-1v-6h-2l-1 4-11 7-8 1-1-2v-11l3-6 5-4 5-1 6 5 4-6 5-3 5 1 5 3 2-4 7-3 4 3v2l7-5h6l2 3 4-2 5-4 7-1 5 3z" fill="#FF984C"/>
<path transform="translate(417,736)" d="m0 0 1 3-5 6-13 13-8 6-13 10-24 16-22 12-8 2-12 1-4 1v2l3 1-2 1-8-7-2-4-2-7v-13l4-16 5-15h2v7h3l2-6 3 1 4 10v2l4 1h11l24-5 23-8 22-9z" fill="#D02144"/>
<path transform="translate(334,243)" d="m0 0 1 4h8l3-1h20l30 5 23 6 6 3 8 10 7 9 9 10 7 8 8 7 4 5-5-2-28-14-30-11-26-6-20-3h-45l3-2h6l-1-5v-10l3-6 7-6z" fill="#FD757E"/>
<path transform="translate(717,853)" d="m0 0 1 3-6 29-6 21-10 25-9 17-10 14-10 13-9 10-7 8-5 1-8-7-6-10-1-5 4-7 11-18 13-22 12-23 11-23 8-19 2-1-2 11-7 26-12 38-7 19-3 10 11-20 8-16 11-20 11-19 7-14 4-10z" fill="#F63C55"/>
<path transform="translate(1168,684)" d="m0 0 6 2 23 13 24 13 26 16 14 10 10 8 10 9 5 5 9 11 5 10 1 8-3 5-1 1h-14l-20-8-25-12-21-14-10-8-8-7-10-7 4-1 17 7 19 9 19 10 28 12 5 2-5-6-8-7-10-9-20-16-14-11-12-9-11-9-14-11-10-9-9-6z" fill="#F63C55"/>
<path transform="translate(1272,377)" d="m0 0h37l3 1 16 1 12 5 1 5h2v2h-10l-14-3-16-1h-33l-27 2-35 6-27 6-18 5-29 9-14 5-10 4-21 8-36 16-36 18-18 10-25 15-7 3v-6l5-3 10-7h3v-2l5-1v-2l6-3 10-6 5-1v-2l44-22 7-3 37-17 13-5 20-8 31-10 26-7 35-7 25-3z" fill="#B80E31"/>
<path transform="translate(1056,332)" d="m0 0h6l-2 4-3 4-4 2-4 5-5 4-1 2h-3v2h-2l-2 4 1 2-5 4-11 9-7 7-8 7-15 15-9 11-11 13-10 14-4 4-4-11-3-3-4-2 1-6 7-11 8-11 11-13 8-10 9-10 4-2 3-4h2v-2l10-6 7-4 8-5 3-2 18-4z" fill="#F63C55"/>
<path transform="translate(767,60)" d="m0 0h11l6 3 9 9 8 14 9 22 3 9v4h2l3-9 7-14 8-12 7-9 8-7 10-4 5 2 3 1v2l-9 3-10 7-8 10-7 11-7 14-4 10-3 7v9l3 16 3 32 1 19v53l-4 46-4 31-4 24-1 10-2 2h2v2l-7 6-3-1-2-5 4-1 2-8 8-83 2-29 1-23v-25l-2-36-4-30-6-26-7-19-9-17-7-9 1-4-4-1-13-1v-2l-2-2z" fill="#BA1636"/>
<path transform="translate(874,529)" d="m0 0 2 3 1 4v10l-2 3-17 1-5 6-5 2-9-1-7-3 1 4-5 5-13 1h-4l-5 6h-7l-4-3v-3h-2l-2 6-4 3h-7l-5-4v-4l-7 6h-7l-1-1-1-7-1-1-4 8-6 2-3-2-1-3-5 6h-5l-1-1 1-7 1-2-6 2-3-2-2-8-2 10-7 3-5-1-1-4 4-5-10 3-8-1v-4l6-2h-9l-7-5 2-5 3-2v6h2l1-9 8-2 3 4 2 4 3-1h10l4 5 1 4 5-3 6 1 5 1h14l5 3 4-1 5-3 7 1 5 2 3-3 9-1 9 3h18l18-5 14-7 15-5 4-4 4-1z" fill="#FF8845"/>
<path transform="translate(951,62)" d="m0 0 4 1-3 1 4 2h11l7 2 1 10-4-5-5-4h-11l-16 8-12 9-12 12-13 17-12 20-8 15-12 28-17 48-10 34-10 42-6 33-5 38 4 1-14 1-4 2 1-3 2-1 1-10h1v9l4-2 2-10 2-22 4-29 2-15 7-49 10-54 5-21 4-17 5-18h2l-4 20-9 38-9 52-3 21v5l5-19 4-14 6-18 5-17 6-17 6-16 5-12 4-9 8-16 6-11h2l1-8-5-17-6-11-6-8-10-7v-2l-5-1-3-1-6 3-2-1 6-4 10-2 12 6 5 4 9 15 6 15v4h2l2-4 15-16 9-9 12-9z" fill="#BC1637"/>
<path transform="translate(1246,497)" d="m0 0h8l45 10 28 8 22 6 28 6h3l-1-3 2-2 7 3-3 3-10 4h-3v3l8 2 1-2 3 2-15 6-21 5h-2v-2l5-1-4-4h-43l-5-3-7-8-14-11-18-13-14-8z" fill="#F63C55"/>
<path transform="translate(738,89)" d="m0 0 1 3-6 14h-2l-1 8h-2l-1 8-4 12-4 16-2 16-1 33-2 4-13-29-9-20-5-10 1-12 4-20 2-4 2-1 2-5h2l1-4h5v-2h6l1-3 10 5 8 5z" fill="#FD757E"/>
<path transform="translate(416,207)" d="m0 0h24l25 5 22 7 16 8 23 12 6 4v2l6 2 1 3 4 1v2l4 1v2l4 1 5 4v2l5 2 7 6 34 34 5 6 5 5 7 8 12 15v2h2l1 4 3 1v3h2l1 4h2l3 5v2h2v3h2v3h2v3h2l3 5v3h2l3 6 9 16 6 12v2h2l-4-18-3-10v-6l1-2h2l20 35 4 1-1 3h-3v2h-12l-3 2-4 10-3 3-7 1v-4l6-1-1-11-6-15-9-16-20-30-12-16-8-10-9-11-12-13-7-8-16-16-8-7-13-11-19-14-2-1v-2l-5-2-7-5-11-6-25-12-13-5-15-4-17-2-22-1z" fill="#B80E31"/>
<path transform="translate(1252,572)" d="m0 0 14 1 33 4 29 5 35 10 21 9 8 5 3 6-1 5h-17l-91-4-9-1-10-10 2-2 23 1 53 5 21 2-28-10-22-7-46-13-16-4z" fill="#F63C55"/>
<path transform="translate(1166,189)" d="m0 0 7 1v1l-10 2-4 1v3l-4 3-24 8-20 9-17 9-23 14-17 12-13 10-13 11-10 9-20 20-9 11-13 16-16 23-14 22-9 16-7 15-2 3v-2l-5-2-1-3-9-3 1-2 8 1 13-22 24-36 13-17 8-10 12-14 15-16 8-8 16-14 14-11 12-9 15-10 29-16 16-8 13-4 9-4 10-4 3-3 9 1v-2z" fill="#B50D2F"/>
<path transform="translate(904,588)" d="m0 0h48l17 3 17 5 16 6 17 9 11 8 13 11 11 9 8 9-1 2-9-9-11-9-13-9-18-10-17-8-20-6-18-4-16-2 17 8 11 6 27 18 20 16 13 11 11 10 8 7 14 14 4 5-1 2-14-11-12-10-11-8-11-10-11-9-14-12-20-15-18-10-15-6-7-2-16-2-8-2v2l6 1 14 7 16 10 16 12 11 9 15 14 8 7 15 15h-3l-2-1v-2l-4-2-11-9-10-8-13-11-11-9-7-6v-2l-5-2-14-9-17-8-15-5-9-1v-1l14-4z" fill="#F53B54"/>
<path transform="translate(713,614)" d="m0 0h10l24 4-1 4-14 6-12 5-14 8-21 13-14 10-10 8-14 11-11 9-14 12-12 11-17 16-7 8-12 12-9 11-10 13-5 7-1-2 10-14 14-18 9-11 9-10 7-8 29-29 8-7 16-13 14-10 10-8 18-12 18-10 13-6 15-4-17 3-29 9-20 8-10 6-22 14-11 8-10 8-11 9-15 14-10 9-6 5 2-4 11-12 7-8 15-15 14-11 13-10 17-11 16-9 18-8 18-6 9-2-5-2z" fill="#F63C55"/>
<path transform="translate(1024,545)" d="m0 0h13l32 2 29 5 22 5 21 6 25 9 24 11 20 11 22 14 5 4 17 13 11 8 14 11 2 4-3-1v-2l-4-2-20-14-9-6-9-4v-2l-5-2-22-12-25-13-15-7-25-10-26-8-24-5-32-5-29-2h-17l-22 1-27 5-3 1h-8l2-2 11-4h3l-1-3 4 1 27-5z" fill="#F63C55"/>
<path transform="translate(365,657)" d="m0 0h2l-2 5-13 15-11 16-8 13-5 5-14 8-21 10-11 4h-6l-1-7 2-10 4-6 11-9 28-18 15-10 16-9z" fill="#F63C55"/>
<path transform="translate(374,645)" d="m0 0h7l-6 7-8 9-1-2 1-2-16 8-11 6-11 7-15 10-13 8-12 8-9 8-3 7-1 14 12-2-5 4-7 3 9-1 6-1-2 2-9 3h-6l-4-4-2-4v-16l3-8 5-11 3 1-3 12 2-2 8-16 8-12 10-13 8-10 7-3 51-9z" fill="#D02144"/>
<path transform="translate(679,599)" d="m0 0 7 1 14 6 11 4-3 2-30 4-20 6-18 8-21 12-16 12-11 8-8 7-5 5h-2l-1 3-2-2 3-4h-2v-2l-4-3v-3l-2-1 1-1-3-2-1-4h3v-2l5 1v-3l8-6 13-6 5-4 17-9 29-13 25-10z" fill="#F53B54"/>
<path transform="translate(228,464)" d="m0 0 31 9 41 7 30 4 2 2-29 8-4 1v-1h-19l-28 3-15 2h-6l3-2 34-9 4-3-21-8-19-6h-6l-14 10-10 9h-2v2h-2l-2 4-7 9-1 2v6l6 4 14 1 22-1 20-2 5-1-3 3-7 3-9 6-6 1h-35l-11-2-1 4h2v2h3v2l-5-2-6-5-2-3v-15l6-12 1 3-2 5 1 3 4-4 7-8 6-8 11-10 14-10z" fill="#F53B54"/>
<path transform="translate(1149,456)" d="m0 0h30l31 2 26 3 29 5 25 6 26 8 13 5 12 5 14 6 10 4 9 5-3 1-14-6-10-3-10-4-28-9-28-8-23-5-36-6-25-2h-57l-23 2-19 3-22 5-27 9-21 9-13 6-12 6-3 2 1 2-12 6-15 8h-2v2l-9 3 1-3 4-1 1-3-2-1 1-5h3l4-1 21-12 21-10 20-8 19-7 31-10 27-6 15-2z" fill="#F53C55"/>
<path transform="translate(609,800)" d="m0 0 2 1-8 12-12 16-10 12-8 11-9 12-6 12-9 14v17l3 15 4 9v2h-2l-3-3-1 6h2l2 4 2-1 3 3v2h2v4l3 1-5-1-9-9-5-10-5-19-1-17 1-25 6 1 1-8 4-9 7-19 5-5 29-17z" fill="#F63C55"/>
<path transform="translate(820,614)" d="m0 0h13l2 1-2 4-4 57-4 37-4 29-2 1 1-20 4-68 3-23 3-16-8 1-8 14-9 25-8 30-7 34-4 29-3 37-1 49 1 31h-2l-3-26-1-14v-57l2-26 5-33 6-27 9-30 8-18 10-16 3-4z" fill="#F53B54"/>
<path transform="translate(503,561)" d="m0 0h23l42 3h24v1l-17 1-25 4-9 1-2-1-32 2-45 5-41 7-41 9-31 8-23 7-4-1 21-8 14-6 34-11 32-8 23-5 36-6z" fill="#F63C55"/>
<path transform="translate(1169,471)" d="m0 0h22l22 1 33 4 30 6 25 7 25 10 27 11 23 8 2 2-8-1-24-6-34-11-26-6-40-8-21-3h-11l-17-5-19-3-10-1-35-1v-1l13-2z" fill="#F53B54"/>
<path transform="translate(1262,413)" d="m0 0h38l30 3 21 3 20 4 20 5 6-1 13 4 4-1 2 7-1 1h-13l-78-11-31-4-25-2-61-1-2-2 22-3z" fill="#FD767F"/>
<path transform="translate(992,561)" d="m0 0h27l22 3 33 8 30 10 15 6 16 7 23 13 17 10 7 5-2 1-17-9-19-8-11-5-17-7-33-11-21-6-22-4-25-3h-33l-24 2h-14l2-2 19-6 16-3z" fill="#F63C55"/>
<path transform="translate(632,87)" d="m0 0 10 2 6 3 10 8 7 7 9 13 6 9v2h2l1-12 4-11 5-8 7-7 8-1 5 1v3h-6v2l-5 1-1 3-2 1-2 5h-2l-4 18-2 12v6l13 27 8 19-1 6-2-4-3 1-9-21-13-27-13-22-13-16-9-8-8-4-8 1-5 5-4 9-2 10v29l1 16h-4l-3-8-9-5-5-4-7-5 2-1 10 7 7 5 1-31 2-12 4-13 4-6 6-4z" fill="#D13950"/>
<path transform="translate(537,205)" d="m0 0 4 1 7 7 1 2 6 1 5 8 9 10 12 12 7 8 9 9 9 11 12 14 11 14 16 21 11 16 16 24 17 28 9 16v2l5-2-2 5-2 7-5-1v-2l3-2-4-2-8-14-9-16-2-5h-2l-12-19-14-22-12-17-1-3-3-1-1-4-4-2-7-9-9-11-11-14-12-13-15-16-11-12-10-9-7-10-2-2-2-4z" fill="#B60E30"/>
<path transform="translate(846,611)" d="m0 0 11 3 12 6 10 8 18 18 12 16 13 20 14 25 11 23 12 28 15 40 5 14-1 4-9-21-18-38-16-33-11-20-12-20-14-21-14-17-12-13-12-11-11-7-3-2z" fill="#F63C55"/>
<path transform="translate(1114,298)" d="m0 0h6l-1 3-11 6-8 7-6 2-12 8h-2l-1 6-7 4-3 1v2h-3v2l-5 3h-2v2h-3v2l-5 2v2l-7 4-1 2-4 2-1 2-3-1 3-4h2v-2h3l2-4 6-5 3-4 4-2 3-5h-5l-11 7-18 4-5 4-6 3-15 9h-2v2l-5 5-2 1 2-5 16-16 6-7 16-14 5-1 6-5 7-3 6-4 4 2-3 4 10-3h9l15-7 9-5 12-5z" fill="#FD757E"/>
<path transform="translate(427,155)" d="m0 0h23l15 4 15 6 13 7 10 6 10 7 16 12 9 7 1 4 3 3 2 4 5 7-1 2-14-13-17-13-17-12-18-10-15-7-15-5-9-2h-14l-8 4-3 4v17l6 18 1 2-9 1-1 4h-5l5 16-1 3h-1l1 7 3 7-1 3-6-13-5-16v-7l2-4 7-2v-7l-3-13-1-4v-8l3-10 8-7z" fill="#D73C54"/>
<path transform="translate(1068,144)" d="m0 0h10l6 3 4 3 2 4v4l-14 5-15 7-10 6h-3v2l-9 5-3 1v2l-5 3h-2l-1 3-4 1-1 3-4 1v2l-4 1-1 3-7 5 2-5 10-15 9-16 9-10 9-7 5-1v-2l6-2v-2z" fill="#FD747D"/>
<path transform="translate(651,578)" d="m0 0 10 4-3 1h-28l-33 4-39 9-20 5-27 9-23 10-21 10-24 14-12 8-16 11-9 7-2-1 10-9 20-15 21-14 21-12 24-12 28-11 22-7 28-6 22-3 12-1z" fill="#F63C55"/>
<path transform="translate(682,417)" d="m0 0h10l7 3 5 6-6 8-2 1-9 1-4 13-5 3h-5l1 2 1 13-3 2 1 8-1 2-15-3-6-5-2-7 4-4h3l-2-5 1-5 2-2h7l7 3-7-6-2-4v-5l4-3 8-1 3-9 3-5z" fill="#FE8546"/>
<path transform="translate(883,383)" d="m0 0 7 2v4l-2 4 5-4 3-1h8l5 5-2 8 5-2h7l5 5 1 5-2 3h-2v2h10l3 2 1 4-3 5 4-1 5 4v6l-5 4-4-1-4-6-4-5v-2h-2v-2l-10-2-2-2-1-7-10-2-3-7h-2l3 2-1 4-3 2h-8l-2-5 1-2h-6l-1-3-11 1-4-2v-2l3-3 1-2 3-1 2-2 4-2z" fill="#FE8945"/>
<path transform="translate(1115,244)" d="m0 0h7l-3 3-27 13-10 6-18 13-19 13-13 10-4 2v2l-8 7-7 7-8 7-18 18-1 2h-2l-2 4-13 14-9 11-13 16-6 9-6 8-2 2-3-3 3-6 9-12 12-15 10-14 14-16 23-23 8-7 14-14 11-9 28-19 13-9 9-4 16-9 12-6z" fill="#F63C55"/>
<path transform="translate(699,537)" d="m0 0 4 2 2 6 4-1h10l4 5 1 4 5-3 6 1 5 1h14l10 5v2h12v1l-14 1v2l-4-1-4 8-6 2-3-2-1-3-5 6h-5l-1-1 1-7 1-2-6 2-3-2-2-8-2 10-7 3-5-1-1-4 4-5-10 3-8-1v-4l6-2h-9l-7-5 2-5 3-2v6h2l1-9z" fill="#FF8845"/>
<path transform="translate(1330,380)" d="m0 0 10 2 17 5 20 8 21 11 9 6 10 8 8 9 3 6v8l-5 8-8 7-18 8-8 2v-2l4-2 3-1-1-2v-1l-3-1 19-8 7-6 1-6-3-5v-4l-4-2-13-10-11-6-15-8-21-8-14-4v-1h5v-2h-2v-3l-2-1-3-2-6-2z" fill="#D1324E"/>
<path transform="translate(665,584)" d="m0 0 4 2-8 3-15 4-41 9-19 6-20 7-34 15-28 14-22 12-25 14-9 5-2-1 18-11 19-12 10-6 14-9 28-14 36-16 22-9 18-4 18-3 27-3 8-2z" fill="#F53B54"/>
<path transform="translate(481,547)" d="m0 0h18l34 3 23 3 24 5 2 2h-10l-25-3-20-1h-79l-31 3-41 7-3-1 9-3 33-8 24-4 24-2z" fill="#F63C55"/>
<path transform="translate(382,514)" d="m0 0h60l45 3 34 5 25 6 14 5 10 5 25 9 25 11 1 2-5-1-16-7-13-4-17-7-27-8-33-7-20-3-42-4-29-1h-22l-33 1-24 2-14 2h-7v-1l30-5z" fill="#F53B54"/>
<path transform="translate(750,621)" d="m0 0 4 1-4 5-11 7-16 12-13 11-8 7-15 14-8 7-15 14-8 7-16 15-8 7-11 10-8 7-13 12-3 3-2-1 27-27 7-8 14-14 8-7 15-15 8-7 9-9 8-7 10-10 11-9 9-7 10-8 8-5z" fill="#F53B54"/>
<path transform="translate(784,379)" d="m0 0 4 3v2l7-5h6l1 1v6l-5 2h-8l-2 9v5l-3 2-5-1-3-6-2-1-9 6h-2l-1 3-2-1v-6h-2l-1 4-11 7-8 1-1-2v-11l3-6 5-4 5-1 6 5 4-6 5-3 5 1 5 3 2-4z" fill="#FE974D"/>
<path transform="translate(713,614)" d="m0 0h10l18 3 1 2-24 5-33 11-14 6-11 7-19 12-11 8-10 8-11 9-15 14-10 9-6 5 2-4 11-12 7-8 15-15 14-11 13-10 17-11 16-9 18-8 18-6 9-2-5-2z" fill="#F53C55"/>
<path transform="translate(923,424)" d="m0 0 4 5 5 6 3 3v2h6l3 2-1 7-6 5 7 2 2 4-1 5-7 4-9 1-1-2v-5l-3-2-10-2-1-5 4-4 4-1v-10h-2l1 4-5 5h-7l-2-2 1-6 11-8z" fill="#FF8845"/>
<path transform="translate(792,618)" d="m0 0h3l-2 4-10 10-9 11-5 7v-3l-3 2h-2v3h-2l-2 4-4 4h-2v3h-2l-2 4-8 6h-2l-1 4-3 4-4 1-2-2 2-5 13-17 11-14 11-12 12-12 2-1z" fill="#F53B54"/>
<path transform="translate(702,92)" d="m0 0 10 1v3h-6v2l-5 1-1 3-2 1-2 5h-2l-4 18-2 12v6l13 27 8 19-1 6-2-4-3 1-9-21-13-27-3-9-3-10 5 3v2h2l1-12 4-11 5-8 7-7z" fill="#BC1234"/>
<path transform="translate(951,231)" d="m0 0h2l-2 5-8 11-14 22-13 24-8 16-11 25-10 27-6 20h7l3 1 2 3 3 1v3l-6 3-4 3 2-5 2-4-7-2-12 6 2-5-1-5-5-2-8 1-6 5 1-7h-10l3-2h6l1-2 13 1 10 5 1-8 9-27 5-12 15-30 15-27 12-19 13-19z" fill="#B8102F"/>
<path transform="translate(1181,186)" d="m0 0h20l11 3 6 3 8 7 4 6v17l-4 9h16l5 1v1h-24l1-5v-17l-4-6-8-6-9-3-5-1h-17l-22 4-3-1 3-1v-3l9-3-1-3z" fill="#B92538"/>
<path transform="translate(889,510)" d="m0 0h10l-2 6-10 4-4 4-2 4v7l1 5-3-1-3-9-2-1v2l-3 2-5 4-20 7-12 6-15 4-15-1 2-5 6-3 17-3 4-2 9-1 11-4 12-3 2-6 11-4 6-10z" fill="#FF974C"/>
<path transform="translate(723,395)" d="m0 0 6 1 5 6 2 4-1 6-5 6 5 4-1 4h-9l-2-5 4-3-4-3-4 2-2 2 4 3 1 4-5 3h-10l2-5 2-2h-8l-4-4 1-6 4-4 2-1h7l4 2 1-1 2-10z" fill="#FF974C"/>
<path transform="translate(874,529)" d="m0 0 2 3 1 4v10l-2 3-17 1-5 6-5 2-9-1-7-3 1 4-5 5-13 1h-6v-3h3v-2l5-3 3-1 2 3h8v-8l11-4 10-5 15-5 4-4 4-1z" fill="#FF8745"/>
<path transform="translate(845,614)" d="m0 0 4 4 9 13 7 11 8 16 15 28 8 14 6 11 6 9 21 35 13 21 10 15 13 19 5 7-2 1-10-13-2-5h-2l-4-6-1-4h-2l-16-24-6-10-10-15-10-18-9-14-6-11-9-17-8-16-9-17-5-8-5-10-6-8-3-5z" fill="#F63C55"/>
<path transform="translate(1092,147)" d="m0 0 5 5h8l14-2h8l10 2 10 4 10 10 3 12v6l-1 5 2 1v2l-6 1v-2l-4 1-1-18-4-8-6-4-6-2-7-1h-9l-11 2h-7l2-5-6-1-4-6z" fill="#BF3144"/>
<path transform="translate(553,130)" d="m0 0h15v2l-13 1v1l12 2v1l-12 1-5 5-2 6v37l3 18 3 9v3h-5l-4-6 1-3-4-16-2-12v-32l4-9 4-5z" fill="#D1354A"/>
<path transform="translate(820,614)" d="m0 0h13l2 1-2 4-4 57-4 37-4 29-2 1 1-20 4-68 3-23 3-16-8 1-7 12h-2l1-5 6-9z" fill="#F43B54"/>
<path transform="translate(794,635)" d="m0 0v3l-8 14-7 15-9 27-6 25-4 25-2 20-2 43h-1l-1-7v-21l2-42 4-26 7-27 6-16 7-14 9-12z" fill="#F63C55"/>
<path transform="translate(656,479)" d="m0 0h9l6 3 2 3 2 8 3 8 5 5 2 3-1 4h-14l-7-4-2-3v-10l-5-3-2-2 1-11z" fill="#FE974D"/>
<path transform="translate(427,155)" d="m0 0 4 1-3 2 2 1 12 1v1l-13 1-8 4-3 4v17l6 18 1 2-9 1-1 4h-5l5 16-1 3h-1l1 7 3 7-1 3-6-13-5-16v-7l2-4 7-2v-7l-3-13-1-4v-8l3-10 8-7z" fill="#F55566"/>
<path transform="translate(550,853)" d="m0 0 1 4-3 18-1 32h2l3 15 4 9v2h-2l-3-3-1 6h2l2 4 2-1 3 3v2h2v4l3 1-5-1-9-9-5-10-5-19-1-17 1-25 6 1 1-8z" fill="#D02B46"/>
<path transform="translate(657,448)" d="m0 0h7l9 5 1 1 1 13-3 2 1 8-1 2-15-3-6-5-2-7 4-4h3l-2-5 1-5z" fill="#FE974C"/>
<path transform="translate(1398,414)" d="m0 0 4 3h6v-3l4 2 8 7 6 8 2 4v8l-5 8-8 7-18 8-8 2v-2l4-2 3-1-1-2v-1l-3-1 19-8 7-6 1-6-3-5v-4l-4-2-14-11z" fill="#BF203D"/>
<path transform="translate(344,240)" d="m0 0h30l19 3 15 4 10 2v1l-5 1 6 5-3 1-25-6-25-4h-20l-3 1h-8l-2-2 2-3z" fill="#D0374B"/>
<path transform="translate(654,476)" d="m0 0h1v15l3 3 4 2v10l4 4 4 2h11l1 2-3 1h-9l-6-3-4-5-3-10-5-5-4 1-1 1v5l1 3 5 1-2 3v4l6 3v2h3v2l-7-1-2-1 1 12-1-2h-2l-2-10-8-5-2-2v-19h2l1 6v10l5 4-3-10 1-8 1-5v-3l2-1 1 2 5-2z" fill="#B83410"/>
<path transform="translate(568,419)" d="m0 0 4 2 15 13 31 31 9 11 4 4h3l2 4-1 4-4 1-7-7-1-5-7-7-8-7-10-10-7-8-10-9-1-3-3-1v-2h-2l-7-8z" fill="#F63C55"/>
<path transform="translate(260,323)" d="m0 0 5 1-4 2v3h37l5 1v1h-25l-18 2-12 3h-6v2l-12 3-11 8h-2l-1-4 7-8 12-7 12-4 12-2z" fill="#C02742"/>
<path transform="translate(848,275)" d="m0 0h1v7l-12 61-2 12v10l1 3 1-5h1v6l-2 4h-10l2-12 7-36 12-48z" fill="#DD2849"/>
<path transform="translate(735,192)" d="m0 0h1l3 38 7 36 9 48-1 3-3-7-8-27-4-21-3-24-1-15z" fill="#D01E43"/>
<path transform="translate(928,582)" d="m0 0h16l12 2v2h9l15 3 14 4-4 1-10 1-20-5-8-1h-47v-2l5-3z" fill="#FE6364"/>
<path transform="translate(672,377)" d="m0 0h2l20 35 4 1-1 3h-15l-5 2-1-5h2l-4-18-3-10v-6z" fill="#D22044"/>
<path transform="translate(377,867)" d="m0 0 3 1 3 3 4 2 18 1h11l16-4 2 2 6-1-2 2-19 6-8 2-17 2-12-3-4-3-3-9z" fill="#BE2640"/>
<path transform="translate(1e3 404)" d="m0 0 1 2-1 3 3 1-3 5-20 20-8 10-9 8-3-1 1-6 3-1v-2l5-5 9-10 7-8 9-10z" fill="#FD717B"/>
<path transform="translate(1140,462)" d="m0 0h57l25 2 2 2-14 2-24-1h-17l-17-1h-18l-8-1v-1h14z" fill="#FE6668"/>
<path transform="translate(702,92)" d="m0 0 10 1v3h-6v2l-5 1-1 3-2 1-2 5h-2l-4 18-3 18h-1v-9h-5l2-16 4-11 5-8 7-7z" fill="#D83C56"/>
<path transform="translate(874,529)" d="m0 0 2 3 1 4v10l-2 3-17 1-5 6-6-1-1-4 5-2 1-3h2l1-4 7-1v-3l8-5v-2h4z" fill="#FF6361"/>
<path transform="translate(905,515)" d="m0 0 2 3-2 9-3 3-6-1-3-1v8l-4 5h-7l-2-6v-7l5-4 9-3 4-3 4-1z" fill="#FE6262"/>
<path transform="translate(1213,190)" d="m0 0 5 2 8 7 4 6v17l-4 9h16l5 1v1h-24l1-5v-17l-4-6-8-6-5-2 2-2v-3l2-1 2 1z" fill="#BD2D3D"/>
<path transform="translate(662,520)" d="m0 0 7 2 8 5 9 2 2 5-1 6-4 3-7-1-3-5v-4l-8-1-5-5 1-6z" fill="#FF8845"/>
<path transform="translate(938,468)" d="m0 0 7 3-2 6-3 2h-3v10h-3v2l-6-1-3-2-3-3v-6l7-8z" fill="#FF6262"/>
<path transform="translate(1022,107)" d="m0 0 10 1 6 4 3 3 2 5v3h-2l-2-7-2 2-1 3-5-5-3-1h-8l-15 4-6 1-1-3 2-1-3-2 17-6z" fill="#D33D55"/>
<path transform="translate(889,510)" d="m0 0h10l-2 6-10 4-4 4-2 4v7l1 5-3-1-3-9-2-1v2l-3 2-3 3-2-1 1-2-4-1h2l2-6 11-4 6-10z" fill="#FF974C"/>
<path transform="translate(920,415)" d="m0 0h13l2 5-3 5 4-1 5 4v6l-5 4-4-1-4-6-4-5v-2h-2v-2h-2z" fill="#FE787B"/>
<path transform="translate(1330,380)" d="m0 0 10 2 17 5 13 5 2 6-4 1-4-3h-4l1 2-9-2-14-4v-1h5v-2h-2v-3l-2-1-3-2-6-2z" fill="#D1344E"/>
<path transform="translate(1243,312)" d="m0 0h9l-3 2-5 2 3 2-14 3-24 4-18 4h-5l1-2 27-8z" fill="#FE6C70"/>
<path transform="translate(848,592)" d="m0 0h6l1 3-7 8-9 6-8 2h-7l4-4 4-1-2-4 16-9z" fill="#FF8845"/>
<path transform="translate(629,786)" d="m0 0v3l-5 9-8 12-12 15-1 2h-2v2h-2v3l-4 4-2-1 4-5 4-8 7-10 6-11 2-3v-3z" fill="#F63C55"/>
<path transform="translate(1369,533)" d="m0 0 3 1 4 2 4 1 1-2 3 2-15 6-21 5h-2v-2l5-1-4-4-5-1v-1l20-4z" fill="#D43450"/>
<path transform="translate(930,124)" d="m0 0 1 3-8 17-8 18-4 12-4 10-6 16v3l-1 3h-2l-2 4-3 2 3-11 3-9 4-10 4-9 17-38z" fill="#D92547"/>
<path transform="translate(302,273)" d="m0 0h17l1 3 3 2-16 2-13 2-4 1 2 5 4 5-5-2h-3l-3-3v-7l2-3 8-3z" fill="#CE2E44"/>
<path transform="translate(692,594)" d="m0 0 24 4 3 3 8 3 5 6-10-1-24-7-6-6z" fill="#FF974C"/>
<path transform="translate(1262,413)" d="m0 0 37 1v1l-17 1-3 1h-7l-5 1h-7l-4 1h-31l-3-3 5-1z" fill="#FE6364"/>
<path transform="translate(370,828)" d="m0 0h2l1 17 2 1v-5l2-1 1 18 4 10 3 4-5-2-3-3-1 3 2 6-4-4-4-12z" fill="#CF344B"/>
<path transform="translate(858,135)" d="m0 0h2l-4 20-9 38-7 38-3 1 2-14 6-33 4-15 4-17z" fill="#B80E31"/>
<path transform="translate(958,509)" d="m0 0 1 3-8 16-7 10-1-2 1-2-5 2 1-3 4-3 1-3-10 5h-6l2-5 7-11 5-2-1 6-8 9 5-2 8-6 7-3 3-7z" fill="#FE994F"/>
<path transform="translate(1e3 215)" d="m0 0 3 1-10 12-12 16-7 10-9 13-2 1 2-7 10-16 12-17 8-10z" fill="#F53D55"/>
<path transform="translate(679,514)" d="m0 0h8l5 3v5l-4 4h-11l-6-4-4-4 7-3z" fill="#FE7B78"/>
<path transform="translate(649,491)" d="m0 0 4 1 5 5 3 10 5 7-5 1-10-4-1-5 2-3-4-1-2-3v-5z" fill="#FF8845"/>
<path transform="translate(825,551)" d="m0 0h5l1 5-3 3h-7l-1-4-5 4h-3v2h-3l1 5h-4l-3 1-2-2 1-5-1-7h18z" fill="#FF6361"/>
<path transform="translate(905,402)" d="m0 0 2 1-1 3 6 1 11-1 1-2 1 5-2 3h-2v2h10v1h-11v6l-8-1-2-2-1-7-10-2 1-3z" fill="#FE974C"/>
<path transform="translate(181,496)" d="m0 0 1 3-2 5 1 3 7-7-2 5-3 6v8l5 6h-4l-1 4h2v2h3v2l-5-2-6-5-2-3v-15z" fill="#D64259"/>
<path transform="translate(733,603)" d="m0 0h7l7 4h8l5-2 5 1 3 3-1 3-6 2h-11l-3-1 1-4-5 2-7-1-3-3z" fill="#FF8845"/>
<path transform="translate(923,424)" d="m0 0 4 5 2 3-5 7h-4l1 4-5 5h-7l-2-2 1-6 11-8z" fill="#FF964B"/>
<path transform="translate(1254,253)" d="m0 0 5 2-4 4-11 6-11 2h-7v-3h-2l1-3 4 1 3-3 7-3h6l-1 3z" fill="#FD747E"/>
<path transform="translate(826,580)" d="m0 0h5l-5 5-6 5-5 6-9 4-9-2v-3l18-8z" fill="#FF8845"/>
<path transform="translate(788,550)" d="m0 0 7 1 2 1-1 5h-9l-9 2h-14v-2h-2l1-3 5-3 7 1 5 2 3-3z" fill="#FE7978"/>
<path transform="translate(723,568)" d="m0 0 4 2 7 6 3 3-6 3h-10l-6-3-3-4 1-3 5-1 4 2z" fill="#FF964C"/>
<path transform="translate(757,591)" d="m0 0h12l6 1-4 3-12 6-10 2-7-3 4-3z" fill="#FF8845"/>
<path transform="translate(895,571)" d="m0 0h3v2l-3 3h4l-2 8-5 5-5 1-10-4-1-2 9-4z" fill="#FE954D"/>
<path transform="translate(260,323)" d="m0 0 5 1-4 2v3h37l5 1v1h-25l-18 2-12 3h-3v-2l2-2 1-3-8 1v-2l12-3 7-1z" fill="#D73950"/>
<path transform="translate(1301,373)" d="m0 0 4 2 11 2 4 2h-8l-3-1h-37l-23 2h-7l-1-3 22-2z" fill="#FE6263"/>
<path transform="translate(1370,393)" d="m0 0 5 1 16 8 1 3-8-1-1 3-6-1-16-7v-2l-2-1 5-1 4 3 3-1z" fill="#BC3243"/>
<path transform="translate(334,243)" d="m0 0 1 4 4 2-8 4-3 4v10l2 5-4 1h-12l3-2h6l-1-5v-10l3-6 7-6z" fill="#F46C78"/>
<path transform="translate(1068,144)" d="m0 0h10l6 3-1 2h-3l1 7-5 2-4-2-5-5-4-2-6 1v-2z" fill="#FD5C61"/>
<path transform="translate(754,575)" d="m0 0 17 1-5 7v3h-9l-10-4-1-3z" fill="#FF8845"/>
<path transform="translate(873,568)" d="m0 0 4 1-2 6-6 8-5 2h-11l3-5 15-10z" fill="#FF8845"/>
<path transform="translate(852,576)" d="m0 0v3l-5 6-10 6-7 2-5-1 1-4 12-7 9-2-1-2z" fill="#FF964B"/>
<path transform="translate(650,553)" d="m0 0 9 2 14 4 5 3v2l-7-1-2-1 3 5h-6l-11-6-5-6z" fill="#FF8845"/>
<path transform="translate(789,387)" d="m0 0h6l5 3 2 2-5 3-2 1 7 4-2 4-7 1-2-1v-6l-5-1 2-9z" fill="#FF8845"/>
<path transform="translate(863,377)" d="m0 0 7 1 4 3-1 6-3 1h-11l-5-5 5-5z" fill="#FE787A"/>
<path transform="translate(692,524)" d="m0 0h8l5 4v6l-6 2-7 1-3-4v-6z" fill="#FEDE8A"/>
<path transform="translate(899,537)" d="m0 0 1 3 5-3 1 1-1 7-8 9-7 4-3-1 10-18z" fill="#FF964B"/>
<path transform="translate(904,465)" d="m0 0 7 1 1 5-7-1-3-1 2 3v6l-3 2-5-1-3-2v4h-2l-1-6 5-4h3l1-4z" fill="#FED07E"/>
<path transform="translate(682,568)" d="m0 0 4 1 8 7-2 2h-4v4l-6-1-9-7v-2z" fill="#FF974C"/>
<path transform="translate(863,63)" d="m0 0 4 1 10 4 2 3 2 6-3 3-12-9v-2l-5-1-3-1-6 3-2-1 6-4z" fill="#D3314E"/>
<path transform="translate(908,546)" d="m0 0 5 2-2 6-6 7-8 4-5-1v-3l9-7z" fill="#FF8845"/>
<path transform="translate(637,490)" d="m0 0h1v18l5 4 5 3 2 10v4l-4-2-9-16-3-4-1-7z" fill="#FF8845"/>
<path transform="translate(232,339)" d="m0 0h5l-4 3-11 7h-2l2 7 7 7h-3l-3-2 1 6 3 4-4-2-8-11v-11l2-1v3z" fill="#D33D52"/>
<path transform="translate(820,598)" d="m0 0h2v6l-6 6-10 2h-11l4-3z" fill="#FF8845"/>
<path transform="translate(738,89)" d="m0 0 1 3-6 14h-2l-1 8h-1v-6l-5-2-9-6-9-3v-1h6l1-3 10 5 8 5z" fill="#DF5D69"/>
<path transform="translate(411,208)" d="m0 0 4 1v3h-5l5 16-1 3h-1l1 7 3 7-1 3-6-13-4-12 1-11z" fill="#D7435A"/>
<path transform="translate(783,593)" d="m0 0 9 1 2 2-6 5-4 2h-11l-4-1v-2z" fill="#FF8845"/>
<path transform="translate(951,231)" d="m0 0h2l-2 5-8 11-14 22-13 24-2 2h-2l2-6 16-27 10-15z" fill="#B90F32"/>
<path transform="translate(875,588)" d="m0 0 4 2-1 4-5 5-10 5-9 2 2-4 5-4 11-6z" fill="#FF8A46"/>
<path transform="translate(814,573)" d="m0 0 7 1-1 5-8 5-6 1-7-2 3-3 9-6z" fill="#FF8845"/>
<path transform="translate(726,588)" d="m0 0 5 1 8 8-3 2-7 1-10-5 2-4z" fill="#FF8845"/>
<path transform="translate(927,511)" d="m0 0h1v7l-3 9-4 5-5 1v-9l8-10z" fill="#FF8845"/>
<path transform="translate(951,62)" d="m0 0 4 1-3 1 4 2h11l7 2 1 10-4-5-5-4h-11l-11 5-2-1-2-5z" fill="#CC1B40"/>
<path transform="translate(978,471)" d="m0 0 4 1-3 7-1 3-6 4-5 2v-8l2-5z" fill="#F43F57"/>
<path transform="translate(1213,190)" d="m0 0 5 2 8 7v2h-2l-2 5-8-6-7-3 2-2v-3l2-1 2 1z" fill="#D43350"/>
<path transform="translate(934,440)" d="m0 0h7l3 2-1 7-6 5-4-1-2-4 1-6z" fill="#FF984C"/>
<path transform="translate(896,388)" d="m0 0h8l5 5v2l-4 1h-17l1-4 4-3z" fill="#FE797A"/>
<path transform="translate(793,603)" d="m0 0 5 1-6 7-3 2h-13l-3-2v-3l-3-1h16z" fill="#FF8845"/>
<path transform="translate(837,564)" d="m0 0h6l1 5-6 5-13-1-4-1v-2l12-3z" fill="#FF8845"/>
<path transform="translate(645,533)" d="m0 0 5 2 4 5 4 7-1 3-9-4-4-4-1-7z" fill="#FF8845"/>
<path transform="translate(853,373)" d="m0 0 14 1 10 5 2 4-5 2-2-5-5-2-8 1-6 5 1-7h-10l3-2h6z" fill="#B8360F"/>
<path transform="translate(954,482)" d="m0 0 1 2h5l1 1v10l-5 10h-2l1-5 2-4-4 1v-13z" fill="#FF8B46"/>
<path transform="translate(1175,187)" d="m0 0 5 1-4 2 2 3 3 2-22 4-3-1 3-1v-3l9-3-1-3z" fill="#D53551"/>
<path transform="translate(768,58)" d="m0 0h8l6 3-2 1-2-1h-11v3l15 1 2 3h-2l-1 2-4-3h-9l-8 5-6 5 2-4 5-6-2-1 1-1-2-2z" fill="#D6455A"/>
<path transform="translate(883,595)" d="m0 0h12l5 2-1 2 5 3-4 2-17-4-4-1v-2z" fill="#FD6E79"/>
<path transform="translate(191,625)" d="m0 0 1 4-1 6h-2v2l3-1 3-3-1 4v12l2 6-4-4-1-2-2 4-2-3v-15z" fill="#E34D65"/>
<path transform="translate(912,421)" d="m0 0 7 2 1 5-4 4-7 1-2-3 1-7z" fill="#FF984C"/>
<path transform="translate(985,275)" d="m0 0 1 2v3 3l-14 13-7 8-4 3 2-5 11-13 8-11z" fill="#FE767F"/>
<path transform="translate(688,566)" d="m0 0h17l4 3v4l-9 1-10-5z" fill="#FF8845"/>
<path transform="translate(899,411)" d="m0 0h6l3 3-1 5-5 3h-6l-2-4 3-6z" fill="#FEE08C"/>
<path transform="translate(681,464)" d="m0 0 5 1 3 2 1 6-3 2-10-1-1-6 3-3z" fill="#FF964B"/>
<path transform="translate(778,376)" d="m0 0h6l2 1h14v2l-7 2-3 3h-2l-4-4-7 3-3 3-4-6z" fill="#B61F20"/>
<path transform="translate(760,539)" d="m0 0h6l5 6v2l-6 3h-6l-2-3v-5z" fill="#FEDE8A"/>
<path transform="translate(224,432)" d="m0 0 2 1-9 9-1 6 7 5-2 1-7-2 1 4-4-2-2-6 1-8 1-2 3 1v2l8-7z" fill="#D43A54"/>
<path transform="translate(727,536)" d="m0 0 5 1 3 4-1 5-3 2h-5l-4-5 2-5z" fill="#FEDB87"/>
<path transform="translate(680,477)" d="m0 0 7 1 3 3-2 5-1 3-5-1-6-4 1-4z" fill="#FED884"/>
<path transform="translate(739,582)" d="m0 0 5 1 10 5v2l-5 3-8-1-6-4v-2l5 1 1-2-3-1z" fill="#FF8845"/>
<path transform="translate(890,456)" d="m0 0 5 1v7l-5 5-6-2-1-4 5-6z" fill="#FEDC88"/>
<path transform="translate(947,496)" d="m0 0 4 2 2 10-4 7h-2l-3-5 1-11z" fill="#FF8845"/>
<path transform="translate(912,399)" d="m0 0h7l4 4v3l-12 2-5-2 1-4z" fill="#FE7A7A"/>
<path transform="translate(774,580)" d="m0 0h14l4 1-1 3-6 3h-10l-3-5z" fill="#FF974C"/>
<path transform="translate(920,449)" d="m0 0h5l1 1v7l-1 3h-7l-4-2 1-6z" fill="#FF984C"/>
<path transform="translate(702,579)" d="m0 0 7 1 10 6v2l-5 3-5-2-9-8z" fill="#FF8845"/>
<path transform="translate(870,558)" d="m0 0 1 2-5 8-5 3-14 1 1-4 12-3z" fill="#FF8A46"/>
<path transform="translate(740,538)" d="m0 0h5l2 2h5v4l-6 4-4 1-5-5 2-5z" fill="#FED986"/>
<path transform="translate(796,538)" d="m0 0h8l2 3v5l-2 2h-8l-2-1v-7z" fill="#FE9B4F"/>
<path transform="translate(674,515)" d="m0 0 4 1 2 5h2v2l6 2v1h-11l-6-4-4-4z" fill="#FE9352"/>
<path transform="translate(871,510)" d="m0 0h6l3 3-1 5-9 2-3 2-1-1 1-8z" fill="#FED784"/>
<path transform="translate(658,538)" d="m0 0h6l8 7 2 4-1 1h-7l-6-9-2 3-2-5z" fill="#FF8845"/>
<path transform="translate(712,531)" d="m0 0 5 2 2 2v6l-1 1h-8l-3-3v-5z" fill="#FEA154"/>
<path transform="translate(897,439)" d="m0 0h6l1 5-5 6h-5l-3-3 1-5z" fill="#FED582"/>
<path transform="translate(903,485)" d="m0 0 7 1 2 2-1 4-3 3h-7l-3-3 2-5z" fill="#FED582"/>
<path transform="translate(706,407)" d="m0 0h7l3 4-5 5h-7l-4-1 1-5z" fill="#FE797B"/>
<path transform="translate(295,275)" d="m0 0 1 3v2l4 1-10 2 2 5 4 5-5-2h-3l-3-3v-7l2-3z" fill="#D84056"/>
<path transform="translate(917,463)" d="m0 0h8l2 3-1 4-4 3-7-1-1-6z" fill="#FF974C"/>
<path transform="translate(940,455)" d="m0 0 4 1 2 4-1 5-4 3-5-1-2-2 1-4z" fill="#FF974C"/>
<path transform="translate(883,383)" d="m0 0 7 2v4l-9 3h-9l3-5z" fill="#FF974C"/>
<path transform="translate(690,502)" d="m0 0h6l3 3v5l-2 2h-6l-5-4 2-5z" fill="#FED481"/>
<path transform="translate(911,474)" d="m0 0h5l3 3-1 5-2 3-7-1-2-3 1-5z" fill="#FDD683"/>
<path transform="translate(720,393)" d="m0 0 3 1-3 6-2 10-5-2h-7l-3 1v-3l3-1h7l3-9z" fill="#B8172A"/>
<path transform="translate(941,514)" d="m0 0h2l-1 6-8 9 5-2 3-1 1 2-8 4h-6l2-5 7-11z" fill="#FF8845"/>
<path transform="translate(882,442)" d="m0 0 6 1v6l-4 4-6-1-2-4 4-5z" fill="#FEDA86"/>
<path transform="translate(735,192)" d="m0 0h1l3 38v16h-1l-1-7-1-1-1-15z" fill="#C6173B"/>
<path transform="translate(617,951)" d="m0 0 2 1 1 8 3 1 1 5-1 2 2 1 1 10 2 6-3-3-5-12-3-12z" fill="#D85864"/>
<path transform="translate(676,585)" d="m0 0h8l8 4-2 4-1 1h-6l-5-4z" fill="#FF974C"/>
<path transform="translate(943,546)" d="m0 0 2 1 2 3-5 7-2 2-9 2 4-7 4-5z" fill="#F63F57"/>
<path transform="translate(214,543)" d="m0 0 1 2 1 3h3v5l10 1v1l-8 1v2l6 2-4 1-6-3-5-5v-7z" fill="#E24A5F"/>
<path transform="translate(779,539)" d="m0 0 7 1 2 3v4l-2 1h-9l-2-2 1-5z" fill="#FEDB87"/>
<path transform="translate(902,452)" d="m0 0h7l3 2-1 5-1 1h-9l-3-2v-4z" fill="#FED784"/>
<path transform="translate(930,124)" d="m0 0 1 3-8 17-12 27-1-2 3-10 13-28z" fill="#DD2949"/>
<path transform="translate(620,532)" d="m0 0 8 1 1 1v9l-5 2-3-1 1-7-3-1z" fill="#FD6166"/>
<path transform="translate(714,420)" d="m0 0h5l3 5-2 3-7 1h-6l2-5z" fill="#FF974C"/>
<path transform="translate(1118,158)" d="m0 0h9l10 2 5 2-1 2h-18l-4-3-3-2z" fill="#FD5C62"/>
<path transform="translate(579,740)" d="m0 0h2l-2 6-10 11-11 14-8 11-1-2 10-14 14-18z" fill="#DC2849"/>
<path transform="translate(918,555)" d="m0 0 2 1-2 6-5 8-6 2-7-2v-1l9-3 8-10z" fill="#FF8845"/>
<path transform="translate(808,530)" d="m0 0h5l3 3-1 5-6 3-5-5 1-4z" fill="#FEDB88"/>
<path transform="translate(740,523)" d="m0 0 6 2 2 2-1 4-2 2-8-1-3-2v-2z" fill="#FEDE8A"/>
<path transform="translate(653,491)" d="m0 0 4 2 5 3v10l4 4 4 2h11l1 2-3 1h-9l-6-3-4-5-3-10-4-4z" fill="#B62A17"/>
<path transform="translate(1e3 404)" d="m0 0 1 2-1 3 3 1-3 5-8 8-3-1 3-4 5-6h-2l-7 8-2-1 7-8z" fill="#FC5B64"/>
<path transform="translate(886,402)" d="m0 0h8l3 2-1 4-3 2h-8l-2-5z" fill="#FEDC88"/>
<path transform="translate(925,536)" d="m0 0h7l-1 5-9 9-3 1 3-11z" fill="#FF8845"/>
<path transform="translate(822,530)" d="m0 0 7 1 1 7-2 2-7-1-3-5z" fill="#FED985"/>
<path transform="translate(647,470)" d="m0 0 5 4v2h2l-1 6-4 3-3-1-1-2 1-11z" fill="#FF8845"/>
<path transform="translate(815,911)" d="m0 0 5 2 1 4-2 2 2 1 1 4 4 8 1 7 4 9h-2l-7-15-6-17z" fill="#E07172"/>
<path transform="translate(632,900)" d="m0 0v3l-9 9h-2v2l-8 7-10 8-15 10-2-1 17-12 13-11 15-14z" fill="#E12B4B"/>
<path transform="translate(887,484)" d="m0 0h7l2 5-4 5h-5l-2-2v-6z" fill="#FED684"/>
<path transform="translate(682,491)" d="m0 0 5 1 3 3-1 4-5 3h-3l-2-3v-5z" fill="#FED885"/>
<path transform="translate(1103,310)" d="m0 0m-1 1m-1 1m-1 1m-2 0 2 1v3l-17 10-4 2 1-5 16-10z" fill="#FD5D61"/>
<path transform="translate(657,568)" d="m0 0 6 2 10 6 2 3-1 1h-7l-7-6z" fill="#FF8E48"/>
<path transform="translate(975,493)" d="m0 0 3 1 1 6-10 7h-1v-9z" fill="#FE6265"/>
<path transform="translate(886,415)" d="m0 0 5 2 2 5-3 3-8-1-2-3 2-4z" fill="#FED683"/>
<path transform="translate(894,498)" d="m0 0h7l2 2-1 7-6 1-3-2v-6z" fill="#FF964C"/>
<path transform="translate(642,483)" d="m0 0 3 3-1 5-1 8 2 10-4-2-2-2v-10z" fill="#FF934A"/>
<path transform="translate(970,438)" d="m0 0h3v7l-9 8-3-1 1-6 3-1v-2z" fill="#F5515F"/>
<path transform="translate(704,430)" d="m0 0 6 1 4 5-1 3-7 1-4-3 1-6z" fill="#FF974C"/>
<path transform="translate(709,515)" d="m0 0 6 1 1 5-2 4h-6l-3-4 2-5z" fill="#FED17E"/>
<path transform="translate(880,496)" d="m0 0 7 1 2 5-3 4h-5l-3-3v-5z" fill="#FED986"/>
<path transform="translate(911,363)" d="m0 0 2 1-1 6-1 2h-2l-2 5 1 6-1 2h-6l1-5z" fill="#FD5F65"/>
<path transform="translate(695,580)" d="m0 0 5 3 10 8-1 2-12-4-4-3 1-5z" fill="#FF964B"/>
<path transform="translate(651,515)" d="m0 0 9 3-1 4v8l-4-1-3-4z" fill="#FF954B"/>
<path transform="translate(866,496)" d="m0 0 5 2 2 5-3 3h-7l-2-1 1-5 4-2z" fill="#FEDF8B"/>
<path transform="translate(687,446)" d="m0 0 6 1 4 4-2 5-2 1-6-3-1-1z" fill="#FF964C"/>
<path transform="translate(848,396)" d="m0 0h5l1 1v6l-3 4-5-1-2-5z" fill="#FED986"/>
<path transform="translate(873,482)" d="m0 0 5 2 1 5-3 3h-6l-2-4 3-5z" fill="#FEE18D"/>
<path transform="translate(950,450)" d="m0 0 6 1 3 3v6l-6 3-4-2 1-4 2 3-1-6z" fill="#FF8945"/>
<path transform="translate(689,436)" d="m0 0h7l4 4-2 5-2 1-6-3-2-4z" fill="#FF974C"/>
<path transform="translate(924,405)" d="m0 0 4 1v2l5 2 4 5-2 1-1 3-1-3-2-1-10-1v-2l3-3z" fill="#B73211"/>
<path transform="translate(875,405)" d="m0 0 4 1 2 2-1 4-7 3-4-1 1-5z" fill="#FE9B50"/>
<path transform="translate(641,549)" d="m0 0 5 2 1 1 1 12-4-1-4-6v-7z" fill="#FF8845"/>
<path transform="translate(1377,509)" d="m0 0 5 5 8 4 1 2-5 1-7-3-6-2v-4l4-1z" fill="#FF6263"/>
<path transform="translate(855,509)" d="m0 0 6 1 3 4v5l-10-2-2-5z" fill="#FED784"/>
<path transform="translate(696,478)" d="m0 0 5 1 3 3v3l-7 4-5-6z" fill="#FED481"/>
<path transform="translate(858,66)" d="m0 0 5 2 3 1v2l-9 3-6 3v-2l-2-2 5-5z" fill="#D11F42"/>
<path transform="translate(874,526)" d="m0 0 5 1h3l-1 1v7l1 5-3-1-3-9-2-1v2l-3 2-3 3-2-1 1-2-4-1z" fill="#FF8646"/>
<path transform="translate(836,526)" d="m0 0h7l2 2-1 5-2 1h-7l-2-4z" fill="#FEDE8A"/>
<path transform="translate(857,522)" d="m0 0h7l1 1v5l-2 2h-8l-1-1v-5z" fill="#FED885"/>
<path transform="translate(757,524)" d="m0 0h5l2 2v5l-2 2h-6l-2-1v-6z" fill="#FEE28D"/>
<path transform="translate(944,433)" d="m0 0 6 1 3 5-1 7h-4l-4-11z" fill="#FF8845"/>
<path transform="translate(915,583)" d="m0 0h6l-1 2h-2v3h15v1h-28v-2l5-3z" fill="#FD707A"/>
<path transform="translate(680,454)" d="m0 0h6l4 5v4l-3 1-6-3-2-2z" fill="#FED885"/>
<path transform="translate(943,431)" d="m0 0 6 1 2 1-1 2-6-2 3 8-1 5-1-4-10-2 1-3 5-3 2 1z" fill="#B83311"/>
<path transform="translate(950,469)" d="m0 0h8l4 3-1 5-6 5-2-10z" fill="#FF8A46"/>
<path transform="translate(226,463)" d="m0 0 6 1-4 1-11 7-11 9-10 9v-3l8-8 13-10z" fill="#D01E43"/>
<path transform="translate(772,525)" d="m0 0h6l3 5-2 3-6 1-3-3 1-5z" fill="#FEE58F"/>
<path transform="translate(667,515)" d="m0 0 2 1-1 3 9 6 12 1-1 5-11-3-10-6-3-1v-2l-3-1h4v-2z" fill="#B5201E"/>
<path transform="translate(706,500)" d="m0 0 5 2 1 6-1 1h-8l-1-1v-6z" fill="#FED884"/>
<path transform="translate(912,437)" d="m0 0 5 1-2 9h-7l-1-5z" fill="#FEE18C"/>
<path transform="translate(663,431)" d="m0 0 3 1-3 4 1 7 5 5 3 4-6-2-5-2-1-5-1-2v-7z" fill="#B7152A"/>
<path transform="translate(714,408)" d="m0 0 4 2 1 3-4 4-12 3h-3l-1-6 7 1h7l2-5z" fill="#FF984C"/>
<path transform="translate(1308,338)" d="m0 0 10 2 7 8-2 1-12-6-9-3v-1z" fill="#D32044"/>
<path transform="translate(334,243)" d="m0 0 1 4 4 2-11 5-4 4 1-8 7-6z" fill="#E54E68"/>
<path transform="translate(894,425)" d="m0 0 7 1 1 5-3 3-6-1-1-5z" fill="#FED582"/>
<path transform="translate(768,400)" d="m0 0 5 1 1 5-5 2-1 3-3-1-1-5z" fill="#FEA155"/>
<path transform="translate(825,551)" d="m0 0h5l1 5-3 3h-7l-1-4-2-1z" fill="#FF6263"/>
<path transform="translate(791,527)" d="m0 0h6l1 1-1 7-5 1-4-4 1-4z" fill="#FEE48F"/>
<path transform="translate(699,454)" d="m0 0 6 2 2 4-3 3h-6l-2-2 1-5z" fill="#FED381"/>
<path transform="translate(738,425)" d="m0 0 7 1 1 5-5 3-4-1-1-5z" fill="#FED07E"/>
<path transform="translate(871,420)" d="m0 0h5l2 2v4l-5 3-5-2-1-3z" fill="#FED481"/>
<path transform="translate(738,411)" d="m0 0h7l1 4-5 5-4-1-2-4z" fill="#FED280"/>
<path transform="translate(756,400)" d="m0 0 2 1-12 8-8 1-1-6 1 2 14-5z" fill="#FF8845"/>
<path transform="translate(795,379)" d="m0 0h6l1 1v6l-5 2-3-2v-2l-4 1 2-4z" fill="#FE787B"/>
<path transform="translate(712,93)" d="m0 0 10 4 2 3-5-1 9 7-1 2-10-7-6-3-5-1v-1h6z" fill="#F25D6F"/>
<path transform="translate(373,826)" d="m0 0 4 2-2 18-3-1v-17z" fill="#B20A2D"/>
<path transform="translate(939,508)" d="m0 0h3l-1 4-7 8-4 6-1-3 4-10z" fill="#FF8845"/>
<path transform="translate(696,467)" d="m0 0 5 1 2 2-1 4-2 2h-5l-2-3v-5z" fill="#FED07E"/>
<path transform="translate(1254,253)" d="m0 0 5 2-4 4-12 5h-2l2-4 8-5z" fill="#FE757E"/>
<path transform="translate(678,552)" d="m0 0 6 1 7 7v2l-8-1-5-5z" fill="#FF964B"/>
<path transform="translate(861,402)" d="m0 0h5l2 2-1 5-7 2-3-4z" fill="#FED482"/>
<path transform="translate(714,151)" d="m0 0 4 3-1 12-1 33h-1z" fill="#F84658"/>
<path transform="translate(935,543)" d="m0 0h2l-1 5-6 10-5-1 2-5z" fill="#FF8945"/>
<path transform="translate(817,519)" d="m0 0h5l2 2-1 6h-8l-1-5z" fill="#FEE791"/>
<path transform="translate(726,419)" d="m0 0 7 1 2 2-1 4h-9l-2-5z" fill="#FF984C"/>
<path transform="translate(719,411)" d="m0 0 3 3-8 7-11 1-2-2 4-2 12-3z" fill="#FF8845"/>
<path transform="translate(871,395)" d="m0 0h8v5l-13 1-4-2v-1l7-2z" fill="#FF984C"/>
<path transform="translate(904,388)" d="m0 0h5l4 4 3 4-2 1 3 2-10 2 1-8z" fill="#B83410"/>
<path transform="translate(927,79)" d="m0 0m-1 1m-1 1m-3 1 3 1-22 22-1 2h-2l2-4 15-16z" fill="#DA5E6B"/>
<path transform="translate(718,506)" d="m0 0 6 1 3 3-2 4-6 1-2-2z" fill="#FEE08B"/>
<path transform="translate(749,418)" d="m0 0 5 1 1 6-2 2h-5l-3-3 2-4z" fill="#FED07E"/>
<path transform="translate(1243,312)" d="m0 0h9l-3 2-5 2 3 2-10 1v-2l-7 1 1-2h4v-2z" fill="#FE6769"/>
<path transform="translate(914,495)" d="m0 0h3v5l-4 4-4 2h-3l1-5z" fill="#FF984C"/>
<path transform="translate(727,444)" d="m0 0h7l2 4-6 3h-6l1-6z" fill="#FED683"/>
<path transform="translate(765,412)" d="m0 0 5 3-3 5-2 2-4-1-1-1v-5z" fill="#FF984C"/>
<path transform="translate(858,367)" d="m0 0 4 1 1 4 4 2h-16l-3-2h2v-2z" fill="#FE5E61"/>
<path transform="translate(701,511)" d="m0 0 3 1 1 5-3 3h-5l-2-6z" fill="#FED17F"/>
<path transform="translate(777,407)" d="m0 0 5 1 2 2-1 5-5 1-4-3 2-5z" fill="#FED381"/>
<path transform="translate(635,531)" d="m0 0h5l2 10-1 4-5-5z" fill="#FF8845"/>
<path transform="translate(835,396)" d="m0 0 4 1 1 5-4 4-4-1-1-6z" fill="#FED482"/>
<path transform="translate(1263,375)" d="m0 0m-14 1h14l9 1v1l-23 2h-7l-1-3z" fill="#FC575F"/>
<path transform="translate(793,603)" d="m0 0 5 1-6 7-3 2-3-1 1-2h-2l1-3z" fill="#FF964B"/>
<path transform="translate(885,549)" d="m0 0h2l-2 5-10 9-2-1 4-7 6-5z" fill="#FF8C47"/>
<path transform="translate(875,471)" d="m0 0h6l1 5-5 4h-4v-6z" fill="#FCDA86"/>
<path transform="translate(881,428)" d="m0 0 6 1 1 5-2 3-5-1-2-1 1-6z" fill="#FECF7D"/>
<path transform="translate(810,402)" d="m0 0 6 2-1 5-2 2-5-1-2-2 1-4z" fill="#FED280"/>
<path transform="translate(848,275)" d="m0 0h1v7l-4 21-3-2 2-11z" fill="#DC2848"/>
<path transform="translate(858,135)" d="m0 0h2l-4 20-2 8h-3l2-10z" fill="#C01437"/>
<path transform="translate(317,723)" d="m0 0h3l-1 6-5 11-2 6-4 1 9-19 1-3-8 4-3-1z" fill="#E7837D"/>
<path transform="translate(717,440)" d="m0 0h6l1 4-2 3-7 1-1-4z" fill="#FECF7D"/>
<path transform="translate(848,411)" d="m0 0 5 1 1 5-4 3-4-1-1-6z" fill="#FED784"/>
<path transform="translate(834,409)" d="m0 0h7l2 1-1 5-1 1h-7l-1-6z" fill="#FED986"/>
<path transform="translate(823,404)" d="m0 0 5 1 2 5-4 3-5-2-1-4z" fill="#FED380"/>
<path transform="translate(701,444)" d="m0 0h6l4 3v3l-7 1-4-3z" fill="#FEC777"/>
<path transform="translate(699,418)" d="m0 0 4 3h9l-4 6v3l-6-1 1-3-5-7z" fill="#B93A0D"/>
<path transform="translate(830,193)" d="m0 0h2l1 6 1 9-1 3-3 1-1-9v-7z" fill="#FF6263"/>
<path transform="translate(1151,176)" d="m0 0 2 2 1 7 3 2v2l4 1v2l-6 1v-2l-4 1z" fill="#E1465C"/>
<path transform="translate(852,162)" d="m0 0h1l-1 9-4 17-3 1 1-6 5-20z" fill="#B90E32"/>
<path transform="translate(637,489)" d="m0 0h2l1 6v10l7 6-3 1-6-3-1-1z" fill="#B83411"/>
<path transform="translate(696,491)" d="m0 0 7 1 1 4-3 3-5-1-1-1v-5z" fill="#FED07E"/>
<path transform="translate(820,614)" d="m0 0h13l2 1-2 4-2 1v-5h-9l-2 5-5 9h-2l1-5 6-9z" fill="#D82446"/>
<path transform="translate(919,461)" d="m0 0h8l2 2v6 3l-4 4-3-1 1-4 3-2-1-5-6-2z" fill="#B41D20"/>
<path transform="translate(729,515)" d="m0 0 7 1 2 2v4l-6 1-3-2z" fill="#FEDC88"/>
<path transform="translate(709,488)" d="m0 0 4 1 4 6v2h-7l-3-3z" fill="#FEDD89"/>
<path transform="translate(711,451)" d="m0 0h7l1 7-6 1-2-2z" fill="#FED481"/>
<path transform="translate(719,430)" d="m0 0 6 1 1 3-3 4h-5l-1-1v-5z" fill="#FECA79"/>
<path transform="translate(708,463)" d="m0 0 7 1 1 3-3 4-5-1-1-6z" fill="#FED885"/>
<path transform="translate(857,416)" d="m0 0h6l3 3-1 3-6 1-3-2z" fill="#FED380"/>
<path transform="translate(895,415)" d="m0 0 7 1 5 2-2 3-9 1-2-4z" fill="#FF974C"/>
<path transform="translate(280,321)" d="m0 0h13l6 2v1h-23l1-2z" fill="#EB8E9F"/>
<path transform="translate(951,231)" d="m0 0h2l-2 5-8 11-7 11-2-2 13-19z" fill="#C11437"/>
<path transform="translate(863,63)" d="m0 0 4 1 3 2-1 3h-6l-5-2-6 3-2-1 6-4z" fill="#C75459"/>
<path transform="translate(1273,376)" d="m0 0h40l7 2v1h-8l-3-1-36-1z" fill="#F23953"/>
<path transform="translate(710,475)" d="m0 0 4 1v6l-1 1h-5l-2-2 1-5z" fill="#F7C976"/>
<path transform="translate(721,414)" d="m0 0 4 2 3 3-4 2-3 4-2-4-3-2z" fill="#B93A0D"/>
<path transform="translate(826,373)" d="m0 0h9l-12 6-4-3h-7v-2z" fill="#B7281A"/>
<path transform="translate(1204,322)" d="m0 0 5 2v1l-18 4h-5l1-2z" fill="#FE757D"/>
<path transform="translate(721,540)" d="m0 0 2 3 3 4 7 1-4 3-5 2-5-8z" fill="#B62917"/>
<path transform="translate(840,512)" d="m0 0 6 1 2 3-3 3h-6l-1-5z" fill="#FEE590"/>
<path transform="translate(1388,460)" d="m0 0 4 1-3 1-1 3-15 2h-5l3-2z" fill="#D01E43"/>
<path transform="translate(798,417)" d="m0 0 9 2v4l-6-1-5 2-1-1v-5z" fill="#FED885"/>
<path transform="translate(822,391)" d="m0 0 1 3 5 2-2 4-6 1-1-4z" fill="#FF964B"/>
<path transform="translate(650,565)" d="m0 0 5 4 3 5-1 3-6-3-2-6z" fill="#FF8845"/>
<path transform="translate(636,514)" d="m0 0 2 1 2 13-5-2-1-7z" fill="#FF8845"/>
<path transform="translate(884,475)" d="m0 0h4l-2 9-2 2h-3l1-9z" fill="#FED280"/>
<path transform="translate(811,413)" d="m0 0 6 1 1 4-2 2h-6l-1-5z" fill="#FED583"/>
<path transform="translate(796,587)" d="m0 0h6l-2 4-3 2-8-1v-2z" fill="#FF8845"/>
<path transform="translate(928,582)" d="m0 0h16l12 2v1h-14l-16-1z" fill="#FB6472"/>
<path transform="translate(910,529)" d="m0 0h3v6l-3 5h-2l-2-7z" fill="#FF8845"/>
<path transform="translate(706,532)" d="m0 0 1 3-2 3-1-1-11 2v6h-2v-8l13-3z" fill="#B51F1E"/>
<path transform="translate(399,246)" d="m0 0 16 2 3 2h-6v2l-9-1-2-1v-2h-2z" fill="#BE3647"/>
<path transform="translate(787,404)" d="m0 0h4l1 6-2 2-4-1-2-3v-3z" fill="#FEB365"/>
<path transform="translate(744,598)" d="m0 0 14 1-2 3-7 1-7-3z" fill="#FF964B"/>
<path transform="translate(666,513)" d="m0 0 8 2-4 2-5-1-1 4-3 3h-2l1-5-2-1h2v-2l-3-1h8z" fill="#B8370F"/>
<path transform="translate(939,469)" d="m0 0 5 1 1 3-3 5-4 1v-9z" fill="#FE8E49"/>
<path transform="translate(787,414)" d="m0 0 4 1 1 6-5 1-3-1-1-3z" fill="#FECA79"/>
<path transform="translate(414,195)" d="m0 0 2 3v10l-6 2-2 2-1 8-2-1v-7l2-4 7-2v-7l-1-3z" fill="#F39C9E"/>
<path transform="translate(549,934)" d="m0 0 1 2h2l2 4 2-1 3 3v2h2v4l3 1-5-1-9-9z" fill="#E2515F"/>
<path transform="translate(712,544)" d="m0 0h7l3 3v2h-9l-3-4z" fill="#FF984C"/>
<path transform="translate(706,535)" d="m0 0 2 4v2h2l-1 4-4 1-4-9z" fill="#B8350F"/>
<path transform="translate(1149,454)" d="m0 0 30 1-2 2h-27l-12-1v-1z" fill="#FE6364"/>
<path transform="translate(760,423)" d="m0 0 4 2-1 6-4 1-2-2 1-5z" fill="#FEC776"/>
<path transform="translate(1104,155)" d="m0 0 4 1v3l3-1h7v1l-11 2h-7l2-5z" fill="#D52245"/>
<path transform="translate(565,758)" d="m0 0 3 1-8 9-10 14-1-2 10-14z" fill="#E32D4C"/>
<path transform="translate(935,500)" d="m0 0h4l1 3-4 4-5 1 1-5z" fill="#FF8845"/>
<path transform="translate(954,482)" d="m0 0 1 3h2v10l-4 2v-13z" fill="#FF984C"/>
<path transform="translate(875,457)" d="m0 0 5 1 1 4-2 2h-4l-3-3 1-3z" fill="#FEDB87"/>
<path transform="translate(917,438)" d="m0 0 4 2-1 5-4 3h-7v-1h6l1-7z" fill="#FF984C"/>
<path transform="translate(738,436)" d="m0 0 5 1 1 5-5 2-2-2v-5z" fill="#FED582"/>
<path transform="translate(860,428)" d="m0 0 4 1 1 2-3 5-5-1 1-5z" fill="#FECC7B"/>
<path transform="translate(837,420)" d="m0 0h5l1 4-2 3-5-1-1-4z" fill="#FED683"/>
<path transform="translate(825,416)" d="m0 0 4 1 2 4-3 3h-3l-2-3 1-4z" fill="#FED783"/>
<path transform="translate(1088,143)" d="m0 0 4 4h-2l1 3-2 4-1-4-4-2-3-3 5-1 2 1z" fill="#D53051"/>
<path transform="translate(807,616)" d="m0 0h7l-19 19 2-5 12-12z" fill="#F63C55"/>
<path transform="translate(891,595)" d="m0 0 7 1 2 2v1l4 4-5-1-6-2-2-2z" fill="#FE6365"/>
<path transform="translate(791,575)" d="m0 0h8l-1 3-3 2-7-1v-3z" fill="#FF8845"/>
<path transform="translate(904,465)" d="m0 0 7 1 1 5-7-1-3-3z" fill="#FECA79"/>
<path transform="translate(934,257)" d="m0 0 1 2-11 18h-2l2-5 9-14z" fill="#B70D31"/>
<path transform="translate(1225,230)" d="m0 0 17 1 5 1v1h-24z" fill="#DC9A7D"/>
<path transform="translate(966,66)" d="m0 0 8 2 1 10-4-5-5-4-7-1v-1z" fill="#DA2648"/>
<path transform="translate(618,939)" d="m0 0 2 3v2h2l-1 7h-4v-9z" fill="#D01F42"/>
<path transform="translate(848,425)" d="m0 0 5 1 1 5-4 1-4-2 1-4z" fill="#FED985"/>
<path transform="translate(826,569)" d="m0 0h7l1 4h-9l-4-1v-2z" fill="#FF964B"/>
<path transform="translate(925,536)" d="m0 0h7l-1 5h-8l1-4z" fill="#FF964B"/>
<path transform="translate(966,444)" d="m0 0h5v3l-7 6h-2l2-6z" fill="#FE6A6F"/>
<path transform="translate(797,407)" d="m0 0 3 1 1 6-3 2-4-4z" fill="#FECE7D"/>
<path transform="translate(784,379)" d="m0 0 4 3v2l-8 1-1-1h-2l1-3z" fill="#FE7A79"/>
<path transform="translate(843,300)" d="m0 0h1v7l-1 5-2-2-2 8h-1l1-9 2-8z" fill="#E32D4C"/>
<path transform="translate(301,274)" d="m0 0 7 1-6 4-1 1h-5v-2l-2-1h2v-2z" fill="#B4192F"/>
<path transform="translate(1263,260)" d="m0 0 17 1 2 2h-22z" fill="#ECB2A5"/>
<path transform="translate(869,585)" d="m0 0 2 1-5 4h-11l-4-2 12-1z" fill="#FF8845"/>
<path transform="translate(666,573)" d="m0 0 4 1 5 5-1 1h-7v-3z" fill="#FF964B"/>
<path transform="translate(1397,460)" d="m0 0 8 1-3 3-11 4h-2v-2l4-2 3-1-1-2z" fill="#E2606D"/>
<path transform="translate(1240,487)" d="m0 0 11 1 8 2-2 2-9-1-8-3z" fill="#FE6568"/>
<path transform="translate(917,474)" d="m0 0 3 1 1 2v7l-2 3-4-1 3-5z" fill="#B41B21"/>
<path transform="translate(919,422)" d="m0 0h3l1 5-4 6-5 1v-2l4-2 1-6z" fill="#B5241B"/>
<path transform="translate(794,377)" d="m0 0h6v2l-7 2-3 3h-2l-2-5 6-1z" fill="#B51A24"/>
<path transform="translate(464,663)" d="m0 0 3 1-10 6-9 5-2-1z" fill="#E12B4B"/>
<path transform="translate(948,430)" d="m0 0 4 2 3 4 1 4-1 5h-2l-2-12h-2z" fill="#B81A27"/>
<path transform="translate(943,431)" d="m0 0 6 1 2 1-1 2-6-2 3 8-1 5-2-4-1-4z" fill="#B62918"/>
<path transform="translate(1045,314)" d="m0 0 2 1-10 11-4 1 2-4z" fill="#FC5B62"/>
<path transform="translate(917,152)" d="m0 0 1 3-6 15-2 1 2-9z" fill="#C41639"/>
<path transform="translate(815,911)" d="m0 0 5 2 1 4-2 2 2 1-1 5-2-2z" fill="#D76267"/>
<path transform="translate(933,526)" d="m0 0 1 3 5-2 3-1 1 2-8 4h-6l2-5z" fill="#FF9249"/>
<path transform="translate(894,498)" d="m0 0h7l1 5-1-2h-4l-1 3-3-1z" fill="#FEDD89"/>
<path transform="translate(951,62)" d="m0 0 4 1-3 1-3 3-4 1-2 4h-2l-1-4z" fill="#D26D6E"/>
<path transform="translate(918,437)" d="m0 0 4 1 1 1v6l-6 5-1-3 4-4-1-4z" fill="#B5241B"/>
<path transform="translate(911,363)" d="m0 0 2 1-1 6-1 2h-2v2h-2l1-6z" fill="#FE6366"/>
<path transform="translate(726,588)" d="m0 0 5 1 3 4-12-1v-2z" fill="#FF964B"/>
<path transform="translate(653,491)" d="m0 0 4 2 5 3-2 7-2-2-2-5-3-3z" fill="#B5241B"/>
<path transform="translate(752,431)" d="m0 0 7 2 1 2-4 2-4-1-1-4z" fill="#FEDA86"/>
<path transform="translate(1360,395)" d="m0 0h5l4 4v2l3 1-2 1-9-4v-2l-2-1z" fill="#C51739"/>
<path transform="translate(889,384)" d="m0 0 7 1v3l-3 2-7 5 2-5 2-4z" fill="#B73211"/>
<path transform="translate(1224,211)" d="m0 0h1v13l-2 6-3 2 3-12z" fill="#D82547"/>
<path transform="translate(846,188)" d="m0 0h1l-1 10-1 5h-3l2-12z" fill="#B70D30"/>
<path transform="translate(1017,601)" d="m0 0 6 2 1 3-4 1-5-3v-2z" fill="#FF6263"/>
<path transform="translate(1063,468)" d="m0 0 5 1v3l-6 2-4-1z" fill="#FE6568"/>
<path transform="translate(750,300)" d="m0 0 3 4 2 13-2-1-3-10z" fill="#C21439"/>
<path transform="translate(1148,158)" d="m0 0 6 5-2 4-5-4-1-3h2z" fill="#D33352"/>
<path transform="translate(744,619)" d="m0 0 9 1-3 2-11 5-2-1 9-5z" fill="#FE7780"/>
<path transform="translate(968,552)" d="m0 0h4v2l-11 4-3-1 1-2z" fill="#FC6D79"/>
<path transform="translate(1240,261)" d="m0 0 2 1-1 2 7-2-1 2-12 2-1-4z" fill="#F64E5B"/>
<path transform="translate(910,166)" d="m0 0 1 3v5l-3 6h-2l1-7z" fill="#D22042"/>
<path transform="translate(668,113)" d="m0 0 5 5 5 8-1 2-5-5-2-5z" fill="#E3626F"/>
<path transform="translate(276,698)" d="m0 0 3 1-2 6-3 3-1 2-2-1z" fill="#E67B88"/>
<path transform="translate(1380,522)" d="m0 0 8 3-3 3-5-1-1-3z" fill="#FD5C61"/>
<path transform="translate(642,483)" d="m0 0 3 3-1 5-2 8h-1v-14z" fill="#FF8945"/>
<path transform="translate(866,447)" d="m0 0 4 1 2 4-5 2-1-1z" fill="#FED985"/>
<path transform="translate(1409,425)" d="m0 0 5 5-4 2-7-2 4-2z" fill="#FD5D62"/>
<path transform="translate(1050,638)" d="m0 0 4 1 8 9-1 2-9-9-2-1z" fill="#E12C4B"/>
<path transform="translate(758,556)" d="m0 0 6 1v2h12v1l-15 1z" fill="#FF994D"/>
<path transform="translate(934,550)" d="m0 0 3 1-2 4-3 5-3-1z" fill="#B5201E"/>
<path transform="translate(650,511)" d="m0 0 5 1 2 1v2h3v2l-7-1v-2l-3-1z" fill="#B41B21"/>
<path transform="translate(685,496)" d="m0 0 4 2-3 3-5 1-1-3z" fill="#FF984C"/>
<path transform="translate(907,425)" d="m0 0 3 1 2 4 2 1v2h-5l-2-3z" fill="#FECD7A"/>
<path transform="translate(232,339)" d="m0 0h5l-4 3-8 5h-2l1-3z" fill="#E12C4B"/>
<path transform="translate(987,273)" d="m0 0 2 1 1 4-1 3h-5l2-7z" fill="#FE6567"/>
<path transform="translate(419,656)" d="m0 0m-1 1m-1 1m-1 1m-2 1h2l-2 4-8 6-2-1z" fill="#EB3550"/>
<path transform="translate(904,547)" d="m0 0 1 2-3 5-6 2 3-5z" fill="#B31724"/>
<path transform="translate(664,477)" d="m0 0 9 2-1 2-16-2v-1z" fill="#B6261A"/>
<path transform="translate(617,951)" d="m0 0 2 1 2 8v4l-3-1-1-5z" fill="#D15D58"/>
<path transform="translate(594,637)" d="m0 0 3 1-3 3-10 4-2-1z" fill="#D01E43"/>
<path transform="translate(723,568)" d="m0 0 4 2v3l-2 2-3-1v-5z" fill="#FF8845"/>
<path transform="translate(785,398)" d="m0 0 1 3-2 3-5-1 1-4z" fill="#FEDC88"/>
<path transform="translate(1330,380)" d="m0 0 10 2 3 1v2l2 1-2 2-4-3-3-2-6-2z" fill="#C2675A"/>
<path transform="translate(775,377)" d="m0 0 3 1-2 2-1 6-5-5z" fill="#B8380E"/>
<path transform="translate(617,737)" d="m0 0h2l-2 4-7 6v-3z" fill="#E9324F"/>
<path transform="translate(684,622)" d="m0 0 9 1v2l-7 1v-2h-2z" fill="#FE6264"/>
<path transform="translate(909,575)" d="m0 0 4 1-7 6-2-1 2-4z" fill="#FF8B46"/>
<path transform="translate(638,504)" d="m0 0 8 6 1 2-5-1-4-2z" fill="#B31425"/>
<path transform="translate(817,619)" d="m0 0 3 1-5 9h-2l1-5z" fill="#E52F4D"/>
<path transform="translate(902,385)" d="m0 0 6 1 3 2-1 2-1-1-12-1 4-2z" fill="#B41E1F"/>
<path transform="translate(930,124)" d="m0 0 1 3-6 12-1-4z" fill="#CF1F40"/>
</svg>
