<svg width="193" height="81" viewBox="0 0 193 81" fill="none" xmlns="http://www.w3.org/2000/svg">
<path d="M12.6 8.096C12.432 7.976 12.24 7.868 12.024 7.772C11.832 7.652 11.628 7.616 11.412 7.664H11.268C11.148 7.664 11.088 7.628 11.088 7.556C11.088 7.484 11.172 7.364 11.34 7.196C11.556 7.004 11.772 6.824 11.988 6.656C12.228 6.464 12.444 6.368 12.636 6.368C12.9 6.368 13.152 6.452 13.392 6.62C13.632 6.788 13.824 6.968 13.968 7.16C14.016 7.184 13.932 7.28 13.716 7.448C13.5 7.592 13.272 7.736 13.032 7.88C12.792 8.024 12.648 8.096 12.6 8.096ZM4.284 27.14C3.036 27.14 2.052 26.912 1.332 26.456C0.636 26 0.288 25.256 0.288 24.224C0.288 23.912 0.324 23.6 0.396 23.288C0.564 22.328 0.924 21.548 1.476 20.948C2.052 20.324 2.724 19.808 3.492 19.4C4.26 18.968 5.052 18.56 5.868 18.176C6.708 17.792 7.5 17.36 8.244 16.88C8.988 16.4 9.588 15.8 10.044 15.08C10.38 14.552 10.632 14.06 10.8 13.604C10.992 13.148 11.088 12.728 11.088 12.344C11.088 11.888 10.968 11.528 10.728 11.264L11.124 10.688C11.724 11.36 12.024 12.152 12.024 13.064C12.024 13.688 11.808 14.3 11.376 14.9C10.968 15.476 10.524 15.968 10.044 16.376L4.068 21.128C3.588 21.512 3.228 21.944 2.988 22.424C2.748 22.904 2.628 23.384 2.628 23.864C2.628 24.32 2.736 24.74 2.952 25.124C3.192 25.508 3.54 25.796 3.996 25.988C4.356 26.156 4.824 26.24 5.4 26.24C5.904 26.24 6.408 26.168 6.912 26.024C7.44 25.88 7.896 25.676 8.28 25.412C8.52 25.244 8.772 24.968 9.036 24.584C9.3 24.2 9.54 23.768 9.756 23.288C9.996 22.832 10.164 22.412 10.26 22.028C10.26 21.812 10.392 21.644 10.656 21.524C10.92 21.38 11.028 21.44 10.98 21.704C10.908 22.04 10.812 22.46 10.692 22.964C10.596 23.444 10.512 23.9 10.44 24.332C10.368 24.788 10.332 25.136 10.332 25.376C10.332 25.616 10.236 25.82 10.044 25.988C9.852 26.18 9.684 26.312 9.54 26.384C9.252 26.504 8.76 26.624 8.064 26.744C7.368 26.888 6.744 26.984 6.192 27.032L5.184 27.104C5.016 27.128 4.86 27.14 4.716 27.14C4.572 27.14 4.428 27.14 4.284 27.14ZM20.2424 23.36C19.4984 23.36 18.7904 23.156 18.1184 22.748C17.4464 22.316 16.9424 21.668 16.6064 20.804C16.4864 20.492 16.4024 20.168 16.3544 19.832C16.3064 19.472 16.2824 19.124 16.2824 18.788C16.2824 18.452 16.3424 18.284 16.4624 18.284C16.6064 18.284 16.6784 18.38 16.6784 18.572C16.6784 19.7 16.9544 20.552 17.5064 21.128C18.0824 21.704 18.7904 21.992 19.6304 21.992C20.4704 21.992 21.2744 21.752 22.0424 21.272C22.8344 20.792 23.5664 20.18 24.2384 19.436C25.3424 18.236 26.2784 17.024 27.0464 15.8C27.8144 14.552 28.5104 13.28 29.1344 11.984C29.7824 10.664 30.4304 9.296 31.0784 7.88C31.4864 7.016 31.9904 6.26 32.5904 5.612C33.2144 4.964 33.9584 4.52 34.8224 4.28L34.8584 4.244H32.8784C32.0384 4.244 31.1504 4.28 30.2144 4.352C29.2784 4.424 28.4264 4.58 27.6584 4.82C26.9144 5.06 26.3744 5.42 26.0384 5.9C25.8224 6.212 25.7144 6.572 25.7144 6.98C25.7144 7.388 25.8224 7.784 26.0384 8.168C26.2544 8.552 26.5304 8.828 26.8664 8.996C26.9144 9.044 26.9384 9.08 26.9384 9.104C26.9384 9.152 26.8784 9.212 26.7584 9.284C26.6624 9.332 26.5544 9.344 26.4344 9.32C26.2424 9.2 26.0024 9.008 25.7144 8.744C25.4264 8.456 25.1624 8.156 24.9224 7.844C24.7064 7.532 24.5624 7.268 24.4904 7.052C24.3944 6.764 24.3464 6.476 24.3464 6.188C24.3464 5.612 24.5504 5.144 24.9584 4.784C25.3904 4.424 25.9424 4.148 26.6144 3.956C27.2864 3.764 28.0064 3.632 28.7744 3.56C29.5664 3.464 30.3224 3.416 31.0424 3.416C31.7864 3.392 32.4224 3.38 32.9504 3.38H36.8384C36.8864 3.38 36.9104 3.392 36.9104 3.416C36.9104 3.488 36.8264 3.596 36.6584 3.74C36.5144 3.86 36.4184 3.92 36.3704 3.92C35.7704 4.04 35.3264 4.364 35.0384 4.892C34.7504 5.396 34.6184 6.212 34.6424 7.34C34.6424 7.34 34.6424 7.604 34.6424 8.132C34.6664 8.66 34.6904 9.344 34.7144 10.184C34.7384 11.024 34.7624 11.924 34.7864 12.884C34.8104 13.844 34.8344 14.768 34.8584 15.656C34.8824 16.544 34.9064 17.288 34.9304 17.888V18.104L47.4224 4.928C48.2144 4.088 48.9944 3.38 49.7624 2.804C50.5544 2.204 51.3704 1.94 52.2104 2.012C52.2344 2.012 52.2464 2.024 52.2464 2.048C52.2704 2.048 52.2824 2.048 52.2824 2.048C52.2824 2.12 52.2344 2.204 52.1384 2.3C52.0424 2.396 51.9344 2.456 51.8144 2.48C51.1904 2.456 50.6264 2.696 50.1224 3.2C49.6184 3.704 49.1504 4.304 48.7184 5C48.5024 5.36 48.1784 5.936 47.7464 6.728C47.3144 7.496 46.8224 8.408 46.2704 9.464C45.7424 10.52 45.2024 11.636 44.6504 12.812C44.0984 13.988 43.5824 15.14 43.1024 16.268C42.6464 17.396 42.2744 18.428 41.9864 19.364C41.6984 20.276 41.5544 21.02 41.5544 21.596C41.5544 22.268 41.7824 22.604 42.2384 22.604C42.4304 22.604 42.6344 22.556 42.8504 22.46C43.1624 22.34 43.5104 22.16 43.8944 21.92C44.2784 21.68 44.6264 21.404 44.9384 21.092C45.5624 20.492 46.1144 19.88 46.5944 19.256C47.0744 18.608 47.3624 18.236 47.4584 18.14C47.5304 18.044 47.5904 17.996 47.6384 17.996C47.7344 17.996 47.7824 18.068 47.7824 18.212C47.7824 18.356 47.7344 18.488 47.6384 18.608C47.4464 18.848 47.1224 19.268 46.6664 19.868C46.2104 20.444 45.6704 21.032 45.0464 21.632C44.4464 22.232 43.7984 22.688 43.1024 23C42.8864 23.096 42.6584 23.168 42.4184 23.216C42.1784 23.288 41.9384 23.324 41.6984 23.324C41.1704 23.324 40.6904 23.168 40.2584 22.856C39.8504 22.52 39.6464 21.968 39.6464 21.2C39.6464 20.456 39.8144 19.616 40.1504 18.68C40.5104 17.72 40.9064 16.796 41.3384 15.908C41.7944 14.996 42.1664 14.228 42.4544 13.604C42.7664 12.956 43.1624 12.128 43.6424 11.12C44.1224 10.112 44.6744 9.092 45.2984 8.06L34.9304 19.004C34.9064 19.196 34.8224 19.388 34.6784 19.58C34.5344 19.748 34.3064 19.892 33.9944 20.012C33.8264 20.084 33.5984 20.276 33.3104 20.588C33.0224 20.9 32.8304 21.116 32.7344 21.236C32.7344 21.26 32.6984 21.272 32.6264 21.272C32.5544 21.272 32.4824 21.248 32.4104 21.2C32.3384 21.152 32.3144 21.116 32.3384 21.092C32.9624 20.3 33.2864 19.208 33.3104 17.816L33.3464 16.952C33.3944 15.944 33.4304 14.888 33.4544 13.784C33.4784 12.656 33.4904 11.612 33.4904 10.652C33.5144 9.668 33.5264 8.876 33.5264 8.276C33.5264 7.652 33.5264 7.34 33.5264 7.34C33.5264 6.764 33.6104 6.26 33.7784 5.828C33.9464 5.396 34.1504 5.024 34.3904 4.712C33.9824 5.024 33.5864 5.396 33.2024 5.828C32.8184 6.26 32.4944 6.74 32.2304 7.268C31.8704 8.012 31.4624 8.972 31.0064 10.148C30.5504 11.324 30.0224 12.572 29.4224 13.892C28.8464 15.212 28.1984 16.508 27.4784 17.78C26.7824 19.028 26.0024 20.108 25.1384 21.02C24.5384 21.668 23.7704 22.22 22.8344 22.676C21.9224 23.132 21.0584 23.36 20.2424 23.36ZM54.6612 9.248C54.3252 9.248 54.0852 9.14 53.9412 8.924C53.8452 8.804 53.7972 8.648 53.7972 8.456C53.7972 8.072 53.9772 7.76 54.3372 7.52C54.6012 7.376 54.8412 7.304 55.0572 7.304C55.4172 7.304 55.6692 7.412 55.8132 7.628C55.9092 7.748 55.9572 7.904 55.9572 8.096C55.9572 8.48 55.7652 8.792 55.3812 9.032C55.1652 9.176 54.9252 9.248 54.6612 9.248ZM48.3972 23.108C48.1572 23.108 47.9532 23.06 47.7852 22.964C47.6412 22.868 47.5692 22.688 47.5692 22.424C47.5692 22.088 47.6532 21.692 47.8212 21.236C48.0132 20.78 48.2172 20.324 48.4332 19.868C48.6732 19.412 48.8532 19.04 48.9732 18.752C49.1412 18.416 49.3452 17.984 49.5852 17.456C49.8492 16.904 50.0892 16.388 50.3052 15.908C50.5452 15.404 50.7132 15.056 50.8092 14.864C50.4732 15.224 50.0652 15.68 49.5852 16.232C49.1292 16.76 48.6972 17.276 48.2892 17.78C47.8812 18.284 47.5692 18.68 47.3532 18.968C47.2812 19.064 47.2212 19.112 47.1732 19.112C47.1252 19.112 47.1012 19.052 47.1012 18.932C47.1012 18.74 47.1612 18.56 47.2812 18.392C47.7372 17.816 48.2412 17.168 48.7932 16.448C49.3692 15.728 49.8852 15.068 50.3412 14.468C50.7972 13.844 51.0852 13.436 51.2052 13.244C51.4692 13.196 51.8532 13.124 52.3572 13.028C52.8852 12.932 53.2452 12.8 53.4372 12.632C53.5092 12.56 53.5812 12.524 53.6532 12.524C53.7012 12.524 53.7252 12.572 53.7252 12.668C53.7492 12.74 53.7252 12.824 53.6532 12.92C53.5092 13.088 53.2572 13.496 52.8972 14.144C52.5372 14.792 52.1532 15.512 51.7452 16.304C51.3612 17.072 51.0012 17.768 50.6652 18.392C50.3292 19.04 50.0412 19.664 49.8012 20.264C49.5612 20.864 49.4412 21.296 49.4412 21.56C49.4412 21.896 49.6092 22.064 49.9452 22.064C50.2572 22.064 50.6532 21.872 51.1332 21.488C51.6372 21.104 52.1412 20.648 52.6452 20.12C53.1492 19.568 53.5932 19.064 53.9772 18.608C54.0972 18.464 54.2412 18.296 54.4092 18.104C54.6012 17.888 54.7212 17.756 54.7692 17.708C54.8172 17.756 54.8412 17.84 54.8412 17.96C54.8172 18.128 54.7572 18.296 54.6612 18.464C54.5652 18.608 54.4692 18.74 54.3732 18.86C53.8692 19.484 53.3172 20.132 52.7172 20.804C52.1172 21.452 51.4572 22.004 50.7372 22.46C50.0172 22.892 49.2372 23.108 48.3972 23.108ZM48.769 35.6C47.857 35.6 46.981 35.384 46.141 34.952C45.277 34.544 44.641 33.908 44.233 33.044C44.089 32.732 43.993 32.396 43.945 32.036C43.897 31.7 43.873 31.364 43.873 31.028V30.632C43.873 30.44 43.897 30.26 43.945 30.092C43.993 29.948 44.113 29.876 44.305 29.876C44.377 29.876 44.413 29.9 44.413 29.948C44.413 30.092 44.401 30.236 44.377 30.38C44.329 30.524 44.305 30.68 44.305 30.848C44.305 31.952 44.665 32.792 45.385 33.368C46.081 33.944 46.957 34.232 48.013 34.232C48.445 34.232 48.889 34.184 49.345 34.088C49.801 33.992 50.233 33.86 50.641 33.692C52.153 33.044 53.473 32.132 54.601 30.956C55.729 29.78 56.713 28.448 57.553 26.96C58.393 25.472 59.137 23.948 59.785 22.388C60.481 20.684 61.141 19.004 61.765 17.348C62.413 15.668 63.133 14.024 63.925 12.416C64.669 10.928 65.461 9.812 66.301 9.068C67.141 8.324 67.981 7.952 68.821 7.952C69.037 7.952 69.241 8.012 69.433 8.132C69.649 8.252 69.745 8.444 69.721 8.708L69.649 9.716C69.649 9.788 69.601 9.824 69.505 9.824C69.505 9.824 69.493 9.824 69.469 9.824C69.469 9.824 69.469 9.812 69.469 9.788C69.469 9.5 69.361 9.308 69.145 9.212C68.953 9.092 68.761 9.032 68.569 9.032C67.753 9.032 67.021 9.32 66.373 9.896C65.749 10.448 65.197 11.168 64.717 12.056C64.237 12.944 63.829 13.88 63.493 14.864C63.157 15.824 62.881 16.712 62.665 17.528C62.833 17.384 63.133 17.084 63.565 16.628C64.021 16.172 64.549 15.68 65.149 15.152C65.749 14.624 66.361 14.168 66.985 13.784C67.609 13.4 68.185 13.208 68.713 13.208C69.025 13.208 69.205 13.352 69.253 13.64C69.325 13.904 69.337 14.156 69.289 14.396C69.169 15.284 68.869 16.244 68.389 17.276C67.909 18.308 67.285 19.292 66.517 20.228C65.773 21.14 64.933 21.884 63.997 22.46C63.085 23.036 62.125 23.324 61.117 23.324C60.997 23.324 60.829 23.312 60.613 23.288C60.421 23.288 60.301 23.264 60.253 23.216C59.749 24.728 59.101 26.276 58.309 27.86C57.517 29.444 56.569 30.872 55.465 32.144C54.337 33.44 53.005 34.412 51.469 35.06C50.653 35.42 49.753 35.6 48.769 35.6ZM61.657 22.712C62.017 22.712 62.425 22.568 62.881 22.28C63.361 21.968 63.721 21.692 63.961 21.452C64.249 21.188 64.585 20.78 64.969 20.228C65.377 19.652 65.773 19.028 66.157 18.356C66.565 17.684 66.901 17.036 67.165 16.412C67.429 15.788 67.561 15.284 67.561 14.9C67.561 14.78 67.537 14.672 67.489 14.576C67.441 14.48 67.357 14.432 67.237 14.432C67.021 14.432 66.733 14.564 66.373 14.828C66.013 15.092 65.629 15.416 65.221 15.8C64.837 16.16 64.477 16.52 64.141 16.88C63.805 17.216 63.565 17.468 63.421 17.636C63.181 17.924 62.857 18.344 62.449 18.896C62.041 19.448 61.681 20.012 61.369 20.588C61.057 21.14 60.901 21.608 60.901 21.992C60.901 22.472 61.153 22.712 61.657 22.712ZM71.7328 23.072C71.0128 23.072 70.5208 22.904 70.2568 22.568C69.9928 22.208 69.8608 21.776 69.8608 21.272C69.8608 20.6 70.0048 19.88 70.2928 19.112C70.6048 18.344 70.8568 17.744 71.0488 17.312C70.7368 17.648 70.4368 17.972 70.1488 18.284C69.8608 18.596 69.6568 18.824 69.5368 18.968C69.4648 19.064 69.4048 19.112 69.3568 19.112C69.3088 19.112 69.2848 19.052 69.2848 18.932C69.2848 18.74 69.3448 18.56 69.4648 18.392C69.8008 17.96 70.1848 17.504 70.6168 17.024C71.0488 16.544 71.4688 16.04 71.8768 15.512C72.3568 14.624 72.8848 13.592 73.4608 12.416C74.0608 11.216 74.6728 9.992 75.2968 8.744C75.9448 7.472 76.5688 6.308 77.1688 5.252C77.7928 4.172 78.3448 3.308 78.8248 2.66C79.2328 2.492 79.6168 2.276 79.9768 2.012C80.3608 1.748 80.7328 1.508 81.0928 1.292C81.4768 1.052 81.8728 0.931999 82.2808 0.931999C82.5448 0.931999 82.7368 1.004 82.8568 1.148C83.0008 1.292 83.0968 1.46 83.1448 1.652C83.1688 1.724 83.1808 1.856 83.1808 2.048C83.1808 2.6 82.9888 3.272 82.6048 4.064C82.2448 4.856 81.8128 5.636 81.3088 6.404C80.8288 7.148 80.4088 7.76 80.0488 8.24C79.0888 9.584 78.1048 10.808 77.0968 11.912C76.0888 12.992 75.1768 13.904 74.3608 14.648C73.5688 15.368 72.9928 15.896 72.6328 16.232C72.4648 16.544 72.2608 16.964 72.0208 17.492C71.8048 17.996 71.6128 18.536 71.4448 19.112C71.2768 19.664 71.1928 20.18 71.1928 20.66C71.1928 21.068 71.2888 21.416 71.4808 21.704C71.6728 21.968 71.9968 22.1 72.4528 22.1C72.5248 22.1 72.5968 22.1 72.6688 22.1C72.7408 22.1 72.8248 22.088 72.9208 22.064C73.3288 21.992 73.7728 21.764 74.2528 21.38C74.7328 20.996 75.2128 20.552 75.6928 20.048C76.1728 19.544 76.6048 19.064 76.9888 18.608C77.1568 18.416 77.3128 18.236 77.4568 18.068C77.6008 17.876 77.6968 17.744 77.7448 17.672C77.9128 17.84 77.9008 18.056 77.7088 18.32C77.5408 18.56 77.3968 18.764 77.2768 18.932C77.1088 19.148 76.8688 19.448 76.5568 19.832C76.2448 20.192 75.8848 20.588 75.4768 21.02C75.0208 21.476 74.4568 21.932 73.7848 22.388C73.1128 22.844 72.4288 23.072 71.7328 23.072ZM73.2448 14.792C73.9888 14.168 74.9248 13.28 76.0528 12.128C77.2048 10.952 78.3328 9.536 79.4368 7.88C79.5568 7.688 79.7488 7.364 80.0128 6.908C80.3008 6.452 80.5888 5.936 80.8768 5.36C81.1888 4.76 81.4528 4.184 81.6688 3.632C81.8848 3.056 81.9928 2.564 81.9928 2.156C81.9928 1.772 81.8848 1.58 81.6688 1.58C81.4048 1.58 81.0568 1.808 80.6248 2.264C80.1208 2.792 79.5448 3.572 78.8968 4.604C78.2728 5.612 77.6128 6.74 76.9168 7.988C76.2208 9.236 75.5488 10.46 74.9008 11.66C74.2768 12.86 73.7248 13.904 73.2448 14.792ZM81.952 23.108C81.712 23.108 81.508 23.06 81.34 22.964C81.172 22.868 81.088 22.688 81.088 22.424C81.088 22.088 81.172 21.704 81.34 21.272C81.508 20.84 81.7 20.42 81.916 20.012C82.132 19.58 82.324 19.232 82.492 18.968C81.652 19.856 80.776 20.696 79.864 21.488C79.408 21.872 78.904 22.232 78.352 22.568C77.8 22.904 77.212 23.072 76.588 23.072C76.348 23.072 76.18 23 76.084 22.856C75.988 22.688 75.94 22.496 75.94 22.28C75.94 22.16 75.952 22.076 75.976 22.028C76.096 21.092 76.396 20.12 76.876 19.112C77.356 18.104 77.944 17.156 78.64 16.268C79.336 15.38 80.044 14.66 80.764 14.108C81.58 13.484 82.48 13.172 83.464 13.172H87.604C87.724 13.172 87.784 13.22 87.784 13.316C87.784 13.508 87.676 13.604 87.46 13.604C87.22 13.604 86.98 13.76 86.74 14.072C86.5 14.36 86.32 14.6 86.2 14.792C86.032 15.056 85.768 15.5 85.408 16.124C85.048 16.748 84.676 17.432 84.292 18.176C83.932 18.896 83.62 19.568 83.356 20.192C83.092 20.816 82.96 21.272 82.96 21.56C82.96 21.896 83.128 22.064 83.464 22.064C83.824 22.064 84.232 21.896 84.688 21.56C85.144 21.224 85.6 20.816 86.056 20.336C86.536 19.832 86.968 19.34 87.352 18.86C87.76 18.356 88.084 17.96 88.324 17.672C88.468 17.816 88.456 18.02 88.288 18.284C88.144 18.524 88.012 18.716 87.892 18.86C87.412 19.484 86.86 20.132 86.236 20.804C85.612 21.452 84.928 22.004 84.184 22.46C83.464 22.892 82.72 23.108 81.952 23.108ZM78.064 21.848C78.352 21.848 78.748 21.644 79.252 21.236C79.78 20.804 80.344 20.276 80.944 19.652C81.544 19.004 82.108 18.332 82.636 17.636C83.164 16.916 83.596 16.268 83.932 15.692C84.292 15.092 84.472 14.636 84.472 14.324C84.472 14.06 84.388 13.88 84.22 13.784C84.076 13.688 83.884 13.64 83.644 13.64C83.26 13.64 82.84 13.784 82.384 14.072C81.952 14.336 81.604 14.6 81.34 14.864C81.052 15.128 80.704 15.548 80.296 16.124C79.912 16.676 79.528 17.288 79.144 17.96C78.76 18.632 78.436 19.28 78.172 19.904C77.908 20.528 77.776 21.032 77.776 21.416C77.776 21.704 77.872 21.848 78.064 21.848ZM87.8541 23.54C87.7581 23.54 87.7581 23.432 87.8541 23.216C87.9741 23 88.0821 22.76 88.1781 22.496C88.2981 22.232 88.4181 21.944 88.5381 21.632C88.7781 21.056 89.0421 20.408 89.3301 19.688C89.6181 18.968 89.8941 18.272 90.1581 17.6C90.4221 16.904 90.6501 16.316 90.8421 15.836C91.0581 15.332 91.2021 15.008 91.2741 14.864C90.9381 15.224 90.5301 15.68 90.0501 16.232C89.5941 16.76 89.1621 17.276 88.7541 17.78C88.3461 18.284 88.0341 18.68 87.8181 18.968C87.7461 19.064 87.6861 19.112 87.6381 19.112C87.5901 19.112 87.5661 19.052 87.5661 18.932C87.5661 18.74 87.6261 18.56 87.7461 18.392C88.2021 17.816 88.7061 17.168 89.2581 16.448C89.8341 15.728 90.3501 15.068 90.8061 14.468C91.2621 13.844 91.5501 13.436 91.6701 13.244C91.9341 13.196 92.3181 13.124 92.8221 13.028C93.3501 12.932 93.7101 12.8 93.9021 12.632C93.9741 12.56 94.0461 12.524 94.1181 12.524C94.1661 12.524 94.1901 12.572 94.1901 12.668C94.2141 12.74 94.1901 12.824 94.1181 12.92C93.9741 13.088 93.7221 13.484 93.3621 14.108C93.0261 14.708 92.6541 15.38 92.2461 16.124C91.8621 16.868 91.5021 17.54 91.1661 18.14C91.4541 17.756 91.7661 17.384 92.1021 17.024C92.4381 16.664 92.7621 16.316 93.0741 15.98C93.3621 15.692 93.7581 15.332 94.2621 14.9C94.7661 14.468 95.2941 14.072 95.8461 13.712C96.3981 13.352 96.8781 13.148 97.2861 13.1C97.3821 13.076 97.4661 13.064 97.5381 13.064C97.6341 13.064 97.7061 13.064 97.7541 13.064C98.2821 13.064 98.5461 13.256 98.5461 13.64C98.5461 13.928 98.3901 14.312 98.0781 14.792C97.9101 15.056 97.6461 15.5 97.2861 16.124C96.9501 16.724 96.6021 17.384 96.2421 18.104C95.9061 18.8 95.6061 19.46 95.3421 20.084C95.1021 20.684 94.9821 21.128 94.9821 21.416C94.9821 21.752 95.1501 21.92 95.4861 21.92C95.8941 21.92 96.3381 21.716 96.8181 21.308C97.3221 20.9 97.8621 20.384 98.4381 19.76C99.0141 19.112 99.5901 18.428 100.166 17.708C100.214 17.756 100.238 17.84 100.238 17.96C100.238 18.128 100.178 18.296 100.058 18.464C99.9621 18.608 99.8661 18.74 99.7701 18.86C99.5301 19.172 99.2061 19.568 98.7981 20.048C98.4141 20.504 98.0181 20.96 97.6101 21.416C97.2021 21.848 96.8301 22.196 96.4941 22.46C96.2541 22.628 95.9421 22.808 95.5581 23C95.1741 23.192 94.7901 23.288 94.4061 23.288C93.9741 23.288 93.6741 23.18 93.5061 22.964C93.3381 22.724 93.2541 22.436 93.2541 22.1C93.2541 21.716 93.3261 21.308 93.4701 20.876C93.6141 20.444 93.7701 20.036 93.9381 19.652C94.1301 19.244 94.2741 18.944 94.3701 18.752C94.8021 17.912 95.1981 17.12 95.5581 16.376C95.9181 15.632 96.1701 15.104 96.3141 14.792C96.3861 14.648 96.4221 14.528 96.4221 14.432C96.4221 14.264 96.2901 14.252 96.0261 14.396C95.7621 14.54 95.4381 14.756 95.0541 15.044C94.6941 15.332 94.3581 15.62 94.0461 15.908C93.7341 16.172 93.5301 16.352 93.4341 16.448C92.5461 17.384 91.7661 18.428 91.0941 19.58C90.4461 20.708 89.8941 21.872 89.4381 23.072C89.1261 23.096 88.8141 23.18 88.5021 23.324C88.1901 23.468 87.9741 23.54 87.8541 23.54ZM97.2509 31.136C96.3149 31.136 95.5349 30.98 94.9109 30.668C94.2629 30.38 93.8309 29.936 93.6149 29.336C93.5909 29.264 93.5789 29.192 93.5789 29.12C93.5549 29.048 93.5429 28.964 93.5429 28.868C93.5429 28.508 93.6269 28.1 93.7949 27.644C93.9629 27.212 94.1429 26.744 94.3349 26.24C94.4069 26.096 94.4909 26.024 94.5869 26.024C94.7549 26.024 94.8029 26.144 94.7309 26.384C94.5629 26.744 94.4789 27.128 94.4789 27.536C94.4789 28.376 94.8509 29.048 95.5949 29.552C96.3149 30.08 97.1429 30.344 98.0789 30.344C98.7989 30.344 99.4949 30.176 100.167 29.84C101.295 29.264 102.219 28.472 102.939 27.464C103.659 26.456 104.295 25.436 104.847 24.404C105.687 22.796 106.407 21.116 107.007 19.364C107.631 17.588 108.291 15.836 108.987 14.108H108.159C108.039 14.108 107.907 14.12 107.763 14.144C107.619 14.168 107.487 14.192 107.367 14.216L107.295 14.18C107.343 13.916 107.571 13.688 107.979 13.496C108.411 13.28 108.747 13.172 108.987 13.172H109.419C109.779 12.308 110.199 11.36 110.679 10.328C111.183 9.296 111.723 8.264 112.299 7.232C112.875 6.176 113.499 5.216 114.171 4.352C114.867 3.488 115.587 2.804 116.331 2.3C117.555 1.436 118.911 1.004 120.399 1.004C120.687 1.004 120.963 1.1 121.227 1.292C121.515 1.46 121.647 1.724 121.623 2.084L121.515 3.38C121.515 3.428 121.479 3.464 121.407 3.488C121.335 3.512 121.287 3.5 121.263 3.452C121.167 2.972 120.903 2.624 120.471 2.408C120.063 2.168 119.583 2.048 119.031 2.048C118.143 2.048 117.327 2.336 116.583 2.912C115.863 3.488 115.083 4.556 114.243 6.116C113.931 6.716 113.583 7.424 113.199 8.24C112.839 9.056 112.479 9.896 112.119 10.76C111.759 11.624 111.411 12.428 111.075 13.172H113.667C113.835 13.172 114.003 13.172 114.171 13.172C114.363 13.148 114.543 13.124 114.711 13.1C114.711 13.196 114.639 13.292 114.495 13.388C114.375 13.46 114.267 13.52 114.171 13.568C113.571 13.88 113.007 14.06 112.479 14.108C111.951 14.132 111.351 14.132 110.679 14.108C110.151 15.428 109.647 16.688 109.167 17.888C108.711 19.064 108.207 20.216 107.655 21.344C107.199 22.352 106.635 23.42 105.963 24.548C105.291 25.676 104.523 26.744 103.659 27.752C102.795 28.76 101.835 29.576 100.779 30.2C99.6989 30.824 98.5229 31.136 97.2509 31.136ZM117.038 23.108C116.798 23.108 116.594 23.06 116.426 22.964C116.258 22.868 116.174 22.688 116.174 22.424C116.174 22.088 116.258 21.704 116.426 21.272C116.594 20.84 116.786 20.42 117.002 20.012C117.218 19.58 117.41 19.232 117.578 18.968C116.738 19.856 115.862 20.696 114.95 21.488C114.494 21.872 113.99 22.232 113.438 22.568C112.886 22.904 112.298 23.072 111.674 23.072C111.434 23.072 111.266 23 111.17 22.856C111.074 22.688 111.026 22.496 111.026 22.28C111.026 22.16 111.038 22.076 111.062 22.028C111.182 21.092 111.482 20.12 111.962 19.112C112.442 18.104 113.03 17.156 113.726 16.268C114.422 15.38 115.13 14.66 115.85 14.108C116.666 13.484 117.566 13.172 118.55 13.172H122.69C122.81 13.172 122.87 13.22 122.87 13.316C122.87 13.508 122.762 13.604 122.546 13.604C122.306 13.604 122.066 13.76 121.826 14.072C121.586 14.36 121.406 14.6 121.286 14.792C121.118 15.056 120.854 15.5 120.494 16.124C120.134 16.748 119.762 17.432 119.378 18.176C119.018 18.896 118.706 19.568 118.442 20.192C118.178 20.816 118.046 21.272 118.046 21.56C118.046 21.896 118.214 22.064 118.55 22.064C118.91 22.064 119.318 21.896 119.774 21.56C120.23 21.224 120.686 20.816 121.142 20.336C121.622 19.832 122.054 19.34 122.438 18.86C122.846 18.356 123.17 17.96 123.41 17.672C123.554 17.816 123.542 18.02 123.374 18.284C123.23 18.524 123.098 18.716 122.978 18.86C122.498 19.484 121.946 20.132 121.322 20.804C120.698 21.452 120.014 22.004 119.27 22.46C118.55 22.892 117.806 23.108 117.038 23.108ZM113.15 21.848C113.438 21.848 113.834 21.644 114.338 21.236C114.866 20.804 115.43 20.276 116.03 19.652C116.63 19.004 117.194 18.332 117.722 17.636C118.25 16.916 118.682 16.268 119.018 15.692C119.378 15.092 119.558 14.636 119.558 14.324C119.558 14.06 119.474 13.88 119.306 13.784C119.162 13.688 118.97 13.64 118.73 13.64C118.346 13.64 117.926 13.784 117.47 14.072C117.038 14.336 116.69 14.6 116.426 14.864C116.138 15.128 115.79 15.548 115.382 16.124C114.998 16.676 114.614 17.288 114.23 17.96C113.846 18.632 113.522 19.28 113.258 19.904C112.994 20.528 112.862 21.032 112.862 21.416C112.862 21.704 112.958 21.848 113.15 21.848ZM125.676 23.216C125.34 23.216 125.052 23.096 124.812 22.856C124.572 22.616 124.452 22.196 124.452 21.596C124.452 21.068 124.488 20.444 124.56 19.724C124.656 19.004 124.788 18.272 124.956 17.528C125.124 16.76 125.316 16.088 125.532 15.512C125.124 16.112 124.668 16.736 124.164 17.384C123.66 18.008 123.24 18.536 122.904 18.968C122.832 19.064 122.772 19.112 122.724 19.112C122.676 19.112 122.652 19.052 122.652 18.932C122.652 18.74 122.712 18.56 122.832 18.392C123.336 17.696 123.9 16.904 124.524 16.016C125.172 15.128 125.724 14.324 126.18 13.604C126.444 13.556 126.756 13.484 127.116 13.388C127.5 13.292 127.776 13.16 127.944 12.992C128.064 12.92 128.136 12.884 128.16 12.884C128.232 12.884 128.268 12.932 128.268 13.028C128.268 13.1 128.232 13.184 128.16 13.28C127.944 13.592 127.704 14.072 127.44 14.72C127.2 15.368 126.948 16.088 126.684 16.88C126.444 17.672 126.24 18.452 126.072 19.22C125.928 19.964 125.856 20.6 125.856 21.128C125.856 21.512 125.916 21.788 126.036 21.956C126.156 22.1 126.312 22.172 126.504 22.172C126.768 22.172 127.08 22.04 127.44 21.776C127.824 21.512 128.148 21.236 128.412 20.948C128.748 20.588 129.12 20.108 129.528 19.508C129.96 18.908 130.356 18.272 130.716 17.6C131.1 16.928 131.388 16.316 131.58 15.764C131.724 15.38 131.82 15.056 131.868 14.792C131.916 14.504 131.94 14.276 131.94 14.108C131.94 13.82 131.904 13.616 131.832 13.496C131.76 13.376 131.7 13.304 131.652 13.28C131.508 13.232 131.436 13.172 131.436 13.1C131.436 13.052 131.484 13.016 131.58 12.992C131.676 12.944 131.772 12.944 131.868 12.992C132.18 13.088 132.492 13.232 132.804 13.424C133.116 13.592 133.272 13.928 133.272 14.432C133.272 14.552 133.26 14.696 133.236 14.864C133.212 15.008 133.164 15.176 133.092 15.368C132.948 15.752 132.648 16.292 132.192 16.988C131.76 17.684 131.256 18.416 130.68 19.184C130.104 19.952 129.528 20.648 128.952 21.272C128.376 21.896 127.872 22.34 127.44 22.604C127.152 22.772 126.852 22.916 126.54 23.036C126.228 23.156 125.94 23.216 125.676 23.216ZM133.882 23.072C133.498 23.072 133.15 23 132.838 22.856C132.55 22.688 132.406 22.34 132.406 21.812C132.406 20.972 132.622 20.132 133.054 19.292C133.486 18.428 133.93 17.672 134.386 17.024C134.794 16.472 135.25 15.956 135.754 15.476C136.282 14.972 136.846 14.54 137.446 14.18C137.83 13.94 138.346 13.688 138.994 13.424C139.666 13.136 140.23 12.992 140.686 12.992C141.07 12.992 141.406 13.1 141.694 13.316C141.982 13.508 142.126 13.868 142.126 14.396C142.126 15.212 141.91 16.052 141.478 16.916C141.07 17.756 140.638 18.5 140.182 19.148C139.966 19.436 139.75 19.712 139.534 19.976C139.318 20.216 139.078 20.468 138.814 20.732C139.702 20.732 140.518 20.48 141.262 19.976C142.006 19.448 142.654 18.812 143.206 18.068L143.278 17.996C143.35 17.996 143.386 18.068 143.386 18.212C143.386 18.38 143.338 18.536 143.242 18.68C142.762 19.352 142.162 19.952 141.442 20.48C140.722 20.984 139.906 21.236 138.994 21.236C138.898 21.236 138.802 21.236 138.706 21.236C138.61 21.236 138.514 21.224 138.418 21.2C137.074 22.448 135.562 23.072 133.882 23.072ZM134.818 22.46C135.154 22.46 135.514 22.34 135.898 22.1C136.306 21.86 136.618 21.632 136.834 21.416C137.242 21.008 137.614 20.576 137.95 20.12C138.286 19.64 138.598 19.16 138.886 18.68C139.222 18.104 139.558 17.42 139.894 16.628C140.23 15.836 140.398 15.092 140.398 14.396C140.398 13.844 140.206 13.568 139.822 13.568C139.51 13.568 139.126 13.7 138.67 13.964C138.238 14.228 137.914 14.468 137.698 14.684C136.882 15.524 136.198 16.436 135.646 17.42C135.334 17.972 134.998 18.62 134.638 19.364C134.278 20.108 134.098 20.792 134.098 21.416C134.098 21.512 134.098 21.608 134.098 21.704C134.122 21.776 134.146 21.86 134.17 21.956C134.266 22.292 134.482 22.46 134.818 22.46ZM143.049 23.504C142.953 23.504 142.953 23.408 143.049 23.216C143.169 23 143.277 22.76 143.373 22.496C143.493 22.232 143.613 21.944 143.733 21.632C143.973 21.056 144.237 20.408 144.525 19.688C144.813 18.968 145.089 18.272 145.353 17.6C145.617 16.904 145.845 16.316 146.037 15.836C146.253 15.332 146.397 15.008 146.469 14.864C146.133 15.224 145.725 15.68 145.245 16.232C144.789 16.76 144.357 17.276 143.949 17.78C143.541 18.284 143.229 18.68 143.013 18.968C142.941 19.064 142.881 19.112 142.833 19.112C142.785 19.112 142.761 19.052 142.761 18.932C142.761 18.74 142.821 18.56 142.941 18.392C143.397 17.816 143.901 17.168 144.453 16.448C145.029 15.728 145.545 15.068 146.001 14.468C146.457 13.844 146.745 13.436 146.865 13.244C147.129 13.196 147.513 13.124 148.017 13.028C148.545 12.932 148.905 12.8 149.097 12.632C149.169 12.56 149.241 12.524 149.313 12.524C149.361 12.524 149.385 12.572 149.385 12.668C149.409 12.74 149.385 12.824 149.313 12.92C149.169 13.064 148.953 13.376 148.665 13.856C148.401 14.336 148.101 14.888 147.765 15.512C147.429 16.136 147.105 16.736 146.793 17.312C147.033 16.952 147.345 16.532 147.729 16.052C148.137 15.548 148.581 15.068 149.061 14.612C149.541 14.132 150.021 13.736 150.501 13.424C151.005 13.112 151.473 12.956 151.905 12.956C152.217 12.956 152.481 13.028 152.697 13.172C152.913 13.292 153.081 13.52 153.201 13.856C153.273 14.024 153.309 14.216 153.309 14.432C153.309 14.84 153.201 15.236 152.985 15.62C152.793 15.98 152.649 16.256 152.553 16.448C152.529 16.52 152.445 16.592 152.301 16.664C152.157 16.712 152.097 16.688 152.121 16.592C152.145 16.472 152.157 16.352 152.157 16.232C152.181 16.112 152.193 15.98 152.193 15.836C152.193 15.428 152.109 15.056 151.941 14.72C151.797 14.384 151.521 14.216 151.113 14.216C150.729 14.216 150.261 14.456 149.709 14.936C149.157 15.416 148.605 15.968 148.053 16.592C147.357 17.408 146.805 18.188 146.397 18.932C145.989 19.652 145.653 20.36 145.389 21.056C145.245 21.44 145.101 21.824 144.957 22.208C144.813 22.568 144.705 22.856 144.633 23.072C144.321 23.096 144.009 23.168 143.697 23.288C143.385 23.432 143.169 23.504 143.049 23.504ZM160.13 9.248C159.794 9.248 159.554 9.14 159.41 8.924C159.314 8.804 159.266 8.648 159.266 8.456C159.266 8.072 159.446 7.76 159.806 7.52C160.07 7.376 160.31 7.304 160.526 7.304C160.886 7.304 161.138 7.412 161.282 7.628C161.378 7.748 161.426 7.904 161.426 8.096C161.426 8.48 161.234 8.792 160.85 9.032C160.634 9.176 160.394 9.248 160.13 9.248ZM153.866 23.108C153.626 23.108 153.422 23.06 153.254 22.964C153.11 22.868 153.038 22.688 153.038 22.424C153.038 22.088 153.122 21.692 153.29 21.236C153.482 20.78 153.686 20.324 153.902 19.868C154.142 19.412 154.322 19.04 154.442 18.752C154.61 18.416 154.814 17.984 155.054 17.456C155.318 16.904 155.558 16.388 155.774 15.908C156.014 15.404 156.182 15.056 156.278 14.864C155.942 15.224 155.534 15.68 155.054 16.232C154.598 16.76 154.166 17.276 153.758 17.78C153.35 18.284 153.038 18.68 152.822 18.968C152.75 19.064 152.69 19.112 152.642 19.112C152.594 19.112 152.57 19.052 152.57 18.932C152.57 18.74 152.63 18.56 152.75 18.392C153.206 17.816 153.71 17.168 154.262 16.448C154.838 15.728 155.354 15.068 155.81 14.468C156.266 13.844 156.554 13.436 156.674 13.244C156.938 13.196 157.322 13.124 157.826 13.028C158.354 12.932 158.714 12.8 158.906 12.632C158.978 12.56 159.05 12.524 159.122 12.524C159.17 12.524 159.194 12.572 159.194 12.668C159.218 12.74 159.194 12.824 159.122 12.92C158.978 13.088 158.726 13.496 158.366 14.144C158.006 14.792 157.622 15.512 157.214 16.304C156.83 17.072 156.47 17.768 156.134 18.392C155.798 19.04 155.51 19.664 155.27 20.264C155.03 20.864 154.91 21.296 154.91 21.56C154.91 21.896 155.078 22.064 155.414 22.064C155.726 22.064 156.122 21.872 156.602 21.488C157.106 21.104 157.61 20.648 158.114 20.12C158.618 19.568 159.062 19.064 159.446 18.608C159.566 18.464 159.71 18.296 159.878 18.104C160.07 17.888 160.19 17.756 160.238 17.708C160.286 17.756 160.31 17.84 160.31 17.96C160.286 18.128 160.226 18.296 160.13 18.464C160.034 18.608 159.938 18.74 159.842 18.86C159.338 19.484 158.786 20.132 158.186 20.804C157.586 21.452 156.926 22.004 156.206 22.46C155.486 22.892 154.706 23.108 153.866 23.108ZM161.008 23.108C160.768 23.108 160.564 23.06 160.396 22.964C160.228 22.868 160.144 22.688 160.144 22.424C160.144 22.088 160.228 21.692 160.396 21.236C160.588 20.78 160.792 20.324 161.008 19.868C161.224 19.412 161.404 19.04 161.548 18.752C161.668 18.536 161.824 18.2 162.016 17.744C162.232 17.264 162.448 16.772 162.664 16.268C162.904 15.74 163.096 15.296 163.24 14.936C163.408 14.576 163.492 14.396 163.492 14.396C163.276 14.636 162.988 14.972 162.628 15.404C162.292 15.836 161.92 16.292 161.512 16.772C161.128 17.228 160.768 17.66 160.432 18.068C160.12 18.476 159.892 18.776 159.748 18.968C159.676 19.064 159.616 19.112 159.568 19.112C159.52 19.112 159.496 19.052 159.496 18.932C159.496 18.74 159.556 18.56 159.676 18.392C159.964 18.032 160.312 17.6 160.72 17.096C161.128 16.568 161.536 16.04 161.944 15.512C162.376 14.984 162.748 14.516 163.06 14.108C162.868 14.108 162.616 14.12 162.304 14.144C162.016 14.168 161.752 14.204 161.512 14.252C161.272 14.276 161.14 14.288 161.116 14.288C160.996 14.288 161.008 14.192 161.152 14C161.296 13.808 161.488 13.616 161.728 13.424C161.968 13.232 162.148 13.136 162.268 13.136C162.292 13.136 162.484 13.148 162.844 13.172C163.204 13.172 163.468 13.172 163.636 13.172C164.116 12.524 164.584 11.78 165.04 10.94C165.52 10.1 165.988 9.176 166.444 8.168C166.636 8.144 166.96 8.012 167.416 7.772C167.896 7.508 168.268 7.244 168.532 6.98C168.652 6.86 168.748 6.8 168.82 6.8C168.964 6.8 168.964 6.896 168.82 7.088C168.652 7.28 168.364 7.688 167.956 8.312C167.548 8.912 167.092 9.644 166.588 10.508C166.084 11.348 165.604 12.236 165.148 13.172H168.064C168.328 13.172 168.46 13.208 168.46 13.28C168.46 13.376 168.28 13.472 167.92 13.568C167.512 13.688 167.08 13.76 166.624 13.784C166.192 13.808 165.784 13.856 165.4 13.928C165.04 14 164.776 14.156 164.608 14.396C164.464 14.564 164.26 14.924 163.996 15.476C163.732 16.028 163.444 16.664 163.132 17.384C162.844 18.08 162.592 18.788 162.376 19.508C162.16 20.204 162.028 20.792 161.98 21.272V21.416C161.98 21.608 162.04 21.764 162.16 21.884C162.28 22.004 162.4 22.064 162.52 22.064C162.832 22.064 163.228 21.872 163.708 21.488C164.212 21.104 164.728 20.648 165.256 20.12C165.784 19.568 166.24 19.064 166.624 18.608C166.792 18.416 166.936 18.236 167.056 18.068C167.2 17.9 167.284 17.792 167.308 17.744C167.356 17.84 167.38 17.912 167.38 17.96C167.38 18.104 167.332 18.26 167.236 18.428C167.164 18.596 167.08 18.74 166.984 18.86C166.528 19.46 165.976 20.096 165.328 20.768C164.68 21.416 163.984 21.968 163.24 22.424C162.52 22.88 161.776 23.108 161.008 23.108ZM167.28 23.072C166.896 23.072 166.548 23 166.236 22.856C165.948 22.688 165.804 22.34 165.804 21.812C165.804 20.972 166.02 20.132 166.452 19.292C166.884 18.428 167.328 17.672 167.784 17.024C168.192 16.472 168.648 15.956 169.152 15.476C169.68 14.972 170.244 14.54 170.844 14.18C171.228 13.94 171.744 13.688 172.392 13.424C173.064 13.136 173.628 12.992 174.084 12.992C174.468 12.992 174.804 13.1 175.092 13.316C175.38 13.508 175.524 13.868 175.524 14.396C175.524 15.212 175.308 16.052 174.876 16.916C174.468 17.756 174.036 18.5 173.58 19.148C173.364 19.436 173.148 19.712 172.932 19.976C172.716 20.216 172.476 20.468 172.212 20.732C173.1 20.732 173.916 20.48 174.66 19.976C175.404 19.448 176.052 18.812 176.604 18.068L176.676 17.996C176.748 17.996 176.784 18.068 176.784 18.212C176.784 18.38 176.736 18.536 176.64 18.68C176.16 19.352 175.56 19.952 174.84 20.48C174.12 20.984 173.304 21.236 172.392 21.236C172.296 21.236 172.2 21.236 172.104 21.236C172.008 21.236 171.912 21.224 171.816 21.2C170.472 22.448 168.96 23.072 167.28 23.072ZM168.216 22.46C168.552 22.46 168.912 22.34 169.296 22.1C169.704 21.86 170.016 21.632 170.232 21.416C170.64 21.008 171.012 20.576 171.348 20.12C171.684 19.64 171.996 19.16 172.284 18.68C172.62 18.104 172.956 17.42 173.292 16.628C173.628 15.836 173.796 15.092 173.796 14.396C173.796 13.844 173.604 13.568 173.22 13.568C172.908 13.568 172.524 13.7 172.068 13.964C171.636 14.228 171.312 14.468 171.096 14.684C170.28 15.524 169.596 16.436 169.044 17.42C168.732 17.972 168.396 18.62 168.036 19.364C167.676 20.108 167.496 20.792 167.496 21.416C167.496 21.512 167.496 21.608 167.496 21.704C167.52 21.776 167.544 21.86 167.568 21.956C167.664 22.292 167.88 22.46 168.216 22.46ZM181.488 18.86C180.888 18.212 180.588 17.432 180.588 16.52C180.588 15.896 180.792 15.284 181.2 14.684C181.632 14.084 182.088 13.592 182.568 13.208L188.544 8.456C189.024 8.048 189.384 7.604 189.624 7.124C189.864 6.644 189.984 6.176 189.984 5.72C189.984 5.264 189.864 4.844 189.624 4.46C189.408 4.076 189.072 3.788 188.616 3.596C188.256 3.428 187.788 3.344 187.212 3.344C186.708 3.344 186.192 3.416 185.664 3.56C185.16 3.704 184.716 3.908 184.332 4.172C184.116 4.316 183.864 4.592 183.576 5C183.312 5.384 183.06 5.804 182.82 6.26C182.604 6.716 182.448 7.148 182.352 7.556C182.352 7.772 182.22 7.94 181.956 8.06C181.716 8.18 181.608 8.12 181.632 7.88C181.728 7.52 181.824 7.1 181.92 6.62C182.016 6.14 182.1 5.672 182.172 5.216C182.244 4.76 182.28 4.424 182.28 4.208C182.28 3.944 182.376 3.728 182.568 3.56C182.76 3.392 182.928 3.272 183.072 3.2C183.36 3.056 183.852 2.924 184.548 2.804C185.244 2.66 185.868 2.576 186.42 2.552L187.428 2.48C187.62 2.456 187.788 2.444 187.932 2.444C188.1 2.444 188.268 2.444 188.436 2.444C189.66 2.444 190.608 2.684 191.28 3.164C191.952 3.62 192.288 4.352 192.288 5.36C192.288 5.48 192.288 5.624 192.288 5.792C192.288 5.936 192.264 6.092 192.216 6.26C192.048 7.22 191.676 8.012 191.1 8.636C190.548 9.26 189.888 9.788 189.12 10.22C188.352 10.628 187.548 11.024 186.708 11.408C185.892 11.792 185.112 12.224 184.368 12.704C183.648 13.184 183.048 13.784 182.568 14.504C182.256 15.008 182.004 15.5 181.812 15.98C181.62 16.436 181.524 16.856 181.524 17.24C181.524 17.696 181.644 18.056 181.884 18.32L181.488 18.86ZM179.976 23.216C179.712 23.216 179.46 23.132 179.22 22.964C178.98 22.772 178.788 22.592 178.644 22.424C178.62 22.376 178.704 22.28 178.896 22.136C179.112 21.968 179.34 21.812 179.58 21.668C179.844 21.524 179.988 21.464 180.012 21.488C180.204 21.584 180.396 21.692 180.588 21.812C180.78 21.908 180.984 21.944 181.2 21.92H181.344C181.464 21.92 181.524 21.956 181.524 22.028C181.524 22.1 181.44 22.22 181.272 22.388C181.056 22.556 180.828 22.736 180.588 22.928C180.372 23.12 180.168 23.216 179.976 23.216ZM8.928 69.044C7.656 69.044 6.432 68.852 5.256 68.468C4.104 68.108 3.168 67.496 2.448 66.632C1.728 65.768 1.368 64.604 1.368 63.14C1.368 61.58 1.668 60.056 2.268 58.568C2.868 57.08 3.672 55.7 4.68 54.428C5.688 53.132 6.816 52.016 8.064 51.08C9.168 50.24 10.44 49.556 11.88 49.028C13.344 48.5 14.796 48.236 16.236 48.236C16.836 48.236 17.4 48.284 17.928 48.38C18.456 48.452 18.996 48.62 19.548 48.884C20.028 49.1 20.412 49.376 20.7 49.712C20.988 50.024 21.132 50.384 21.132 50.792C21.132 50.84 21.132 50.9 21.132 50.972C21.132 51.044 21.12 51.104 21.096 51.152C21 51.536 20.772 51.98 20.412 52.484C20.076 52.964 19.812 53.468 19.62 53.996C19.596 54.092 19.464 54.176 19.224 54.248C18.984 54.296 18.888 54.272 18.936 54.176C19.128 53.864 19.272 53.48 19.368 53.024C19.488 52.568 19.548 52.112 19.548 51.656C19.548 51.32 19.512 51.008 19.44 50.72C19.392 50.408 19.296 50.144 19.152 49.928C18.912 49.496 18.54 49.196 18.036 49.028C17.532 48.86 16.992 48.776 16.416 48.776C15.864 48.776 15.312 48.836 14.76 48.956C14.208 49.076 13.728 49.208 13.32 49.352C11.928 49.856 10.596 50.648 9.324 51.728C8.196 52.712 7.188 53.852 6.3 55.148C5.436 56.444 4.752 57.776 4.248 59.144C3.744 60.512 3.492 61.82 3.492 63.068C3.492 64.34 3.768 65.348 4.32 66.092C4.872 66.836 5.592 67.364 6.48 67.676C7.368 67.988 8.328 68.144 9.36 68.144C10.272 68.144 11.172 68.048 12.06 67.856C12.972 67.664 13.8 67.424 14.544 67.136C15.816 66.656 16.956 66.068 17.964 65.372C18.996 64.676 19.956 63.776 20.844 62.672C20.964 62.552 21.048 62.492 21.096 62.492C21.168 62.492 21.204 62.54 21.204 62.636C21.204 62.828 21.108 63.056 20.916 63.32C20.1 64.424 19.176 65.348 18.144 66.092C17.112 66.836 16.008 67.448 14.832 67.928C14.04 68.24 13.116 68.504 12.06 68.72C11.028 68.936 9.984 69.044 8.928 69.044ZM22.2244 68.108C21.9844 68.108 21.7804 68.06 21.6124 67.964C21.4444 67.868 21.3604 67.688 21.3604 67.424C21.3604 67.088 21.4444 66.692 21.6124 66.236C21.8044 65.78 22.0084 65.324 22.2244 64.868C22.4404 64.412 22.6204 64.04 22.7644 63.752C23.0524 63.2 23.3284 62.648 23.5924 62.096C23.8564 61.544 24.0844 61.076 24.2764 60.692C24.4684 60.332 24.5644 60.092 24.5644 59.972C24.5644 59.78 24.4204 59.78 24.1324 59.972C23.8684 60.164 23.6164 60.356 23.3764 60.548C22.8484 61.052 22.2964 61.652 21.7204 62.348C21.1444 63.02 20.7004 63.56 20.3884 63.968C20.3164 64.064 20.2564 64.112 20.2084 64.112C20.1604 64.112 20.1364 64.052 20.1364 63.932C20.1364 63.74 20.1964 63.56 20.3164 63.392C20.6524 62.912 21.0484 62.384 21.5044 61.808C21.9604 61.232 22.4284 60.68 22.9084 60.152C23.3644 59.672 23.8324 59.204 24.3124 58.748C24.7924 58.292 25.4044 58.064 26.1484 58.064C26.6524 58.064 26.9044 58.256 26.9044 58.64C26.9044 58.976 26.7604 59.36 26.4724 59.792C26.3044 60.056 26.0404 60.5 25.6804 61.124C25.3204 61.748 24.9484 62.432 24.5644 63.176C24.2044 63.896 23.8924 64.568 23.6284 65.192C23.3644 65.816 23.2324 66.272 23.2324 66.56C23.2324 66.896 23.4004 67.064 23.7364 67.064C24.0004 67.064 24.3244 66.932 24.7084 66.668C25.0924 66.38 25.4884 66.044 25.8964 65.66C26.6404 64.94 27.3124 64.16 27.9124 63.32C28.5364 62.456 29.0644 61.628 29.4964 60.836C29.9524 60.044 30.3124 59.396 30.5764 58.892C30.6244 58.796 30.6724 58.688 30.7204 58.568C30.7924 58.424 30.9004 58.34 31.0444 58.316C31.1884 58.292 31.5004 58.28 31.9804 58.28C32.4604 58.28 32.9044 58.184 33.3124 57.992H33.3844C33.4564 57.992 33.4924 58.028 33.4924 58.1C33.4924 58.292 33.3364 58.436 33.0244 58.532C32.7364 58.628 32.4004 58.916 32.0164 59.396C31.6564 59.876 31.2964 60.464 30.9364 61.16C30.5764 61.832 30.2524 62.528 29.9644 63.248C29.6764 63.968 29.4604 64.628 29.3164 65.228C29.1724 65.828 29.1364 66.272 29.2084 66.56C29.3044 66.896 29.4724 67.064 29.7124 67.064C30.0244 67.064 30.4564 66.872 31.0084 66.488C31.5844 66.104 32.1724 65.648 32.7724 65.12C33.3724 64.568 33.8644 64.064 34.2484 63.608C34.4164 63.416 34.5724 63.224 34.7164 63.032C34.8604 62.84 34.9564 62.72 35.0044 62.672C35.0284 62.696 35.0524 62.744 35.0764 62.816C35.1004 62.864 35.1124 62.912 35.1124 62.96C35.0884 63.128 35.0284 63.296 34.9324 63.464C34.8364 63.608 34.7284 63.74 34.6084 63.86C34.1524 64.46 33.6004 65.096 32.9524 65.768C32.3284 66.416 31.6444 66.968 30.9004 67.424C30.1804 67.88 29.4364 68.108 28.6684 68.108C28.4284 68.108 28.1524 68.048 27.8404 67.928C27.5524 67.808 27.4084 67.544 27.4084 67.136C27.4084 66.824 27.4924 66.404 27.6604 65.876C27.8284 65.324 28.0084 64.784 28.2004 64.256C28.4164 63.704 28.5964 63.296 28.7404 63.032C28.4284 63.488 28.0444 64.004 27.5884 64.58C27.1564 65.132 26.7124 65.624 26.2564 66.056C25.6564 66.632 25.0084 67.124 24.3124 67.532C23.6404 67.916 22.9444 68.108 22.2244 68.108ZM39.2372 68.108C38.9972 68.108 38.7932 68.06 38.6252 67.964C38.4572 67.868 38.3732 67.688 38.3732 67.424C38.3732 67.088 38.4572 66.704 38.6252 66.272C38.7932 65.84 38.9852 65.42 39.2012 65.012C39.4172 64.58 39.6092 64.232 39.7772 63.968C38.9372 64.856 38.0612 65.696 37.1492 66.488C36.6932 66.872 36.1892 67.232 35.6372 67.568C35.0852 67.904 34.4972 68.072 33.8732 68.072C33.6332 68.072 33.4652 68 33.3692 67.856C33.2732 67.688 33.2252 67.496 33.2252 67.28C33.2252 67.16 33.2372 67.076 33.2612 67.028C33.3812 66.092 33.6812 65.12 34.1612 64.112C34.6412 63.104 35.2292 62.156 35.9252 61.268C36.6212 60.38 37.3292 59.66 38.0492 59.108C38.8652 58.484 39.7652 58.172 40.7492 58.172H44.8892C45.0092 58.172 45.0692 58.22 45.0692 58.316C45.0692 58.508 44.9612 58.604 44.7452 58.604C44.5052 58.604 44.2652 58.76 44.0252 59.072C43.7852 59.36 43.6052 59.6 43.4852 59.792C43.3172 60.056 43.0532 60.5 42.6932 61.124C42.3332 61.748 41.9612 62.432 41.5772 63.176C41.2172 63.896 40.9052 64.568 40.6412 65.192C40.3772 65.816 40.2452 66.272 40.2452 66.56C40.2452 66.896 40.4132 67.064 40.7492 67.064C41.1092 67.064 41.5172 66.896 41.9732 66.56C42.4292 66.224 42.8852 65.816 43.3412 65.336C43.8212 64.832 44.2532 64.34 44.6372 63.86C45.0452 63.356 45.3692 62.96 45.6092 62.672C45.7532 62.816 45.7412 63.02 45.5732 63.284C45.4292 63.524 45.2972 63.716 45.1772 63.86C44.6972 64.484 44.1452 65.132 43.5212 65.804C42.8972 66.452 42.2132 67.004 41.4692 67.46C40.7492 67.892 40.0052 68.108 39.2372 68.108ZM35.3492 66.848C35.6372 66.848 36.0332 66.644 36.5372 66.236C37.0652 65.804 37.6292 65.276 38.2292 64.652C38.8292 64.004 39.3932 63.332 39.9212 62.636C40.4492 61.916 40.8812 61.268 41.2172 60.692C41.5772 60.092 41.7572 59.636 41.7572 59.324C41.7572 59.06 41.6732 58.88 41.5052 58.784C41.3612 58.688 41.1692 58.64 40.9292 58.64C40.5452 58.64 40.1252 58.784 39.6692 59.072C39.2372 59.336 38.8892 59.6 38.6252 59.864C38.3372 60.128 37.9892 60.548 37.5812 61.124C37.1972 61.676 36.8132 62.288 36.4292 62.96C36.0452 63.632 35.7212 64.28 35.4572 64.904C35.1932 65.528 35.0612 66.032 35.0612 66.416C35.0612 66.704 35.1572 66.848 35.3492 66.848ZM47.2992 68.072C46.5792 68.072 46.0872 67.904 45.8232 67.568C45.5592 67.208 45.4272 66.776 45.4272 66.272C45.4272 65.6 45.5712 64.88 45.8592 64.112C46.1712 63.344 46.4232 62.744 46.6152 62.312C46.3032 62.648 46.0032 62.972 45.7152 63.284C45.4272 63.596 45.2232 63.824 45.1032 63.968C45.0312 64.064 44.9712 64.112 44.9232 64.112C44.8752 64.112 44.8512 64.052 44.8512 63.932C44.8512 63.74 44.9112 63.56 45.0312 63.392C45.3672 62.96 45.7512 62.504 46.1832 62.024C46.6152 61.544 47.0352 61.04 47.4432 60.512C47.9232 59.624 48.4512 58.592 49.0272 57.416C49.6272 56.216 50.2392 54.992 50.8632 53.744C51.5112 52.472 52.1352 51.308 52.7352 50.252C53.3592 49.172 53.9112 48.308 54.3912 47.66C54.7992 47.492 55.1832 47.276 55.5432 47.012C55.9272 46.748 56.2992 46.508 56.6592 46.292C57.0432 46.052 57.4392 45.932 57.8472 45.932C58.1112 45.932 58.3032 46.004 58.4232 46.148C58.5672 46.292 58.6632 46.46 58.7112 46.652C58.7352 46.724 58.7472 46.856 58.7472 47.048C58.7472 47.6 58.5552 48.272 58.1712 49.064C57.8112 49.856 57.3792 50.636 56.8752 51.404C56.3952 52.148 55.9752 52.76 55.6152 53.24C54.6552 54.584 53.6712 55.808 52.6632 56.912C51.6552 57.992 50.7432 58.904 49.9272 59.648C49.1352 60.368 48.5592 60.896 48.1992 61.232C48.0312 61.544 47.8272 61.964 47.5872 62.492C47.3712 62.996 47.1792 63.536 47.0112 64.112C46.8432 64.664 46.7592 65.18 46.7592 65.66C46.7592 66.068 46.8552 66.416 47.0472 66.704C47.2392 66.968 47.5632 67.1 48.0192 67.1C48.0912 67.1 48.1632 67.1 48.2352 67.1C48.3072 67.1 48.3912 67.088 48.4872 67.064C48.8952 66.992 49.3392 66.764 49.8192 66.38C50.2992 65.996 50.7792 65.552 51.2592 65.048C51.7392 64.544 52.1712 64.064 52.5552 63.608C52.7232 63.416 52.8792 63.236 53.0232 63.068C53.1672 62.876 53.2632 62.744 53.3112 62.672C53.4792 62.84 53.4672 63.056 53.2752 63.32C53.1072 63.56 52.9632 63.764 52.8432 63.932C52.6752 64.148 52.4352 64.448 52.1232 64.832C51.8112 65.192 51.4512 65.588 51.0432 66.02C50.5872 66.476 50.0232 66.932 49.3512 67.388C48.6792 67.844 47.9952 68.072 47.2992 68.072ZM48.8112 59.792C49.5552 59.168 50.4912 58.28 51.6192 57.128C52.7712 55.952 53.8992 54.536 55.0032 52.88C55.1232 52.688 55.3152 52.364 55.5792 51.908C55.8672 51.452 56.1552 50.936 56.4432 50.36C56.7552 49.76 57.0192 49.184 57.2352 48.632C57.4512 48.056 57.5592 47.564 57.5592 47.156C57.5592 46.772 57.4512 46.58 57.2352 46.58C56.9712 46.58 56.6232 46.808 56.1912 47.264C55.6872 47.792 55.1112 48.572 54.4632 49.604C53.8392 50.612 53.1792 51.74 52.4832 52.988C51.7872 54.236 51.1152 55.46 50.4672 56.66C49.8432 57.86 49.2912 58.904 48.8112 59.792ZM51.3624 80.312C51.1944 80.312 51.1104 80.228 51.1104 80.06C51.1344 79.892 51.3024 79.412 51.6144 78.62C51.9504 77.828 52.3704 76.844 52.8744 75.668C53.3784 74.492 53.9064 73.256 54.4584 71.96C55.0344 70.664 55.5864 69.428 56.1144 68.252C56.6424 67.1 57.0864 66.128 57.4464 65.336C57.8304 64.544 58.0584 64.088 58.1304 63.968C57.7224 64.4 57.2904 64.832 56.8344 65.264C56.3784 65.672 55.9224 66.08 55.4664 66.488C55.0104 66.872 54.5064 67.232 53.9544 67.568C53.4264 67.904 52.8504 68.072 52.2264 68.072C51.9864 68.072 51.8184 68 51.7224 67.856C51.6264 67.688 51.5784 67.496 51.5784 67.28V67.028C51.6984 66.092 51.9984 65.12 52.4784 64.112C52.9824 63.104 53.5824 62.156 54.2784 61.268C54.9744 60.38 55.6824 59.66 56.4024 59.108C57.1704 58.484 58.0704 58.172 59.1024 58.172H63.2424C63.3624 58.172 63.4224 58.22 63.4224 58.316C63.4224 58.508 63.3144 58.604 63.0984 58.604C62.8344 58.604 62.5824 58.76 62.3424 59.072C62.1024 59.36 61.9224 59.6 61.8024 59.792C61.2024 60.728 60.5544 61.832 59.8584 63.104C59.1624 64.352 58.4664 65.684 57.7704 67.1C57.0984 68.492 56.4624 69.848 55.8624 71.168C55.2864 72.512 54.8064 73.712 54.4224 74.768C54.9744 73.88 55.6224 72.896 56.3664 71.816C57.1104 70.76 57.8904 69.68 58.7064 68.576C59.5464 67.496 60.3624 66.452 61.1544 65.444C61.9704 64.412 62.6904 63.5 63.3144 62.708C63.3624 62.804 63.3864 62.876 63.3864 62.924C63.3864 63.164 63.2664 63.44 63.0264 63.752C62.2104 64.832 61.3104 66.02 60.3264 67.316C59.3664 68.612 58.4184 69.944 57.4824 71.312C56.5464 72.704 55.7064 74.06 54.9624 75.38C54.2184 76.724 53.6544 77.996 53.2704 79.196C53.2464 79.292 53.1144 79.424 52.8744 79.592C52.6344 79.784 52.3704 79.952 52.0824 80.096C51.7944 80.24 51.5544 80.312 51.3624 80.312ZM53.7024 66.848C53.9904 66.848 54.3864 66.644 54.8904 66.236C55.3944 65.804 55.9464 65.276 56.5464 64.652C57.1464 64.004 57.7104 63.332 58.2384 62.636C58.7664 61.916 59.1984 61.268 59.5344 60.692C59.8944 60.092 60.0744 59.636 60.0744 59.324C60.0744 59.06 59.9904 58.88 59.8224 58.784C59.6784 58.688 59.4864 58.64 59.2464 58.64C58.8624 58.64 58.4544 58.784 58.0224 59.072C57.5904 59.336 57.2424 59.6 56.9784 59.864C56.6904 60.128 56.3424 60.548 55.9344 61.124C55.5504 61.676 55.1544 62.288 54.7464 62.96C54.3624 63.632 54.0384 64.28 53.7744 64.904C53.5104 65.528 53.3784 66.032 53.3784 66.416C53.3784 66.704 53.4864 66.848 53.7024 66.848ZM64.6931 68.108C64.4531 68.108 64.2491 68.06 64.0811 67.964C63.9131 67.868 63.8291 67.688 63.8291 67.424C63.8291 67.088 63.9131 66.692 64.0811 66.236C64.2731 65.78 64.4771 65.324 64.6931 64.868C64.9091 64.412 65.0891 64.04 65.2331 63.752C65.5211 63.2 65.7971 62.648 66.0611 62.096C66.3251 61.544 66.5531 61.076 66.7451 60.692C66.9371 60.332 67.0331 60.092 67.0331 59.972C67.0331 59.78 66.8891 59.78 66.6011 59.972C66.3371 60.164 66.0851 60.356 65.8451 60.548C65.3171 61.052 64.7651 61.652 64.1891 62.348C63.6131 63.02 63.1691 63.56 62.8571 63.968C62.7851 64.064 62.7251 64.112 62.6771 64.112C62.6291 64.112 62.6051 64.052 62.6051 63.932C62.6051 63.74 62.6651 63.56 62.7851 63.392C63.1211 62.912 63.5171 62.384 63.9731 61.808C64.4291 61.232 64.8971 60.68 65.3771 60.152C65.8331 59.672 66.3011 59.204 66.7811 58.748C67.2611 58.292 67.8731 58.064 68.6171 58.064C69.1211 58.064 69.3731 58.256 69.3731 58.64C69.3731 58.976 69.2291 59.36 68.9411 59.792C68.7731 60.056 68.5091 60.5 68.1491 61.124C67.7891 61.748 67.4171 62.432 67.0331 63.176C66.6731 63.896 66.3611 64.568 66.0971 65.192C65.8331 65.816 65.7011 66.272 65.7011 66.56C65.7011 66.896 65.8691 67.064 66.2051 67.064C66.4691 67.064 66.7931 66.932 67.1771 66.668C67.5611 66.38 67.9571 66.044 68.3651 65.66C69.1091 64.94 69.7811 64.16 70.3811 63.32C71.0051 62.456 71.5331 61.628 71.9651 60.836C72.4211 60.044 72.7811 59.396 73.0451 58.892C73.0931 58.796 73.1411 58.688 73.1891 58.568C73.2611 58.424 73.3691 58.34 73.5131 58.316C73.6571 58.292 73.9691 58.28 74.4491 58.28C74.9291 58.28 75.3731 58.184 75.7811 57.992H75.8531C75.9251 57.992 75.9611 58.028 75.9611 58.1C75.9611 58.292 75.8051 58.436 75.4931 58.532C75.2051 58.628 74.8691 58.916 74.4851 59.396C74.1251 59.876 73.7651 60.464 73.4051 61.16C73.0451 61.832 72.7211 62.528 72.4331 63.248C72.1451 63.968 71.9291 64.628 71.7851 65.228C71.6411 65.828 71.6051 66.272 71.6771 66.56C71.7731 66.896 71.9411 67.064 72.1811 67.064C72.4931 67.064 72.9251 66.872 73.4771 66.488C74.0531 66.104 74.6411 65.648 75.2411 65.12C75.8411 64.568 76.3331 64.064 76.7171 63.608C76.8851 63.416 77.0411 63.224 77.1851 63.032C77.3291 62.84 77.4251 62.72 77.4731 62.672C77.4971 62.696 77.5211 62.744 77.5451 62.816C77.5691 62.864 77.5811 62.912 77.5811 62.96C77.5571 63.128 77.4971 63.296 77.4011 63.464C77.3051 63.608 77.1971 63.74 77.0771 63.86C76.6211 64.46 76.0691 65.096 75.4211 65.768C74.7971 66.416 74.1131 66.968 73.3691 67.424C72.6491 67.88 71.9051 68.108 71.1371 68.108C70.8971 68.108 70.6211 68.048 70.3091 67.928C70.0211 67.808 69.8771 67.544 69.8771 67.136C69.8771 66.824 69.9611 66.404 70.1291 65.876C70.2971 65.324 70.4771 64.784 70.6691 64.256C70.8851 63.704 71.0651 63.296 71.2091 63.032C70.8971 63.488 70.5131 64.004 70.0571 64.58C69.6251 65.132 69.1811 65.624 68.7251 66.056C68.1251 66.632 67.4771 67.124 66.7811 67.532C66.1091 67.916 65.4131 68.108 64.6931 68.108ZM84.2979 54.248C83.9619 54.248 83.7219 54.14 83.5779 53.924C83.4819 53.804 83.4339 53.648 83.4339 53.456C83.4339 53.072 83.6139 52.76 83.9739 52.52C84.2379 52.376 84.4779 52.304 84.6939 52.304C85.0539 52.304 85.3059 52.412 85.4499 52.628C85.5459 52.748 85.5939 52.904 85.5939 53.096C85.5939 53.48 85.4019 53.792 85.0179 54.032C84.8019 54.176 84.5619 54.248 84.2979 54.248ZM78.0339 68.108C77.7939 68.108 77.5899 68.06 77.4219 67.964C77.2779 67.868 77.2059 67.688 77.2059 67.424C77.2059 67.088 77.2899 66.692 77.4579 66.236C77.6499 65.78 77.8539 65.324 78.0699 64.868C78.3099 64.412 78.4899 64.04 78.6099 63.752C78.7779 63.416 78.9819 62.984 79.2219 62.456C79.4859 61.904 79.7259 61.388 79.9419 60.908C80.1819 60.404 80.3499 60.056 80.4459 59.864C80.1099 60.224 79.7019 60.68 79.2219 61.232C78.7659 61.76 78.3339 62.276 77.9259 62.78C77.5179 63.284 77.2059 63.68 76.9899 63.968C76.9179 64.064 76.8579 64.112 76.8099 64.112C76.7619 64.112 76.7379 64.052 76.7379 63.932C76.7379 63.74 76.7979 63.56 76.9179 63.392C77.3739 62.816 77.8779 62.168 78.4299 61.448C79.0059 60.728 79.5219 60.068 79.9779 59.468C80.4339 58.844 80.7219 58.436 80.8419 58.244C81.1059 58.196 81.4899 58.124 81.9939 58.028C82.5219 57.932 82.8819 57.8 83.0739 57.632C83.1459 57.56 83.2179 57.524 83.2899 57.524C83.3379 57.524 83.3619 57.572 83.3619 57.668C83.3859 57.74 83.3619 57.824 83.2899 57.92C83.1459 58.088 82.8939 58.496 82.5339 59.144C82.1739 59.792 81.7899 60.512 81.3819 61.304C80.9979 62.072 80.6379 62.768 80.3019 63.392C79.9659 64.04 79.6779 64.664 79.4379 65.264C79.1979 65.864 79.0779 66.296 79.0779 66.56C79.0779 66.896 79.2459 67.064 79.5819 67.064C79.8939 67.064 80.2899 66.872 80.7699 66.488C81.2739 66.104 81.7779 65.648 82.2819 65.12C82.7859 64.568 83.2299 64.064 83.6139 63.608C83.7339 63.464 83.8779 63.296 84.0459 63.104C84.2379 62.888 84.3579 62.756 84.4059 62.708C84.4539 62.756 84.4779 62.84 84.4779 62.96C84.4539 63.128 84.3939 63.296 84.2979 63.464C84.2019 63.608 84.1059 63.74 84.0099 63.86C83.5059 64.484 82.9539 65.132 82.3539 65.804C81.7539 66.452 81.0939 67.004 80.3739 67.46C79.6539 67.892 78.8739 68.108 78.0339 68.108ZM85.7877 68.288C84.8037 68.288 84.1197 68.096 83.7357 67.712C83.3517 67.328 83.1597 66.86 83.1597 66.308C83.1597 65.612 83.3397 64.868 83.6997 64.076C84.0837 63.284 84.4437 62.612 84.7797 62.06C85.1637 61.484 85.6797 60.884 86.3277 60.26C86.9757 59.636 87.6837 59.108 88.4517 58.676C89.2197 58.244 89.9637 58.028 90.6837 58.028C91.3077 58.028 91.7397 58.184 91.9797 58.496C92.2197 58.784 92.3397 59.132 92.3397 59.54C92.3397 60.284 92.1117 60.896 91.6557 61.376C91.2237 61.856 90.6837 62.252 90.0357 62.564C89.3877 62.852 88.7637 63.092 88.1637 63.284C87.8037 63.38 87.3837 63.476 86.9037 63.572C86.4237 63.668 85.9677 63.716 85.5357 63.716C85.3677 64.148 85.2357 64.568 85.1397 64.976C85.0437 65.384 84.9957 65.756 84.9957 66.092C84.9957 66.5 85.0917 66.836 85.2837 67.1C85.4997 67.364 85.8477 67.496 86.3277 67.496C86.5197 67.496 86.7477 67.472 87.0117 67.424C87.2757 67.376 87.5637 67.304 87.8757 67.208C88.5957 66.968 89.3037 66.584 89.9997 66.056C90.6957 65.528 91.3317 64.964 91.9077 64.364C92.5077 63.74 92.9637 63.224 93.2757 62.816C93.3477 62.888 93.3837 62.972 93.3837 63.068C93.3837 63.188 93.2997 63.38 93.1317 63.644C92.6517 64.316 92.0277 65.012 91.2597 65.732C90.4917 66.452 89.6397 67.064 88.7037 67.568C87.7677 68.048 86.7957 68.288 85.7877 68.288ZM85.8237 62.996C86.1357 63.02 86.4837 63.02 86.8677 62.996C87.2757 62.948 87.6717 62.864 88.0557 62.744C89.0397 62.456 89.7477 62 90.1797 61.376C90.6357 60.728 90.8637 60.152 90.8637 59.648C90.8637 59.36 90.8037 59.12 90.6837 58.928C90.5637 58.736 90.3717 58.64 90.1077 58.64C89.4117 58.64 88.7877 58.904 88.2357 59.432C87.6837 59.936 87.2037 60.524 86.7957 61.196C86.3877 61.868 86.0637 62.468 85.8237 62.996ZM92.9166 68.504C92.8206 68.504 92.8206 68.408 92.9166 68.216C93.0366 68 93.1446 67.76 93.2406 67.496C93.3606 67.232 93.4806 66.944 93.6006 66.632C93.8406 66.056 94.1046 65.408 94.3926 64.688C94.6806 63.968 94.9566 63.272 95.2206 62.6C95.4846 61.904 95.7126 61.316 95.9046 60.836C96.1206 60.332 96.2646 60.008 96.3366 59.864C96.0006 60.224 95.5926 60.68 95.1126 61.232C94.6566 61.76 94.2246 62.276 93.8166 62.78C93.4086 63.284 93.0966 63.68 92.8806 63.968C92.8086 64.064 92.7486 64.112 92.7006 64.112C92.6526 64.112 92.6286 64.052 92.6286 63.932C92.6286 63.74 92.6886 63.56 92.8086 63.392C93.2646 62.816 93.7686 62.168 94.3206 61.448C94.8966 60.728 95.4126 60.068 95.8686 59.468C96.3246 58.844 96.6126 58.436 96.7326 58.244C96.9966 58.196 97.3806 58.124 97.8846 58.028C98.4126 57.932 98.7726 57.8 98.9646 57.632C99.0366 57.56 99.1086 57.524 99.1806 57.524C99.2286 57.524 99.2526 57.572 99.2526 57.668C99.2766 57.74 99.2526 57.824 99.1806 57.92C99.0366 58.064 98.8206 58.376 98.5326 58.856C98.2686 59.336 97.9686 59.888 97.6326 60.512C97.2966 61.136 96.9726 61.736 96.6606 62.312C96.9006 61.952 97.2126 61.532 97.5966 61.052C98.0046 60.548 98.4486 60.068 98.9286 59.612C99.4086 59.132 99.8886 58.736 100.369 58.424C100.873 58.112 101.341 57.956 101.773 57.956C102.085 57.956 102.349 58.028 102.565 58.172C102.781 58.292 102.949 58.52 103.069 58.856C103.141 59.024 103.177 59.216 103.177 59.432C103.177 59.84 103.069 60.236 102.853 60.62C102.661 60.98 102.517 61.256 102.421 61.448C102.397 61.52 102.313 61.592 102.169 61.664C102.025 61.712 101.965 61.688 101.989 61.592C102.013 61.472 102.025 61.352 102.025 61.232C102.049 61.112 102.061 60.98 102.061 60.836C102.061 60.428 101.977 60.056 101.809 59.72C101.665 59.384 101.389 59.216 100.981 59.216C100.597 59.216 100.129 59.456 99.5766 59.936C99.0246 60.416 98.4726 60.968 97.9206 61.592C97.2246 62.408 96.6726 63.188 96.2646 63.932C95.8566 64.652 95.5206 65.36 95.2566 66.056C95.1126 66.44 94.9686 66.824 94.8246 67.208C94.6806 67.568 94.5726 67.856 94.5006 68.072C94.1886 68.096 93.8766 68.168 93.5646 68.288C93.2526 68.432 93.0366 68.504 92.9166 68.504ZM107.405 68.108C107.165 68.108 106.961 68.06 106.793 67.964C106.625 67.868 106.541 67.688 106.541 67.424C106.541 67.088 106.625 66.704 106.793 66.272C106.961 65.84 107.153 65.42 107.369 65.012C107.585 64.58 107.777 64.232 107.945 63.968C107.105 64.856 106.229 65.696 105.317 66.488C104.861 66.872 104.357 67.232 103.805 67.568C103.253 67.904 102.665 68.072 102.041 68.072C101.801 68.072 101.633 68 101.537 67.856C101.441 67.688 101.393 67.496 101.393 67.28C101.393 67.16 101.405 67.076 101.429 67.028C101.549 66.092 101.849 65.12 102.329 64.112C102.809 63.104 103.397 62.156 104.093 61.268C104.789 60.38 105.497 59.66 106.217 59.108C107.033 58.484 107.933 58.172 108.917 58.172H113.057C113.177 58.172 113.237 58.22 113.237 58.316C113.237 58.508 113.129 58.604 112.913 58.604C112.673 58.604 112.433 58.76 112.193 59.072C111.953 59.36 111.773 59.6 111.653 59.792C111.485 60.056 111.221 60.5 110.861 61.124C110.501 61.748 110.129 62.432 109.745 63.176C109.385 63.896 109.073 64.568 108.809 65.192C108.545 65.816 108.413 66.272 108.413 66.56C108.413 66.896 108.581 67.064 108.917 67.064C109.277 67.064 109.685 66.896 110.141 66.56C110.597 66.224 111.053 65.816 111.509 65.336C111.989 64.832 112.421 64.34 112.805 63.86C113.213 63.356 113.537 62.96 113.777 62.672C113.921 62.816 113.909 63.02 113.741 63.284C113.597 63.524 113.465 63.716 113.345 63.86C112.865 64.484 112.313 65.132 111.689 65.804C111.065 66.452 110.381 67.004 109.637 67.46C108.917 67.892 108.173 68.108 107.405 68.108ZM103.517 66.848C103.805 66.848 104.201 66.644 104.705 66.236C105.233 65.804 105.797 65.276 106.397 64.652C106.997 64.004 107.561 63.332 108.089 62.636C108.617 61.916 109.049 61.268 109.385 60.692C109.745 60.092 109.925 59.636 109.925 59.324C109.925 59.06 109.841 58.88 109.673 58.784C109.529 58.688 109.337 58.64 109.097 58.64C108.713 58.64 108.293 58.784 107.837 59.072C107.405 59.336 107.057 59.6 106.793 59.864C106.505 60.128 106.157 60.548 105.749 61.124C105.365 61.676 104.981 62.288 104.597 62.96C104.213 63.632 103.889 64.28 103.625 64.904C103.361 65.528 103.229 66.032 103.229 66.416C103.229 66.704 103.325 66.848 103.517 66.848ZM120.685 68.288C119.797 68.288 119.173 68.12 118.813 67.784C118.453 67.448 118.273 67.016 118.273 66.488C118.273 65.792 118.501 65.024 118.957 64.184C119.413 63.32 119.845 62.6 120.253 62.024C120.661 61.472 121.117 60.956 121.621 60.476C122.149 59.972 122.713 59.54 123.313 59.18C123.697 58.94 124.213 58.688 124.861 58.424C125.533 58.136 126.097 57.992 126.553 57.992C127.105 57.992 127.489 58.124 127.705 58.388C127.921 58.628 128.029 58.928 128.029 59.288C128.029 59.576 127.981 59.876 127.885 60.188C127.789 60.476 127.681 60.752 127.561 61.016C127.489 61.16 127.381 61.268 127.237 61.34C127.093 61.388 127.021 61.364 127.021 61.268C127.021 61.148 127.033 61.04 127.057 60.944C127.081 60.848 127.093 60.74 127.093 60.62C127.093 60.164 126.985 59.72 126.769 59.288C126.577 58.832 126.277 58.604 125.869 58.604C125.437 58.604 124.969 58.76 124.465 59.072C123.961 59.36 123.613 59.612 123.421 59.828C122.797 60.476 122.185 61.28 121.585 62.24C121.009 63.2 120.589 64.112 120.325 64.976C120.157 65.48 120.073 65.912 120.073 66.272C120.073 66.68 120.181 66.968 120.397 67.136C120.613 67.304 120.877 67.388 121.189 67.388C121.429 67.388 121.681 67.352 121.945 67.28C122.233 67.208 122.533 67.124 122.845 67.028C123.565 66.788 124.285 66.416 125.005 65.912C125.749 65.384 126.421 64.832 127.021 64.256C127.621 63.656 128.077 63.14 128.389 62.708C128.437 62.756 128.461 62.828 128.461 62.924C128.461 63.044 128.413 63.188 128.317 63.356C128.221 63.5 128.149 63.62 128.101 63.716C127.597 64.388 126.937 65.084 126.121 65.804C125.305 66.5 124.417 67.088 123.457 67.568C122.521 68.048 121.597 68.288 120.685 68.288ZM128.327 68.072C127.943 68.072 127.595 68 127.283 67.856C126.995 67.688 126.851 67.34 126.851 66.812C126.851 65.972 127.067 65.132 127.499 64.292C127.931 63.428 128.375 62.672 128.831 62.024C129.239 61.472 129.695 60.956 130.199 60.476C130.727 59.972 131.291 59.54 131.891 59.18C132.275 58.94 132.791 58.688 133.439 58.424C134.111 58.136 134.675 57.992 135.131 57.992C135.515 57.992 135.851 58.1 136.139 58.316C136.427 58.508 136.571 58.868 136.571 59.396C136.571 60.212 136.355 61.052 135.923 61.916C135.515 62.756 135.083 63.5 134.627 64.148C134.411 64.436 134.195 64.712 133.979 64.976C133.763 65.216 133.523 65.468 133.259 65.732C134.147 65.732 134.963 65.48 135.707 64.976C136.451 64.448 137.099 63.812 137.651 63.068L137.723 62.996C137.795 62.996 137.831 63.068 137.831 63.212C137.831 63.38 137.783 63.536 137.687 63.68C137.207 64.352 136.607 64.952 135.887 65.48C135.167 65.984 134.351 66.236 133.439 66.236C133.343 66.236 133.247 66.236 133.151 66.236C133.055 66.236 132.959 66.224 132.863 66.2C131.519 67.448 130.007 68.072 128.327 68.072ZM129.263 67.46C129.599 67.46 129.959 67.34 130.343 67.1C130.751 66.86 131.063 66.632 131.279 66.416C131.687 66.008 132.059 65.576 132.395 65.12C132.731 64.64 133.043 64.16 133.331 63.68C133.667 63.104 134.003 62.42 134.339 61.628C134.675 60.836 134.843 60.092 134.843 59.396C134.843 58.844 134.651 58.568 134.267 58.568C133.955 58.568 133.571 58.7 133.115 58.964C132.683 59.228 132.359 59.468 132.143 59.684C131.327 60.524 130.643 61.436 130.091 62.42C129.779 62.972 129.443 63.62 129.083 64.364C128.723 65.108 128.543 65.792 128.543 66.416C128.543 66.512 128.543 66.608 128.543 66.704C128.567 66.776 128.591 66.86 128.615 66.956C128.711 67.292 128.927 67.46 129.263 67.46ZM137.495 68.54C137.399 68.54 137.399 68.432 137.495 68.216C137.615 68 137.723 67.76 137.819 67.496C137.939 67.232 138.059 66.944 138.179 66.632C138.419 66.056 138.683 65.408 138.971 64.688C139.259 63.968 139.535 63.272 139.799 62.6C140.063 61.904 140.291 61.316 140.483 60.836C140.699 60.332 140.843 60.008 140.915 59.864C140.579 60.224 140.171 60.68 139.691 61.232C139.235 61.76 138.803 62.276 138.395 62.78C137.987 63.284 137.675 63.68 137.459 63.968C137.387 64.064 137.327 64.112 137.279 64.112C137.231 64.112 137.207 64.052 137.207 63.932C137.207 63.74 137.267 63.56 137.387 63.392C137.843 62.816 138.347 62.168 138.899 61.448C139.475 60.728 139.991 60.068 140.447 59.468C140.903 58.844 141.191 58.436 141.311 58.244C141.575 58.196 141.959 58.124 142.463 58.028C142.991 57.932 143.351 57.8 143.543 57.632C143.615 57.56 143.687 57.524 143.759 57.524C143.807 57.524 143.831 57.572 143.831 57.668C143.855 57.74 143.831 57.824 143.759 57.92C143.615 58.088 143.363 58.484 143.003 59.108C142.667 59.708 142.295 60.38 141.887 61.124C141.503 61.868 141.143 62.54 140.807 63.14C141.095 62.756 141.407 62.384 141.743 62.024C142.079 61.664 142.403 61.316 142.715 60.98C143.003 60.692 143.399 60.332 143.903 59.9C144.407 59.468 144.935 59.072 145.487 58.712C146.039 58.352 146.519 58.148 146.927 58.1C147.023 58.076 147.107 58.064 147.179 58.064C147.275 58.064 147.347 58.064 147.395 58.064C147.923 58.064 148.187 58.256 148.187 58.64C148.187 58.928 148.031 59.312 147.719 59.792C147.551 60.056 147.287 60.5 146.927 61.124C146.591 61.724 146.243 62.384 145.883 63.104C145.547 63.8 145.247 64.46 144.983 65.084C144.743 65.684 144.623 66.128 144.623 66.416C144.623 66.752 144.791 66.92 145.127 66.92C145.535 66.92 145.979 66.716 146.459 66.308C146.963 65.9 147.503 65.384 148.079 64.76C148.655 64.112 149.231 63.428 149.807 62.708C149.855 62.756 149.879 62.84 149.879 62.96C149.879 63.128 149.819 63.296 149.699 63.464C149.603 63.608 149.507 63.74 149.411 63.86C149.171 64.172 148.847 64.568 148.439 65.048C148.055 65.504 147.659 65.96 147.251 66.416C146.843 66.848 146.471 67.196 146.135 67.46C145.895 67.628 145.583 67.808 145.199 68C144.815 68.192 144.431 68.288 144.047 68.288C143.615 68.288 143.315 68.18 143.147 67.964C142.979 67.724 142.895 67.436 142.895 67.1C142.895 66.716 142.967 66.308 143.111 65.876C143.255 65.444 143.411 65.036 143.579 64.652C143.771 64.244 143.915 63.944 144.011 63.752C144.443 62.912 144.839 62.12 145.199 61.376C145.559 60.632 145.811 60.104 145.955 59.792C146.027 59.648 146.063 59.528 146.063 59.432C146.063 59.264 145.931 59.252 145.667 59.396C145.403 59.54 145.079 59.756 144.695 60.044C144.335 60.332 143.999 60.62 143.687 60.908C143.375 61.172 143.171 61.352 143.075 61.448C142.187 62.384 141.407 63.428 140.735 64.58C140.087 65.708 139.535 66.872 139.079 68.072C138.767 68.096 138.455 68.18 138.143 68.324C137.831 68.468 137.615 68.54 137.495 68.54ZM150.602 68.108C150.362 68.108 150.158 68.06 149.99 67.964C149.822 67.868 149.738 67.688 149.738 67.424C149.738 67.088 149.822 66.692 149.99 66.236C150.182 65.78 150.386 65.324 150.602 64.868C150.818 64.412 150.998 64.04 151.142 63.752C151.262 63.536 151.418 63.2 151.61 62.744C151.826 62.264 152.042 61.772 152.258 61.268C152.498 60.74 152.69 60.296 152.834 59.936C153.002 59.576 153.086 59.396 153.086 59.396C152.87 59.636 152.582 59.972 152.222 60.404C151.886 60.836 151.514 61.292 151.106 61.772C150.722 62.228 150.362 62.66 150.026 63.068C149.714 63.476 149.486 63.776 149.342 63.968C149.27 64.064 149.21 64.112 149.162 64.112C149.114 64.112 149.09 64.052 149.09 63.932C149.09 63.74 149.15 63.56 149.27 63.392C149.558 63.032 149.906 62.6 150.313 62.096C150.722 61.568 151.13 61.04 151.538 60.512C151.97 59.984 152.342 59.516 152.654 59.108C152.462 59.108 152.21 59.12 151.898 59.144C151.61 59.168 151.346 59.204 151.106 59.252C150.866 59.276 150.734 59.288 150.71 59.288C150.59 59.288 150.602 59.192 150.746 59C150.89 58.808 151.082 58.616 151.322 58.424C151.562 58.232 151.742 58.136 151.862 58.136C151.886 58.136 152.078 58.148 152.438 58.172C152.798 58.172 153.062 58.172 153.229 58.172C153.71 57.524 154.178 56.78 154.634 55.94C155.114 55.1 155.582 54.176 156.038 53.168C156.23 53.144 156.554 53.012 157.01 52.772C157.49 52.508 157.862 52.244 158.126 51.98C158.246 51.86 158.342 51.8 158.414 51.8C158.558 51.8 158.558 51.896 158.414 52.088C158.246 52.28 157.958 52.688 157.55 53.312C157.142 53.912 156.686 54.644 156.182 55.508C155.678 56.348 155.198 57.236 154.742 58.172H157.658C157.922 58.172 158.054 58.208 158.054 58.28C158.054 58.376 157.874 58.472 157.514 58.568C157.106 58.688 156.674 58.76 156.218 58.784C155.786 58.808 155.378 58.856 154.994 58.928C154.634 59 154.37 59.156 154.202 59.396C154.058 59.564 153.854 59.924 153.59 60.476C153.326 61.028 153.038 61.664 152.726 62.384C152.438 63.08 152.186 63.788 151.97 64.508C151.754 65.204 151.622 65.792 151.574 66.272V66.416C151.574 66.608 151.634 66.764 151.754 66.884C151.874 67.004 151.994 67.064 152.114 67.064C152.426 67.064 152.822 66.872 153.302 66.488C153.806 66.104 154.322 65.648 154.85 65.12C155.378 64.568 155.834 64.064 156.218 63.608C156.386 63.416 156.53 63.236 156.65 63.068C156.794 62.9 156.878 62.792 156.902 62.744C156.95 62.84 156.974 62.912 156.974 62.96C156.974 63.104 156.926 63.26 156.83 63.428C156.758 63.596 156.674 63.74 156.578 63.86C156.122 64.46 155.57 65.096 154.922 65.768C154.274 66.416 153.578 66.968 152.834 67.424C152.114 67.88 151.37 68.108 150.602 68.108ZM163.786 54.248C163.45 54.248 163.21 54.14 163.066 53.924C162.97 53.804 162.922 53.648 162.922 53.456C162.922 53.072 163.102 52.76 163.462 52.52C163.726 52.376 163.966 52.304 164.182 52.304C164.542 52.304 164.794 52.412 164.938 52.628C165.034 52.748 165.082 52.904 165.082 53.096C165.082 53.48 164.89 53.792 164.506 54.032C164.29 54.176 164.05 54.248 163.786 54.248ZM157.522 68.108C157.282 68.108 157.078 68.06 156.91 67.964C156.766 67.868 156.694 67.688 156.694 67.424C156.694 67.088 156.778 66.692 156.946 66.236C157.138 65.78 157.342 65.324 157.558 64.868C157.798 64.412 157.978 64.04 158.098 63.752C158.266 63.416 158.47 62.984 158.71 62.456C158.974 61.904 159.214 61.388 159.43 60.908C159.67 60.404 159.838 60.056 159.934 59.864C159.598 60.224 159.19 60.68 158.71 61.232C158.254 61.76 157.822 62.276 157.414 62.78C157.006 63.284 156.694 63.68 156.478 63.968C156.406 64.064 156.346 64.112 156.298 64.112C156.25 64.112 156.226 64.052 156.226 63.932C156.226 63.74 156.286 63.56 156.406 63.392C156.862 62.816 157.366 62.168 157.918 61.448C158.494 60.728 159.01 60.068 159.466 59.468C159.922 58.844 160.21 58.436 160.33 58.244C160.594 58.196 160.978 58.124 161.482 58.028C162.01 57.932 162.37 57.8 162.562 57.632C162.634 57.56 162.706 57.524 162.778 57.524C162.826 57.524 162.85 57.572 162.85 57.668C162.874 57.74 162.85 57.824 162.778 57.92C162.634 58.088 162.382 58.496 162.022 59.144C161.662 59.792 161.278 60.512 160.87 61.304C160.486 62.072 160.126 62.768 159.79 63.392C159.454 64.04 159.166 64.664 158.926 65.264C158.686 65.864 158.566 66.296 158.566 66.56C158.566 66.896 158.734 67.064 159.07 67.064C159.382 67.064 159.778 66.872 160.258 66.488C160.762 66.104 161.266 65.648 161.77 65.12C162.274 64.568 162.718 64.064 163.102 63.608C163.222 63.464 163.366 63.296 163.534 63.104C163.726 62.888 163.846 62.756 163.894 62.708C163.942 62.756 163.966 62.84 163.966 62.96C163.942 63.128 163.882 63.296 163.786 63.464C163.69 63.608 163.594 63.74 163.498 63.86C162.994 64.484 162.442 65.132 161.842 65.804C161.242 66.452 160.582 67.004 159.862 67.46C159.142 67.892 158.362 68.108 157.522 68.108ZM156.78 80.6C155.868 80.6 154.992 80.384 154.152 79.952C153.288 79.544 152.652 78.908 152.244 78.044C152.076 77.732 151.968 77.396 151.92 77.036C151.872 76.7 151.848 76.364 151.848 76.028V75.668C151.848 75.476 151.872 75.296 151.92 75.128C151.968 74.96 152.1 74.876 152.316 74.876C152.364 74.876 152.388 74.9 152.388 74.948C152.388 75.092 152.376 75.236 152.352 75.38C152.328 75.524 152.316 75.68 152.316 75.848C152.316 76.952 152.676 77.792 153.396 78.368C154.092 78.944 154.968 79.232 156.024 79.232C156.456 79.232 156.9 79.184 157.356 79.088C157.812 78.992 158.232 78.86 158.616 78.692C160.152 78.044 161.484 77.108 162.612 75.884C163.764 74.66 164.76 73.28 165.6 71.744C166.464 70.208 167.22 68.636 167.868 67.028C168.54 65.396 169.164 63.86 169.74 62.42C169.236 63.236 168.684 63.968 168.084 64.616C167.484 65.24 166.812 65.864 166.068 66.488C165.612 66.872 165.108 67.232 164.556 67.568C164.028 67.904 163.452 68.072 162.828 68.072C162.588 68.072 162.42 68 162.324 67.856C162.228 67.688 162.18 67.496 162.18 67.28V67.028C162.3 66.092 162.6 65.12 163.08 64.112C163.584 63.104 164.184 62.156 164.88 61.268C165.576 60.38 166.284 59.66 167.004 59.108C167.82 58.484 168.72 58.172 169.704 58.172H173.844C173.964 58.172 174.024 58.22 174.024 58.316C174.024 58.508 173.916 58.604 173.7 58.604C173.436 58.604 173.184 58.712 172.944 58.928C172.704 59.144 172.524 59.348 172.404 59.54C172.164 59.924 171.852 60.512 171.468 61.304C171.084 62.096 170.664 63.008 170.208 64.04C169.752 65.048 169.296 66.08 168.84 67.136C168.384 68.168 167.964 69.14 167.58 70.052C167.004 71.42 166.344 72.752 165.6 74.048C164.88 75.368 164.016 76.544 163.008 77.576C162.024 78.632 160.848 79.46 159.48 80.06C158.664 80.42 157.764 80.6 156.78 80.6ZM164.304 66.848C164.592 66.848 164.988 66.644 165.492 66.236C165.996 65.804 166.548 65.276 167.148 64.652C167.748 64.004 168.312 63.332 168.84 62.636C169.368 61.916 169.8 61.268 170.136 60.692C170.496 60.092 170.676 59.636 170.676 59.324C170.676 59.06 170.592 58.88 170.424 58.784C170.28 58.688 170.088 58.64 169.848 58.64C169.464 58.64 169.056 58.784 168.624 59.072C168.192 59.336 167.844 59.6 167.58 59.864C167.292 60.128 166.944 60.548 166.536 61.124C166.152 61.676 165.756 62.288 165.348 62.96C164.964 63.632 164.64 64.28 164.376 64.904C164.112 65.528 163.98 66.032 163.98 66.416C163.98 66.704 164.088 66.848 164.304 66.848ZM173.327 68.072C172.943 68.072 172.595 68 172.283 67.856C171.995 67.688 171.851 67.34 171.851 66.812C171.851 65.972 172.067 65.132 172.499 64.292C172.931 63.428 173.375 62.672 173.831 62.024C174.239 61.472 174.695 60.956 175.199 60.476C175.727 59.972 176.291 59.54 176.891 59.18C177.275 58.94 177.791 58.688 178.439 58.424C179.111 58.136 179.675 57.992 180.131 57.992C180.515 57.992 180.851 58.1 181.139 58.316C181.427 58.508 181.571 58.868 181.571 59.396C181.571 60.212 181.355 61.052 180.923 61.916C180.515 62.756 180.083 63.5 179.627 64.148C179.411 64.436 179.195 64.712 178.979 64.976C178.763 65.216 178.523 65.468 178.259 65.732C179.147 65.732 179.963 65.48 180.707 64.976C181.451 64.448 182.099 63.812 182.651 63.068L182.723 62.996C182.795 62.996 182.831 63.068 182.831 63.212C182.831 63.38 182.783 63.536 182.687 63.68C182.207 64.352 181.607 64.952 180.887 65.48C180.167 65.984 179.351 66.236 178.439 66.236C178.343 66.236 178.247 66.236 178.151 66.236C178.055 66.236 177.959 66.224 177.863 66.2C176.519 67.448 175.007 68.072 173.327 68.072ZM174.263 67.46C174.599 67.46 174.959 67.34 175.343 67.1C175.751 66.86 176.063 66.632 176.279 66.416C176.687 66.008 177.059 65.576 177.395 65.12C177.731 64.64 178.043 64.16 178.331 63.68C178.667 63.104 179.003 62.42 179.339 61.628C179.675 60.836 179.843 60.092 179.843 59.396C179.843 58.844 179.651 58.568 179.267 58.568C178.955 58.568 178.571 58.7 178.115 58.964C177.683 59.228 177.359 59.468 177.143 59.684C176.327 60.524 175.643 61.436 175.091 62.42C174.779 62.972 174.443 63.62 174.083 64.364C173.723 65.108 173.543 65.792 173.543 66.416C173.543 66.512 173.543 66.608 173.543 66.704C173.567 66.776 173.591 66.86 173.615 66.956C173.711 67.292 173.927 67.46 174.263 67.46ZM183.575 68.216C183.335 68.216 183.083 68.132 182.819 67.964C182.579 67.772 182.387 67.592 182.243 67.424C182.219 67.376 182.315 67.28 182.531 67.136C182.747 66.968 182.975 66.812 183.215 66.668C183.479 66.524 183.623 66.464 183.647 66.488C183.839 66.584 184.031 66.692 184.223 66.812C184.415 66.908 184.619 66.944 184.835 66.92H184.979C185.099 66.92 185.159 66.956 185.159 67.028C185.159 67.1 185.075 67.22 184.907 67.388C184.691 67.556 184.463 67.736 184.223 67.928C184.007 68.12 183.791 68.216 183.575 68.216Z" fill="white"/>
</svg>
